<svg width="99" height="110" viewBox="0 0 99 110" fill="none" xmlns="http://www.w3.org/2000/svg">
<path d="M87 40.5C87 19.7893 70.2107 3 49.5 3M49.5 78C28.7893 78 12 61.2107 12 40.5" stroke="#00064A" stroke-width="5" stroke-linecap="round"/>
<g filter="url(#filter0_d)">
<path fill-rule="evenodd" clip-rule="evenodd" d="M49.5 67C64.1355 67 76 55.1355 76 40.5C76 25.8645 64.1355 14 49.5 14C34.8645 14 23 25.8645 23 40.5C23 55.1355 34.8645 67 49.5 67ZM56.7972 44.4301C55.2606 46.1082 53.3701 46.9473 51.1258 46.9473C49.5083 46.9473 48.0829 46.5632 46.8496 45.7948C45.6364 45.0265 44.7367 43.9752 44.1504 42.6407H52.8545V40.5177H43.5741C43.5337 40.0729 43.5135 39.7292 43.5135 39.4866C43.5135 39.244 43.5337 38.9002 43.5741 38.4554H52.8545V36.3324H44.1504C44.7367 34.998 45.6364 33.9466 46.8496 33.1783C48.0829 32.41 49.5083 32.0258 51.1258 32.0258C53.3701 32.0258 55.2606 32.8548 56.7972 34.5128L59.3144 32.1168C58.3439 30.9644 57.1308 30.0848 55.6751 29.4783C54.2395 28.8717 52.6524 28.5684 50.9135 28.5684C49.1545 28.5684 47.5168 28.8919 46.0004 29.5389C44.5042 30.1859 43.2304 31.0958 42.179 32.2685C41.1479 33.4412 40.42 34.7958 39.9954 36.3324H36.538V38.4554H39.6011C39.5809 38.6778 39.5708 39.0215 39.5708 39.4866C39.5708 39.9516 39.5809 40.2953 39.6011 40.5177H36.538V42.6407H39.9954C40.42 44.1773 41.1479 45.532 42.179 46.7047C43.2304 47.8774 44.5042 48.7872 46.0004 49.4342C47.5168 50.0812 49.1545 50.4047 50.9135 50.4047C52.6524 50.4047 54.2395 50.1014 55.6751 49.4949C57.1308 48.8883 58.3439 48.0088 59.3144 46.8563L56.7972 44.4301Z" fill="#00064A"/>
</g>
<defs>
<filter id="filter0_d" x="0.83" y="11.96" width="97.34" height="97.34" filterUnits="userSpaceOnUse" color-interpolation-filters="sRGB">
<feFlood flood-opacity="0" result="BackgroundImageFix"/>
<feColorMatrix in="SourceAlpha" type="matrix" values="0 0 0 0 0 0 0 0 0 0 0 0 0 0 0 0 0 0 127 0"/>
<feOffset dy="20.13"/>
<feGaussianBlur stdDeviation="11.085"/>
<feColorMatrix type="matrix" values="0 0 0 0 0.0522222 0 0 0 0 0.0736667 0 0 0 0 0.266667 0 0 0 0.15 0"/>
<feBlend mode="normal" in2="BackgroundImageFix" result="effect1_dropShadow"/>
<feBlend mode="normal" in="SourceGraphic" in2="effect1_dropShadow" result="shape"/>
</filter>
</defs>
</svg>
