<svg width="117" height="110" viewBox="0 0 117 110" fill="none" xmlns="http://www.w3.org/2000/svg">
<g filter="url(#filter0_d)">
<path d="M74.0817 55.3293C74.0817 55.3293 76.0275 55.018 77.4392 53.3088C79.192 51.1875 78.6533 48.6787 76.8556 47.1218C76.8556 47.1218 70.8027 41.8577 64.9249 36.7908L62.8915 38.4036C47.8905 49.9622 42.5558 39.9268 43.8844 36.5488L52.9627 27.4543C48.3035 26.3387 42.9508 30.9555 42.9508 30.9555L32.2342 37.9601V61.3102L41.299 61.8949L42.0127 62.3115L45.7046 65.0041C48.9184 67.1836 53.7033 67.8736 56.2506 66.0076C56.2506 66.0076 61.4574 67.8064 64.6309 65.5439C66.6822 64.0812 66.7473 63.0687 66.8617 63.0978C68.242 63.4584 71.4244 62.7192 73.1301 60.757C75.2083 58.3624 74.0817 55.3293 74.0817 55.3293Z" fill="#00064A"/>
<path d="M54.4799 28.2764C48.8646 33.8788 45.5251 37.4136 45.5251 37.4136C45.5251 37.4136 44.9954 41.1208 50.0833 41.9653C55.3731 42.8434 62.0769 36.8558 64.9519 34.2954C64.9519 34.2954 77.6457 45.3366 78.5143 46.0691C79.4479 46.8553 81.3107 49.7069 79.6005 53.3156C78.5345 55.5624 76.2116 56.2769 76.2116 56.2769C76.2116 56.2769 76.7278 59.1397 74.8919 61.3439C74.2433 62.1234 72.9843 63.1315 72.9843 63.1315C75.8413 64.1283 81.7596 63.678 83.9478 61.3103C83.9478 58.5573 83.9478 36.7012 83.9478 36.7012L69.0882 27.2662C59.2693 20.8283 55.023 27.7321 54.4799 28.2764Z" fill="#00064A"/>
<path d="M92.1281 35.4153H87.6911C86.6565 35.4153 85.8194 36.2531 85.8194 37.2812V60.9293C85.8194 61.9598 86.6565 62.7953 87.6911 62.7953H92.1281C93.1628 62.7953 93.9999 61.9598 93.9999 60.9293V37.2812C93.9999 36.2508 93.1628 35.4153 92.1281 35.4153Z" fill="#00064A"/>
<path d="M28.493 35.4153H24.0537C23.0191 35.4153 22.1819 36.2531 22.1819 37.2812V60.9293C22.1819 61.9598 23.0191 62.7953 24.0537 62.7953H28.493C29.5253 62.7953 30.3625 61.9598 30.3625 60.9293V37.2812C30.3625 36.2508 29.5231 35.4153 28.493 35.4153Z" fill="#00064A"/>
<path d="M71.7475 18.4376L78.6104 11.5747" stroke="#00064A" stroke-width="5" stroke-linecap="round"/>
<path d="M44.2957 18.4376L37.4328 11.5747" stroke="#00064A" stroke-width="5" stroke-linecap="round"/>
<path d="M58.0215 4.71179L58.0215 14.6249" stroke="#00064A" stroke-width="5" stroke-linecap="round"/>
</g>
<defs>
<filter id="filter0_d" x="0.0119457" y="0.171791" width="116.158" height="109.216" filterUnits="userSpaceOnUse" color-interpolation-filters="sRGB">
<feFlood flood-opacity="0" result="BackgroundImageFix"/>
<feColorMatrix in="SourceAlpha" type="matrix" values="0 0 0 0 0 0 0 0 0 0 0 0 0 0 0 0 0 0 127 0"/>
<feOffset dy="20.13"/>
<feGaussianBlur stdDeviation="11.085"/>
<feColorMatrix type="matrix" values="0 0 0 0 0.0522222 0 0 0 0 0.0736667 0 0 0 0 0.266667 0 0 0 0.15 0"/>
<feBlend mode="normal" in2="BackgroundImageFix" result="effect1_dropShadow"/>
<feBlend mode="normal" in="SourceGraphic" in2="effect1_dropShadow" result="shape"/>
</filter>
</defs>
</svg>
