<svg width="72" height="66" viewBox="0 0 72 66" fill="none" xmlns="http://www.w3.org/2000/svg">
<path d="M52.0817 53.3293C52.0817 53.3293 54.0275 53.018 55.4392 51.3088C57.192 49.1875 56.6533 46.6787 54.8556 45.1218C54.8556 45.1218 48.8027 39.8577 42.9249 34.7908L40.8915 36.4036C25.8905 47.9622 20.5558 37.9268 21.8844 34.5488L30.9627 25.4543C26.3035 24.3387 20.9508 28.9555 20.9508 28.9555L10.2342 35.9601V59.3102L19.299 59.8949L20.0127 60.3115L23.7046 63.0041C26.9184 65.1836 31.7033 65.8736 34.2506 64.0076C34.2506 64.0076 39.4574 65.8064 42.6309 63.5439C44.6822 62.0812 44.7473 61.0687 44.8617 61.0978C46.242 61.4584 49.4244 60.7192 51.1301 58.757C53.2083 56.3624 52.0817 53.3293 52.0817 53.3293Z" fill="#00064A"/>
<path d="M32.4799 26.2764C26.8646 31.8788 23.5251 35.4136 23.5251 35.4136C23.5251 35.4136 22.9954 39.1208 28.0833 39.9653C33.3731 40.8434 40.0769 34.8558 42.9519 32.2954C42.9519 32.2954 55.6457 43.3366 56.5143 44.0691C57.4479 44.8553 59.3107 47.7069 57.6005 51.3156C56.5345 53.5624 54.2116 54.2769 54.2116 54.2769C54.2116 54.2769 54.7278 57.1397 52.8919 59.3439C52.2433 60.1234 50.9843 61.1315 50.9843 61.1315C53.8413 62.1283 59.7596 61.678 61.9478 59.3103C61.9478 56.5573 61.9478 34.7012 61.9478 34.7012L47.0882 25.2662C37.2693 18.8283 33.023 25.7321 32.4799 26.2764Z" fill="#00064A"/>
<path d="M70.1281 33.4153H65.6911C64.6565 33.4153 63.8194 34.2531 63.8194 35.2812V58.9293C63.8194 59.9598 64.6565 60.7953 65.6911 60.7953H70.1281C71.1628 60.7953 71.9999 59.9598 71.9999 58.9293V35.2812C71.9999 34.2508 71.1628 33.4153 70.1281 33.4153Z" fill="#00064A"/>
<path d="M6.49296 33.4153H2.0537C1.01908 33.4153 0.181946 34.2531 0.181946 35.2812V58.9293C0.181946 59.9598 1.01908 60.7953 2.0537 60.7953H6.49296C7.52534 60.7953 8.36247 59.9598 8.36247 58.9293V35.2812C8.36247 34.2508 7.5231 33.4153 6.49296 33.4153Z" fill="#00064A"/>
<path d="M49.7475 16.4376L56.6104 9.57471" stroke="#00064A" stroke-width="5" stroke-linecap="round"/>
<path d="M22.2957 16.4376L15.4328 9.57471" stroke="#00064A" stroke-width="5" stroke-linecap="round"/>
<path d="M36.0215 2.71179L36.0215 12.6249" stroke="#00064A" stroke-width="5" stroke-linecap="round"/>
</svg>
