<svg width="81" height="81" viewBox="0 0 81 81" fill="none" xmlns="http://www.w3.org/2000/svg">
<path d="M78 40.5C78 19.7893 61.2107 3 40.5 3M40.5 78C19.7893 78 3 61.2107 3 40.5" stroke="#00064A" stroke-width="5" stroke-linecap="round"/>
<path fill-rule="evenodd" clip-rule="evenodd" d="M40.5 67C55.1355 67 67 55.1355 67 40.5C67 25.8645 55.1355 14 40.5 14C25.8645 14 14 25.8645 14 40.5C14 55.1355 25.8645 67 40.5 67ZM47.7972 44.4301C46.2606 46.1082 44.3701 46.9473 42.1258 46.9473C40.5083 46.9473 39.0829 46.5632 37.8496 45.7948C36.6364 45.0265 35.7367 43.9752 35.1504 42.6407H43.8545V40.5177H34.5741C34.5337 40.0729 34.5135 39.7292 34.5135 39.4866C34.5135 39.244 34.5337 38.9002 34.5741 38.4554H43.8545V36.3324H35.1504C35.7367 34.998 36.6364 33.9466 37.8496 33.1783C39.0829 32.41 40.5083 32.0258 42.1258 32.0258C44.3701 32.0258 46.2606 32.8548 47.7972 34.5128L50.3144 32.1168C49.3439 30.9644 48.1308 30.0848 46.6751 29.4783C45.2395 28.8717 43.6524 28.5684 41.9135 28.5684C40.1545 28.5684 38.5168 28.8919 37.0004 29.5389C35.5042 30.1859 34.2304 31.0958 33.179 32.2685C32.1479 33.4412 31.42 34.7958 30.9954 36.3324H27.538V38.4554H30.6011C30.5809 38.6778 30.5708 39.0216 30.5708 39.4866C30.5708 39.9516 30.5809 40.2953 30.6011 40.5177H27.538V42.6407H30.9954C31.42 44.1773 32.1479 45.532 33.179 46.7047C34.2304 47.8774 35.5042 48.7872 37.0004 49.4342C38.5168 50.0812 40.1545 50.4047 41.9135 50.4047C43.6524 50.4047 45.2395 50.1014 46.6751 49.4949C48.1308 48.8883 49.3439 48.0088 50.3144 46.8563L47.7972 44.4301Z" fill="#00064A"/>
</svg>
