<svg width="487" height="653" viewBox="0 0 487 653" fill="none" xmlns="http://www.w3.org/2000/svg">
<g filter="url(#filter0_d)">
<path d="M42 26.7836C42 18.0666 49.0666 11 57.7836 11H429.488C438.205 11 445.272 18.0666 445.272 26.7836V564.216C445.272 572.933 438.205 580 429.488 580H57.7836C49.0666 580 42 572.933 42 564.216V26.7836Z" fill="white"/>
<path d="M94.1824 48.4255C94.8445 48.5694 95.353 48.8573 95.7081 49.2891C96.0727 49.7113 96.255 50.2582 96.255 50.9299C96.255 51.7934 95.9336 52.4603 95.2907 52.9305C94.6574 53.3911 93.717 53.6213 92.4697 53.6213H87.8351V43.5463H92.1818C93.3044 43.5463 94.1728 43.7718 94.7869 44.2228C95.4106 44.6737 95.7225 45.3118 95.7225 46.137C95.7225 46.6936 95.5833 47.1685 95.3051 47.5619C95.0364 47.9457 94.6622 48.2336 94.1824 48.4255ZM88.9002 44.4243V48.0801H92.1098C92.9254 48.0801 93.5539 47.9265 93.9953 47.6195C94.4367 47.3029 94.6574 46.8471 94.6574 46.2522C94.6574 45.6573 94.4367 45.2063 93.9953 44.8992C93.5539 44.5826 92.9254 44.4243 92.1098 44.4243H88.9002ZM92.4553 52.7434C93.3572 52.7434 94.0385 52.5898 94.4991 52.2828C94.9596 51.9757 95.1899 51.496 95.1899 50.8435C95.1899 49.5865 94.2784 48.958 92.4553 48.958H88.9002V52.7434H92.4553ZM105.292 46.0507V53.6213H104.314V52.2396C104.045 52.7002 103.676 53.06 103.205 53.3191C102.735 53.5686 102.198 53.6933 101.593 53.6933C100.605 53.6933 99.8231 53.4198 99.2474 52.8729C98.6812 52.3164 98.3982 51.5056 98.3982 50.4405V46.0507H99.4201V50.3398C99.4201 51.1362 99.6168 51.7407 100.01 52.1533C100.404 52.5659 100.965 52.7722 101.694 52.7722C102.491 52.7722 103.119 52.5323 103.58 52.0525C104.04 51.5632 104.27 50.8867 104.27 50.0231V46.0507H105.292ZM115.063 42.9418V53.6213H114.084V52.1245C113.777 52.633 113.369 53.0216 112.861 53.2903C112.362 53.559 111.796 53.6933 111.163 53.6933C110.453 53.6933 109.81 53.5302 109.234 53.2039C108.658 52.8777 108.207 52.4219 107.881 51.8366C107.555 51.2513 107.392 50.5844 107.392 49.836C107.392 49.0876 107.555 48.4207 107.881 47.8354C108.207 47.2501 108.658 46.7991 109.234 46.4825C109.81 46.1562 110.453 45.9931 111.163 45.9931C111.777 45.9931 112.328 46.1226 112.818 46.3817C113.317 46.6312 113.724 47.0006 114.041 47.49V42.9418H115.063ZM111.249 52.7865C111.777 52.7865 112.252 52.6666 112.674 52.4267C113.106 52.1772 113.441 51.827 113.681 51.376C113.931 50.9251 114.056 50.4117 114.056 49.836C114.056 49.2603 113.931 48.7469 113.681 48.296C113.441 47.845 113.106 47.4996 112.674 47.2597C112.252 47.0102 111.777 46.8855 111.249 46.8855C110.712 46.8855 110.227 47.0102 109.795 47.2597C109.373 47.4996 109.037 47.845 108.788 48.296C108.548 48.7469 108.428 49.2603 108.428 49.836C108.428 50.4117 108.548 50.9251 108.788 51.376C109.037 51.827 109.373 52.1772 109.795 52.4267C110.227 52.6666 110.712 52.7865 111.249 52.7865ZM124.918 46.0507V52.7002C124.918 53.986 124.602 54.9359 123.968 55.55C123.345 56.1737 122.4 56.4855 121.133 56.4855C120.433 56.4855 119.766 56.38 119.132 56.1689C118.509 55.9674 118 55.6843 117.607 55.3197L118.125 54.5425C118.49 54.8687 118.931 55.123 119.449 55.3053C119.977 55.4876 120.529 55.5788 121.104 55.5788C122.064 55.5788 122.769 55.3533 123.22 54.9023C123.671 54.4609 123.896 53.7701 123.896 52.8297V51.8654C123.58 52.3452 123.162 52.7098 122.644 52.9593C122.136 53.2087 121.57 53.3335 120.946 53.3335C120.236 53.3335 119.588 53.18 119.003 52.8729C118.427 52.5563 117.971 52.1197 117.636 51.5632C117.309 50.997 117.146 50.3589 117.146 49.6489C117.146 48.9388 117.309 48.3056 117.636 47.749C117.971 47.1925 118.427 46.7607 119.003 46.4537C119.579 46.1466 120.226 45.9931 120.946 45.9931C121.589 45.9931 122.169 46.1226 122.687 46.3817C123.206 46.6408 123.623 47.015 123.94 47.5044V46.0507H124.918ZM121.047 52.4267C121.594 52.4267 122.088 52.3116 122.529 52.0813C122.971 51.8414 123.311 51.5104 123.551 51.0882C123.801 50.666 123.925 50.1862 123.925 49.6489C123.925 49.1116 123.801 48.6366 123.551 48.224C123.311 47.8018 122.971 47.4756 122.529 47.2453C122.097 47.0054 121.603 46.8855 121.047 46.8855C120.5 46.8855 120.006 47.0006 119.564 47.2309C119.132 47.4612 118.792 47.7874 118.542 48.2096C118.302 48.6318 118.182 49.1116 118.182 49.6489C118.182 50.1862 118.302 50.666 118.542 51.0882C118.792 51.5104 119.132 51.8414 119.564 52.0813C120.006 52.3116 120.5 52.4267 121.047 52.4267ZM134.368 50.1526H128.035C128.093 50.9395 128.395 51.5775 128.942 52.0669C129.489 52.5467 130.18 52.7865 131.014 52.7865C131.485 52.7865 131.916 52.705 132.31 52.5419C132.703 52.3692 133.044 52.1197 133.332 51.7934L133.907 52.4555C133.572 52.8585 133.149 53.1656 132.641 53.3767C132.142 53.5878 131.59 53.6933 130.986 53.6933C130.208 53.6933 129.518 53.5302 128.913 53.2039C128.318 52.8681 127.853 52.4075 127.517 51.8222C127.181 51.2369 127.013 50.5748 127.013 49.836C127.013 49.0972 127.172 48.4351 127.488 47.8498C127.814 47.2645 128.256 46.8087 128.812 46.4825C129.378 46.1562 130.012 45.9931 130.712 45.9931C131.413 45.9931 132.041 46.1562 132.598 46.4825C133.154 46.8087 133.591 47.2645 133.907 47.8498C134.224 48.4255 134.382 49.0876 134.382 49.836L134.368 50.1526ZM130.712 46.8711C129.983 46.8711 129.369 47.1061 128.87 47.5763C128.381 48.0369 128.102 48.6414 128.035 49.3898H133.404C133.336 48.6414 133.053 48.0369 132.554 47.5763C132.065 47.1061 131.451 46.8711 130.712 46.8711ZM140.449 53.1608C140.257 53.3335 140.017 53.4678 139.73 53.5638C139.451 53.6501 139.159 53.6933 138.852 53.6933C138.142 53.6933 137.595 53.5014 137.211 53.1176C136.827 52.7338 136.635 52.1916 136.635 51.4912V46.9142H135.282V46.0507H136.635V44.3955H137.657V46.0507H139.96V46.9142H137.657V51.4336C137.657 51.8846 137.767 52.23 137.988 52.4699C138.218 52.7002 138.545 52.8153 138.967 52.8153C139.178 52.8153 139.379 52.7818 139.571 52.7146C139.773 52.6474 139.945 52.5515 140.089 52.4267L140.449 53.1608ZM147.818 56.4136C147.281 55.5308 146.868 54.5185 146.58 53.3767C146.292 52.2252 146.148 50.9922 146.148 49.6777C146.148 48.3631 146.292 47.1301 146.58 45.9787C146.868 44.8177 147.281 43.8054 147.818 42.9418H148.797C148.231 43.9109 147.813 44.952 147.544 46.0651C147.285 47.1781 147.156 48.3823 147.156 49.6777C147.156 50.973 147.285 52.1772 147.544 53.2903C147.813 54.4034 148.231 55.4444 148.797 56.4136H147.818ZM150.813 46.0507H151.835V53.6213H150.813V46.0507ZM151.331 44.3955C151.12 44.3955 150.943 44.3235 150.799 44.1796C150.655 44.0357 150.583 43.8629 150.583 43.6614C150.583 43.4695 150.655 43.3016 150.799 43.1577C150.943 43.0138 151.12 42.9418 151.331 42.9418C151.542 42.9418 151.72 43.0138 151.864 43.1577C152.008 43.292 152.08 43.4551 152.08 43.6471C152.08 43.8581 152.008 44.0357 151.864 44.1796C151.72 44.3235 151.542 44.3955 151.331 44.3955ZM157.183 43.7334C156.741 43.7334 156.406 43.8534 156.175 44.0932C155.955 44.3331 155.844 44.6881 155.844 45.1583V46.0507H158.176V46.9142H155.873V53.6213H154.851V46.9142H153.498V46.0507H154.851V45.1151C154.851 44.4243 155.048 43.8773 155.441 43.4743C155.844 43.0713 156.41 42.8698 157.14 42.8698C157.427 42.8698 157.706 42.913 157.974 42.9994C158.243 43.0761 158.469 43.1913 158.651 43.3448L158.305 44.1076C158.008 43.8581 157.634 43.7334 157.183 43.7334ZM166.129 49.8216L164.344 51.4624V53.6213H163.323V42.9418H164.344V50.1814L168.864 46.0507H170.13L166.892 49.1451L170.433 53.6213H169.18L166.129 49.8216ZM175.712 45.9931C176.662 45.9931 177.415 46.2714 177.971 46.8279C178.537 47.3748 178.82 48.176 178.82 49.2315V53.6213H177.799V49.3323C177.799 48.5454 177.602 47.9457 177.208 47.5331C176.815 47.1205 176.254 46.9142 175.524 46.9142C174.709 46.9142 174.061 47.1589 173.581 47.6483C173.111 48.128 172.876 48.7949 172.876 49.6489V53.6213H171.854V46.0507H172.833V47.4468C173.111 46.9862 173.495 46.6312 173.984 46.3817C174.483 46.1226 175.059 45.9931 175.712 45.9931ZM184.717 53.6933C183.988 53.6933 183.331 53.5302 182.746 53.2039C182.16 52.8681 181.7 52.4075 181.364 51.8222C181.028 51.2369 180.86 50.5748 180.86 49.836C180.86 49.0972 181.028 48.4351 181.364 47.8498C181.7 47.2645 182.16 46.8087 182.746 46.4825C183.331 46.1562 183.988 45.9931 184.717 45.9931C185.447 45.9931 186.104 46.1562 186.689 46.4825C187.275 46.8087 187.73 47.2645 188.057 47.8498C188.392 48.4351 188.56 49.0972 188.56 49.836C188.56 50.5748 188.392 51.2369 188.057 51.8222C187.73 52.4075 187.275 52.8681 186.689 53.2039C186.104 53.5302 185.447 53.6933 184.717 53.6933ZM184.717 52.7865C185.255 52.7865 185.735 52.6666 186.157 52.4267C186.588 52.1772 186.924 51.827 187.164 51.376C187.404 50.9251 187.524 50.4117 187.524 49.836C187.524 49.2603 187.404 48.7469 187.164 48.296C186.924 47.845 186.588 47.4996 186.157 47.2597C185.735 47.0102 185.255 46.8855 184.717 46.8855C184.18 46.8855 183.696 47.0102 183.264 47.2597C182.842 47.4996 182.506 47.845 182.256 48.296C182.016 48.7469 181.896 49.2603 181.896 49.836C181.896 50.4117 182.016 50.9251 182.256 51.376C182.506 51.827 182.842 52.1772 183.264 52.4267C183.696 52.6666 184.18 52.7865 184.717 52.7865ZM201.547 46.0507L198.683 53.6213H197.719L195.329 47.418L192.94 53.6213H191.976L189.126 46.0507H190.105L192.48 52.4843L194.912 46.0507H195.79L198.208 52.4843L200.612 46.0507H201.547ZM206.943 45.9931C207.893 45.9931 208.646 46.2714 209.203 46.8279C209.769 47.3748 210.052 48.176 210.052 49.2315V53.6213H209.03V49.3323C209.03 48.5454 208.833 47.9457 208.44 47.5331C208.047 47.1205 207.485 46.9142 206.756 46.9142C205.94 46.9142 205.293 47.1589 204.813 47.6483C204.343 48.128 204.108 48.7949 204.108 49.6489V53.6213H203.086V46.0507H204.065V47.4468C204.343 46.9862 204.727 46.6312 205.216 46.3817C205.715 46.1226 206.291 45.9931 206.943 45.9931ZM211.977 56.4136C212.543 55.4444 212.961 54.4082 213.229 53.3047C213.498 52.1916 213.632 50.9826 213.632 49.6777C213.632 48.3727 213.498 47.1685 213.229 46.0651C212.961 44.952 212.543 43.9109 211.977 42.9418H212.956C213.493 43.8054 213.906 44.8177 214.194 45.9787C214.491 47.1301 214.64 48.3631 214.64 49.6777C214.64 50.9922 214.496 52.2252 214.208 53.3767C213.92 54.5281 213.503 55.5404 212.956 56.4136H211.977Z" fill="#696987"/>
<rect x="86.008" y="68.6102" width="266.447" height="53.9823" rx="5.39734" fill="#F4F4FF"/>
<path d="M116.427 99.0182V100.601H109.001V99.3492L113.002 95.5495C113.453 95.1177 113.755 94.7435 113.909 94.4268C114.072 94.1006 114.153 93.7791 114.153 93.4625C114.153 92.9923 113.995 92.6325 113.678 92.383C113.362 92.1336 112.896 92.0088 112.282 92.0088C111.256 92.0088 110.469 92.359 109.922 93.0595L108.612 92.052C109.006 91.5243 109.533 91.1165 110.195 90.8286C110.867 90.5311 111.615 90.3824 112.441 90.3824C113.534 90.3824 114.408 90.6415 115.06 91.1596C115.713 91.6778 116.039 92.383 116.039 93.2754C116.039 93.8223 115.924 94.3357 115.693 94.8154C115.463 95.2952 115.022 95.8421 114.369 96.4562L111.678 99.0182H116.427ZM125.065 90.5263V91.7785L121.15 100.601H119.149L122.935 92.1096H118.976V93.8223H117.235V90.5263H125.065ZM126.628 100.702C126.301 100.702 126.023 100.592 125.793 100.371C125.563 100.141 125.447 99.8529 125.447 99.5075C125.447 99.1525 125.558 98.8646 125.778 98.6439C126.009 98.4233 126.292 98.3129 126.628 98.3129C126.963 98.3129 127.242 98.4233 127.462 98.6439C127.693 98.8646 127.808 99.1525 127.808 99.5075C127.808 99.8529 127.693 100.141 127.462 100.371C127.232 100.592 126.954 100.702 126.628 100.702ZM133.053 100.745C132.247 100.745 131.527 100.544 130.894 100.141C130.261 99.7282 129.762 99.1333 129.397 98.3561C129.033 97.5693 128.85 96.6385 128.85 95.5639C128.85 94.4892 129.033 93.5632 129.397 92.786C129.762 91.9992 130.261 91.4043 130.894 91.0013C131.527 90.5887 132.247 90.3824 133.053 90.3824C133.859 90.3824 134.579 90.5887 135.212 91.0013C135.855 91.4043 136.359 91.9992 136.723 92.786C137.088 93.5632 137.27 94.4892 137.27 95.5639C137.27 96.6385 137.088 97.5693 136.723 98.3561C136.359 99.1333 135.855 99.7282 135.212 100.141C134.579 100.544 133.859 100.745 133.053 100.745ZM133.053 99.1189C133.773 99.1189 134.339 98.8215 134.751 98.2265C135.174 97.6316 135.385 96.7441 135.385 95.5639C135.385 94.3836 135.174 93.4961 134.751 92.9012C134.339 92.3063 133.773 92.0088 133.053 92.0088C132.343 92.0088 131.777 92.3063 131.355 92.9012C130.942 93.4961 130.736 94.3836 130.736 95.5639C130.736 96.7441 130.942 97.6316 131.355 98.2265C131.777 98.8215 132.343 99.1189 133.053 99.1189ZM142.737 100.745C141.931 100.745 141.212 100.544 140.578 100.141C139.945 99.7282 139.446 99.1333 139.081 98.3561C138.717 97.5693 138.535 96.6385 138.535 95.5639C138.535 94.4892 138.717 93.5632 139.081 92.786C139.446 91.9992 139.945 91.4043 140.578 91.0013C141.212 90.5887 141.931 90.3824 142.737 90.3824C143.543 90.3824 144.263 90.5887 144.896 91.0013C145.539 91.4043 146.043 91.9992 146.407 92.786C146.772 93.5632 146.954 94.4892 146.954 95.5639C146.954 96.6385 146.772 97.5693 146.407 98.3561C146.043 99.1333 145.539 99.7282 144.896 100.141C144.263 100.544 143.543 100.745 142.737 100.745ZM142.737 99.1189C143.457 99.1189 144.023 98.8215 144.436 98.2265C144.858 97.6316 145.069 96.7441 145.069 95.5639C145.069 94.3836 144.858 93.4961 144.436 92.9012C144.023 92.3063 143.457 92.0088 142.737 92.0088C142.027 92.0088 141.461 92.3063 141.039 92.9012C140.626 93.4961 140.42 94.3836 140.42 95.5639C140.42 96.7441 140.626 97.6316 141.039 98.2265C141.461 98.8215 142.027 99.1189 142.737 99.1189ZM152.422 100.745C151.616 100.745 150.896 100.544 150.263 100.141C149.629 99.7282 149.13 99.1333 148.766 98.3561C148.401 97.5693 148.219 96.6385 148.219 95.5639C148.219 94.4892 148.401 93.5632 148.766 92.786C149.13 91.9992 149.629 91.4043 150.263 91.0013C150.896 90.5887 151.616 90.3824 152.422 90.3824C153.228 90.3824 153.947 90.5887 154.58 91.0013C155.223 91.4043 155.727 91.9992 156.092 92.786C156.456 93.5632 156.639 94.4892 156.639 95.5639C156.639 96.6385 156.456 97.5693 156.092 98.3561C155.727 99.1333 155.223 99.7282 154.58 100.141C153.947 100.544 153.228 100.745 152.422 100.745ZM152.422 99.1189C153.141 99.1189 153.707 98.8215 154.12 98.2265C154.542 97.6316 154.753 96.7441 154.753 95.5639C154.753 94.3836 154.542 93.4961 154.12 92.9012C153.707 92.3063 153.141 92.0088 152.422 92.0088C151.711 92.0088 151.145 92.3063 150.723 92.9012C150.311 93.4961 150.104 94.3836 150.104 95.5639C150.104 96.7441 150.311 97.6316 150.723 98.2265C151.145 98.8215 151.711 99.1189 152.422 99.1189ZM168.602 99.1045C169.667 99.1045 170.565 98.7063 171.294 97.9099L172.488 99.0613C172.028 99.6083 171.452 100.026 170.761 100.314C170.08 100.601 169.327 100.745 168.502 100.745C167.667 100.745 166.89 100.592 166.17 100.285C165.46 99.9777 164.855 99.5459 164.356 98.9894C163.867 98.4328 163.522 97.79 163.32 97.0607H161.679V96.0532H163.133C163.123 95.9477 163.119 95.7846 163.119 95.5639C163.119 95.3432 163.123 95.1801 163.133 95.0745H161.679V94.067H163.32C163.522 93.3378 163.867 92.6949 164.356 92.1383C164.855 91.5818 165.46 91.15 166.17 90.843C166.89 90.5359 167.667 90.3824 168.502 90.3824C169.327 90.3824 170.08 90.5263 170.761 90.8142C171.452 91.1021 172.028 91.5195 172.488 92.0664L171.294 93.2034C170.565 92.4166 169.667 92.0232 168.602 92.0232C167.835 92.0232 167.158 92.2055 166.573 92.5701C165.997 92.9348 165.57 93.4337 165.292 94.067H169.423V95.0745H165.018C164.999 95.2856 164.99 95.4487 164.99 95.5639C164.99 95.679 164.999 95.8421 165.018 96.0532H169.423V97.0607H165.292C165.57 97.694 165.997 98.193 166.573 98.5576C167.158 98.9222 167.835 99.1045 168.602 99.1045Z" fill="#240D85"/>
<path d="M93.9673 152.58H88.3541L87.1451 155.271H86.0368L90.6426 145.196H91.6932L96.299 155.271H95.1763L93.9673 152.58ZM93.5787 151.716L91.1607 146.304L88.7427 151.716H93.5787ZM107.191 147.643C108.141 147.643 108.885 147.916 109.422 148.463C109.969 149.01 110.243 149.816 110.243 150.881V155.271H109.221V150.982C109.221 150.195 109.029 149.596 108.645 149.183C108.271 148.77 107.738 148.564 107.048 148.564C106.261 148.564 105.642 148.809 105.191 149.298C104.74 149.778 104.514 150.445 104.514 151.299V155.271H103.493V150.982C103.493 150.195 103.301 149.596 102.917 149.183C102.543 148.77 102.005 148.564 101.305 148.564C100.528 148.564 99.9087 148.809 99.4481 149.298C98.9971 149.778 98.7716 150.445 98.7716 151.299V155.271H97.7497V147.701H98.7284V149.082C98.9971 148.622 99.3713 148.267 99.8511 148.017C100.331 147.768 100.883 147.643 101.506 147.643C102.14 147.643 102.686 147.777 103.147 148.046C103.617 148.315 103.967 148.713 104.198 149.241C104.476 148.742 104.874 148.353 105.392 148.075C105.92 147.787 106.52 147.643 107.191 147.643ZM116.137 155.343C115.407 155.343 114.75 155.18 114.165 154.854C113.58 154.518 113.119 154.057 112.783 153.472C112.447 152.887 112.279 152.225 112.279 151.486C112.279 150.747 112.447 150.085 112.783 149.5C113.119 148.914 113.58 148.459 114.165 148.132C114.75 147.806 115.407 147.643 116.137 147.643C116.866 147.643 117.523 147.806 118.109 148.132C118.694 148.459 119.15 148.914 119.476 149.5C119.812 150.085 119.98 150.747 119.98 151.486C119.98 152.225 119.812 152.887 119.476 153.472C119.15 154.057 118.694 154.518 118.109 154.854C117.523 155.18 116.866 155.343 116.137 155.343ZM116.137 154.436C116.674 154.436 117.154 154.317 117.576 154.077C118.008 153.827 118.344 153.477 118.583 153.026C118.823 152.575 118.943 152.062 118.943 151.486C118.943 150.91 118.823 150.397 118.583 149.946C118.344 149.495 118.008 149.149 117.576 148.91C117.154 148.66 116.674 148.535 116.137 148.535C115.599 148.535 115.115 148.66 114.683 148.91C114.261 149.149 113.925 149.495 113.675 149.946C113.436 150.397 113.316 150.91 113.316 151.486C113.316 152.062 113.436 152.575 113.675 153.026C113.925 153.477 114.261 153.827 114.683 154.077C115.115 154.317 115.599 154.436 116.137 154.436ZM128.888 147.701V155.271H127.909V153.89C127.641 154.35 127.271 154.71 126.801 154.969C126.331 155.218 125.794 155.343 125.189 155.343C124.201 155.343 123.419 155.07 122.843 154.523C122.277 153.966 121.994 153.155 121.994 152.09V147.701H123.016V151.99C123.016 152.786 123.213 153.391 123.606 153.803C123.999 154.216 124.561 154.422 125.29 154.422C126.086 154.422 126.715 154.182 127.175 153.702C127.636 153.213 127.866 152.537 127.866 151.673V147.701H128.888ZM135.607 147.643C136.557 147.643 137.311 147.921 137.867 148.478C138.433 149.025 138.716 149.826 138.716 150.881V155.271H137.694V150.982C137.694 150.195 137.498 149.596 137.104 149.183C136.711 148.77 136.15 148.564 135.42 148.564C134.605 148.564 133.957 148.809 133.477 149.298C133.007 149.778 132.772 150.445 132.772 151.299V155.271H131.75V147.701H132.729V149.097C133.007 148.636 133.391 148.281 133.88 148.032C134.379 147.773 134.955 147.643 135.607 147.643ZM145.478 154.811C145.286 154.983 145.046 155.118 144.758 155.214C144.48 155.3 144.187 155.343 143.88 155.343C143.17 155.343 142.623 155.151 142.239 154.767C141.855 154.384 141.663 153.842 141.663 153.141V148.564H140.31V147.701H141.663V146.045H142.685V147.701H144.988V148.564H142.685V153.084C142.685 153.534 142.796 153.88 143.016 154.12C143.247 154.35 143.573 154.465 143.995 154.465C144.206 154.465 144.408 154.432 144.6 154.364C144.801 154.297 144.974 154.201 145.118 154.077L145.478 154.811Z" fill="#696987"/>
<path d="M92.2106 359.121C91.2127 359.121 90.3107 358.9 89.5047 358.459C88.7083 358.018 88.0798 357.408 87.6192 356.631C87.1683 355.844 86.9428 354.966 86.9428 353.997C86.9428 353.028 87.1683 352.155 87.6192 351.378C88.0798 350.591 88.7131 349.977 89.5191 349.535C90.3251 349.094 91.2271 348.873 92.225 348.873C92.9734 348.873 93.6643 348.998 94.2976 349.247C94.9308 349.497 95.4682 349.862 95.9096 350.341L95.2331 351.018C94.4463 350.221 93.4532 349.823 92.2538 349.823C91.4574 349.823 90.7329 350.006 90.0804 350.37C89.428 350.735 88.9146 351.234 88.5404 351.867C88.1758 352.5 87.9935 353.21 87.9935 353.997C87.9935 354.784 88.1758 355.494 88.5404 356.127C88.9146 356.761 89.428 357.26 90.0804 357.624C90.7329 357.989 91.4574 358.171 92.2538 358.171C93.4628 358.171 94.4559 357.768 95.2331 356.962L95.9096 357.639C95.4682 358.118 94.926 358.488 94.2832 358.747C93.6499 358.996 92.959 359.121 92.2106 359.121ZM100.5 351.406C101.488 351.406 102.246 351.656 102.774 352.155C103.302 352.644 103.566 353.373 103.566 354.343V359.035H102.587V357.854C102.357 358.248 102.016 358.555 101.565 358.776C101.124 358.996 100.596 359.107 99.9819 359.107C99.1375 359.107 98.4658 358.905 97.9669 358.502C97.4679 358.099 97.2184 357.567 97.2184 356.905C97.2184 356.262 97.4487 355.743 97.9093 355.35C98.3794 354.957 99.1231 354.76 100.14 354.76H102.544V354.299C102.544 353.647 102.361 353.153 101.997 352.817C101.632 352.472 101.1 352.299 100.399 352.299C99.9195 352.299 99.4589 352.38 99.0175 352.543C98.5762 352.697 98.1971 352.913 97.8805 353.191L97.4199 352.428C97.8037 352.102 98.2643 351.853 98.8016 351.68C99.339 351.498 99.9051 351.406 100.5 351.406ZM100.14 358.301C100.716 358.301 101.21 358.171 101.623 357.912C102.035 357.643 102.342 357.26 102.544 356.761V355.523H100.169C98.8736 355.523 98.2259 355.974 98.2259 356.876C98.2259 357.317 98.3938 357.667 98.7297 357.926C99.0655 358.176 99.5357 358.301 100.14 358.301ZM110.328 358.574C110.136 358.747 109.896 358.881 109.608 358.977C109.33 359.063 109.038 359.107 108.73 359.107C108.02 359.107 107.474 358.915 107.09 358.531C106.706 358.147 106.514 357.605 106.514 356.905V352.328H105.161V351.464H106.514V349.809H107.536V351.464H109.839V352.328H107.536V356.847C107.536 357.298 107.646 357.643 107.867 357.883C108.097 358.114 108.423 358.229 108.846 358.229C109.057 358.229 109.258 358.195 109.45 358.128C109.652 358.061 109.824 357.965 109.968 357.84L110.328 358.574ZM118.513 355.566H112.18C112.238 356.353 112.54 356.991 113.087 357.48C113.634 357.96 114.325 358.2 115.16 358.2C115.63 358.2 116.062 358.118 116.455 357.955C116.849 357.782 117.189 357.533 117.477 357.207L118.053 357.869C117.717 358.272 117.295 358.579 116.786 358.79C116.287 359.001 115.735 359.107 115.131 359.107C114.354 359.107 113.663 358.944 113.058 358.617C112.463 358.281 111.998 357.821 111.662 357.236C111.326 356.65 111.159 355.988 111.159 355.249C111.159 354.51 111.317 353.848 111.633 353.263C111.96 352.678 112.401 352.222 112.958 351.896C113.524 351.57 114.157 351.406 114.857 351.406C115.558 351.406 116.186 351.57 116.743 351.896C117.299 352.222 117.736 352.678 118.053 353.263C118.369 353.839 118.528 354.501 118.528 355.249L118.513 355.566ZM114.857 352.284C114.128 352.284 113.514 352.519 113.015 352.99C112.526 353.45 112.248 354.055 112.18 354.803H117.549C117.482 354.055 117.199 353.45 116.7 352.99C116.21 352.519 115.596 352.284 114.857 352.284ZM127.617 351.464V358.114C127.617 359.399 127.3 360.349 126.667 360.963C126.043 361.587 125.098 361.899 123.832 361.899C123.131 361.899 122.464 361.793 121.831 361.582C121.207 361.381 120.699 361.098 120.305 360.733L120.824 359.956C121.188 360.282 121.63 360.536 122.148 360.719C122.675 360.901 123.227 360.992 123.803 360.992C124.762 360.992 125.468 360.767 125.919 360.316C126.37 359.874 126.595 359.183 126.595 358.243V357.279C126.278 357.758 125.861 358.123 125.343 358.373C124.834 358.622 124.268 358.747 123.645 358.747C122.935 358.747 122.287 358.593 121.702 358.286C121.126 357.97 120.67 357.533 120.334 356.976C120.008 356.41 119.845 355.772 119.845 355.062C119.845 354.352 120.008 353.719 120.334 353.162C120.67 352.606 121.126 352.174 121.702 351.867C122.277 351.56 122.925 351.406 123.645 351.406C124.287 351.406 124.868 351.536 125.386 351.795C125.904 352.054 126.322 352.428 126.638 352.918V351.464H127.617ZM123.745 357.84C124.292 357.84 124.786 357.725 125.228 357.495C125.669 357.255 126.01 356.924 126.25 356.502C126.499 356.079 126.624 355.6 126.624 355.062C126.624 354.525 126.499 354.05 126.25 353.637C126.01 353.215 125.669 352.889 125.228 352.659C124.796 352.419 124.302 352.299 123.745 352.299C123.198 352.299 122.704 352.414 122.263 352.644C121.831 352.875 121.49 353.201 121.241 353.623C121.001 354.045 120.881 354.525 120.881 355.062C120.881 355.6 121.001 356.079 121.241 356.502C121.49 356.924 121.831 357.255 122.263 357.495C122.704 357.725 123.198 357.84 123.745 357.84ZM133.569 359.107C132.84 359.107 132.183 358.944 131.597 358.617C131.012 358.281 130.551 357.821 130.216 357.236C129.88 356.65 129.712 355.988 129.712 355.249C129.712 354.51 129.88 353.848 130.216 353.263C130.551 352.678 131.012 352.222 131.597 351.896C132.183 351.57 132.84 351.406 133.569 351.406C134.298 351.406 134.956 351.57 135.541 351.896C136.126 352.222 136.582 352.678 136.908 353.263C137.244 353.848 137.412 354.51 137.412 355.249C137.412 355.988 137.244 356.65 136.908 357.236C136.582 357.821 136.126 358.281 135.541 358.617C134.956 358.944 134.298 359.107 133.569 359.107ZM133.569 358.2C134.107 358.2 134.586 358.08 135.008 357.84C135.44 357.591 135.776 357.24 136.016 356.789C136.256 356.338 136.376 355.825 136.376 355.249C136.376 354.674 136.256 354.16 136.016 353.709C135.776 353.258 135.44 352.913 135.008 352.673C134.586 352.424 134.107 352.299 133.569 352.299C133.032 352.299 132.547 352.424 132.115 352.673C131.693 352.913 131.357 353.258 131.108 353.709C130.868 354.16 130.748 354.674 130.748 355.249C130.748 355.825 130.868 356.338 131.108 356.789C131.357 357.24 131.693 357.591 132.115 357.84C132.547 358.08 133.032 358.2 133.569 358.2ZM140.477 352.946C140.717 352.438 141.072 352.054 141.542 351.795C142.022 351.536 142.612 351.406 143.312 351.406V352.4L143.068 352.385C142.271 352.385 141.648 352.63 141.197 353.119C140.746 353.609 140.52 354.295 140.52 355.177V359.035H139.498V351.464H140.477V352.946ZM151.848 351.464L148.062 359.941C147.755 360.651 147.4 361.155 146.997 361.453C146.594 361.75 146.11 361.899 145.544 361.899C145.179 361.899 144.838 361.841 144.522 361.726C144.205 361.611 143.932 361.438 143.701 361.208L144.176 360.445C144.56 360.829 145.021 361.021 145.558 361.021C145.903 361.021 146.196 360.925 146.436 360.733C146.685 360.541 146.916 360.215 147.127 359.754L147.458 359.02L144.076 351.464H145.141L147.99 357.898L150.84 351.464H151.848Z" fill="#696987"/>
<path d="M92.2106 460.925C91.2127 460.925 90.3107 460.705 89.5047 460.263C88.7083 459.822 88.0798 459.213 87.6192 458.435C87.1683 457.649 86.9428 456.771 86.9428 455.802C86.9428 454.832 87.1683 453.959 87.6192 453.182C88.0798 452.395 88.7131 451.781 89.5191 451.34C90.3251 450.898 91.2271 450.678 92.225 450.678C92.9734 450.678 93.6643 450.802 94.2976 451.052C94.9308 451.301 95.4682 451.666 95.9096 452.146L95.2331 452.822C94.4463 452.026 93.4532 451.628 92.2538 451.628C91.4574 451.628 90.7329 451.81 90.0804 452.175C89.428 452.539 88.9146 453.038 88.5404 453.671C88.1758 454.305 87.9935 455.015 87.9935 455.802C87.9935 456.588 88.1758 457.298 88.5404 457.932C88.9146 458.565 89.428 459.064 90.0804 459.429C90.7329 459.793 91.4574 459.976 92.2538 459.976C93.4628 459.976 94.4559 459.573 95.2331 458.767L95.9096 459.443C95.4682 459.923 94.926 460.292 94.2832 460.551C93.6499 460.801 92.959 460.925 92.2106 460.925ZM100.721 460.911C99.9921 460.911 99.3348 460.748 98.7495 460.422C98.1642 460.086 97.7036 459.625 97.3677 459.04C97.0319 458.455 96.864 457.793 96.864 457.054C96.864 456.315 97.0319 455.653 97.3677 455.068C97.7036 454.482 98.1642 454.026 98.7495 453.7C99.3348 453.374 99.9921 453.211 100.721 453.211C101.451 453.211 102.108 453.374 102.693 453.7C103.278 454.026 103.734 454.482 104.06 455.068C104.396 455.653 104.564 456.315 104.564 457.054C104.564 457.793 104.396 458.455 104.06 459.04C103.734 459.625 103.278 460.086 102.693 460.422C102.108 460.748 101.451 460.911 100.721 460.911ZM100.721 460.004C101.259 460.004 101.738 459.884 102.161 459.644C102.592 459.395 102.928 459.045 103.168 458.594C103.408 458.143 103.528 457.629 103.528 457.054C103.528 456.478 103.408 455.965 103.168 455.514C102.928 455.063 102.592 454.717 102.161 454.477C101.738 454.228 101.259 454.103 100.721 454.103C100.184 454.103 99.6994 454.228 99.2676 454.477C98.8454 454.717 98.5096 455.063 98.2601 455.514C98.0202 455.965 97.9003 456.478 97.9003 457.054C97.9003 457.629 98.0202 458.143 98.2601 458.594C98.5096 459.045 98.8454 459.395 99.2676 459.644C99.6994 459.884 100.184 460.004 100.721 460.004ZM108.68 460.911C108.066 460.911 107.476 460.825 106.91 460.652C106.353 460.47 105.916 460.244 105.6 459.976L106.06 459.17C106.377 459.419 106.775 459.625 107.255 459.788C107.735 459.942 108.234 460.019 108.752 460.019C109.443 460.019 109.951 459.913 110.278 459.702C110.613 459.481 110.781 459.174 110.781 458.781C110.781 458.503 110.69 458.287 110.508 458.133C110.325 457.97 110.095 457.85 109.817 457.773C109.539 457.687 109.169 457.606 108.709 457.529C108.095 457.414 107.6 457.298 107.226 457.183C106.852 457.059 106.531 456.852 106.262 456.564C106.003 456.277 105.873 455.878 105.873 455.37C105.873 454.737 106.137 454.218 106.665 453.815C107.193 453.412 107.927 453.211 108.867 453.211C109.356 453.211 109.846 453.278 110.335 453.412C110.824 453.537 111.227 453.705 111.544 453.916L111.098 454.737C110.474 454.305 109.731 454.089 108.867 454.089C108.215 454.089 107.72 454.204 107.385 454.434C107.058 454.665 106.895 454.967 106.895 455.341C106.895 455.629 106.986 455.859 107.169 456.032C107.361 456.205 107.596 456.334 107.874 456.42C108.152 456.497 108.536 456.579 109.025 456.665C109.63 456.78 110.114 456.895 110.479 457.011C110.844 457.126 111.155 457.322 111.415 457.601C111.674 457.879 111.803 458.263 111.803 458.752C111.803 459.414 111.525 459.942 110.968 460.335C110.421 460.719 109.659 460.911 108.68 460.911ZM117.679 460.379C117.487 460.551 117.247 460.686 116.96 460.782C116.681 460.868 116.389 460.911 116.082 460.911C115.372 460.911 114.825 460.719 114.441 460.335C114.057 459.952 113.865 459.409 113.865 458.709V454.132H112.512V453.268H113.865V451.613H114.887V453.268H117.19V454.132H114.887V458.651C114.887 459.102 114.997 459.448 115.218 459.688C115.448 459.918 115.775 460.033 116.197 460.033C116.408 460.033 116.609 460 116.801 459.932C117.003 459.865 117.175 459.769 117.319 459.644L117.679 460.379ZM127.898 460.925C126.9 460.925 125.998 460.705 125.192 460.263C124.395 459.822 123.767 459.213 123.306 458.435C122.855 457.649 122.63 456.771 122.63 455.802C122.63 454.832 122.855 453.959 123.306 453.182C123.767 452.395 124.4 451.781 125.206 451.34C126.012 450.898 126.914 450.678 127.912 450.678C128.661 450.678 129.351 450.802 129.985 451.052C130.618 451.301 131.155 451.666 131.597 452.146L130.92 452.822C130.133 452.026 129.14 451.628 127.941 451.628C127.144 451.628 126.42 451.81 125.768 452.175C125.115 452.539 124.602 453.038 124.227 453.671C123.863 454.305 123.681 455.015 123.681 455.802C123.681 456.588 123.863 457.298 124.227 457.932C124.602 458.565 125.115 459.064 125.768 459.429C126.42 459.793 127.144 459.976 127.941 459.976C129.15 459.976 130.143 459.573 130.92 458.767L131.597 459.443C131.155 459.923 130.613 460.292 129.97 460.551C129.337 460.801 128.646 460.925 127.898 460.925ZM139.906 457.37H133.573C133.631 458.157 133.933 458.795 134.48 459.285C135.027 459.764 135.718 460.004 136.552 460.004C137.022 460.004 137.454 459.923 137.848 459.76C138.241 459.587 138.582 459.337 138.87 459.011L139.445 459.673C139.109 460.076 138.687 460.383 138.179 460.594C137.68 460.806 137.128 460.911 136.524 460.911C135.746 460.911 135.055 460.748 134.451 460.422C133.856 460.086 133.391 459.625 133.055 459.04C132.719 458.455 132.551 457.793 132.551 457.054C132.551 456.315 132.709 455.653 133.026 455.068C133.352 454.482 133.794 454.026 134.35 453.7C134.916 453.374 135.55 453.211 136.25 453.211C136.951 453.211 137.579 453.374 138.136 453.7C138.692 454.026 139.129 454.482 139.445 455.068C139.762 455.643 139.92 456.305 139.92 457.054L139.906 457.37ZM136.25 454.089C135.521 454.089 134.907 454.324 134.408 454.794C133.918 455.255 133.64 455.859 133.573 456.608H138.942C138.874 455.859 138.591 455.255 138.092 454.794C137.603 454.324 136.989 454.089 136.25 454.089ZM145.858 453.211C146.808 453.211 147.561 453.489 148.117 454.046C148.683 454.593 148.966 455.394 148.966 456.449V460.839H147.945V456.55C147.945 455.763 147.748 455.164 147.354 454.751C146.961 454.338 146.4 454.132 145.67 454.132C144.855 454.132 144.207 454.377 143.727 454.866C143.257 455.346 143.022 456.013 143.022 456.867V460.839H142V453.268H142.979V454.665C143.257 454.204 143.641 453.849 144.13 453.599C144.629 453.34 145.205 453.211 145.858 453.211ZM155.728 460.379C155.536 460.551 155.296 460.686 155.008 460.782C154.73 460.868 154.437 460.911 154.13 460.911C153.42 460.911 152.873 460.719 152.489 460.335C152.105 459.952 151.913 459.409 151.913 458.709V454.132H150.561V453.268H151.913V451.613H152.935V453.268H155.238V454.132H152.935V458.651C152.935 459.102 153.046 459.448 153.266 459.688C153.497 459.918 153.823 460.033 154.245 460.033C154.456 460.033 154.658 460 154.85 459.932C155.051 459.865 155.224 459.769 155.368 459.644L155.728 460.379ZM163.913 457.37H157.58C157.637 458.157 157.94 458.795 158.487 459.285C159.034 459.764 159.724 460.004 160.559 460.004C161.029 460.004 161.461 459.923 161.855 459.76C162.248 459.587 162.589 459.337 162.877 459.011L163.452 459.673C163.116 460.076 162.694 460.383 162.186 460.594C161.687 460.806 161.135 460.911 160.53 460.911C159.753 460.911 159.062 460.748 158.458 460.422C157.863 460.086 157.398 459.625 157.062 459.04C156.726 458.455 156.558 457.793 156.558 457.054C156.558 456.315 156.716 455.653 157.033 455.068C157.359 454.482 157.801 454.026 158.357 453.7C158.923 453.374 159.557 453.211 160.257 453.211C160.957 453.211 161.586 453.374 162.142 453.7C162.699 454.026 163.136 454.482 163.452 455.068C163.769 455.643 163.927 456.305 163.927 457.054L163.913 457.37ZM160.257 454.089C159.528 454.089 158.914 454.324 158.415 454.794C157.925 455.255 157.647 455.859 157.58 456.608H162.948C162.881 455.859 162.598 455.255 162.099 454.794C161.61 454.324 160.996 454.089 160.257 454.089ZM166.986 454.751C167.226 454.242 167.581 453.859 168.051 453.599C168.531 453.34 169.121 453.211 169.821 453.211V454.204L169.577 454.19C168.78 454.19 168.157 454.434 167.706 454.924C167.255 455.413 167.029 456.099 167.029 456.982V460.839H166.007V453.268H166.986V454.751Z" fill="#696987"/>
<rect x="86.008" y="169.625" width="266.447" height="53.9823" rx="5.39734" fill="#F4F4FF"/>
<path d="M113.419 195.701C114.35 195.816 115.06 196.133 115.549 196.651C116.039 197.169 116.284 197.817 116.284 198.594C116.284 199.179 116.135 199.712 115.837 200.192C115.54 200.672 115.089 201.055 114.484 201.343C113.89 201.621 113.16 201.761 112.297 201.761C111.577 201.761 110.881 201.66 110.21 201.458C109.548 201.247 108.982 200.959 108.511 200.595L109.317 199.141C109.682 199.448 110.123 199.693 110.642 199.875C111.169 200.048 111.711 200.134 112.268 200.134C112.93 200.134 113.448 200 113.822 199.731C114.206 199.453 114.398 199.079 114.398 198.609C114.398 198.138 114.216 197.774 113.851 197.515C113.496 197.246 112.949 197.112 112.21 197.112H111.289V195.831L113.578 193.11H109.001V191.542H115.866V192.794L113.419 195.701ZM126.292 193.844C127.041 193.844 127.708 194.008 128.293 194.334C128.888 194.66 129.353 195.121 129.689 195.716C130.025 196.31 130.193 196.997 130.193 197.774C130.193 198.551 130.025 199.242 129.689 199.846C129.353 200.441 128.888 200.902 128.293 201.228C127.708 201.554 127.041 201.717 126.292 201.717C125.256 201.717 124.436 201.372 123.831 200.681V204.409H122.032V193.931H123.745V194.938C124.042 194.574 124.407 194.3 124.839 194.118C125.28 193.936 125.765 193.844 126.292 193.844ZM126.091 200.177C126.753 200.177 127.295 199.957 127.717 199.515C128.149 199.074 128.365 198.493 128.365 197.774C128.365 197.054 128.149 196.474 127.717 196.032C127.295 195.591 126.753 195.37 126.091 195.37C125.659 195.37 125.27 195.471 124.925 195.672C124.58 195.864 124.306 196.143 124.105 196.507C123.903 196.872 123.802 197.294 123.802 197.774C123.802 198.253 123.903 198.676 124.105 199.04C124.306 199.405 124.58 199.688 124.925 199.889C125.27 200.081 125.659 200.177 126.091 200.177ZM135.425 201.717C134.629 201.717 133.914 201.549 133.281 201.214C132.647 200.878 132.153 200.412 131.798 199.818C131.443 199.213 131.266 198.532 131.266 197.774C131.266 197.016 131.443 196.339 131.798 195.744C132.153 195.149 132.643 194.684 133.266 194.348C133.9 194.012 134.619 193.844 135.425 193.844C136.183 193.844 136.845 193.998 137.412 194.305C137.987 194.612 138.419 195.053 138.707 195.629L137.325 196.435C137.104 196.08 136.826 195.816 136.49 195.644C136.164 195.461 135.804 195.37 135.411 195.37C134.739 195.37 134.183 195.591 133.741 196.032C133.3 196.464 133.079 197.044 133.079 197.774C133.079 198.503 133.295 199.088 133.727 199.53C134.168 199.961 134.73 200.177 135.411 200.177C135.804 200.177 136.164 200.091 136.49 199.918C136.826 199.736 137.104 199.467 137.325 199.112L138.707 199.918C138.409 200.494 137.973 200.94 137.397 201.257C136.831 201.564 136.174 201.717 135.425 201.717ZM142.637 201.717C142.013 201.717 141.404 201.636 140.809 201.473C140.214 201.31 139.739 201.103 139.384 200.854L140.075 199.486C140.42 199.717 140.833 199.904 141.313 200.048C141.802 200.182 142.282 200.249 142.752 200.249C143.827 200.249 144.364 199.966 144.364 199.4C144.364 199.131 144.225 198.944 143.947 198.839C143.678 198.733 143.241 198.633 142.637 198.537C142.004 198.441 141.486 198.33 141.083 198.206C140.689 198.081 140.344 197.865 140.046 197.558C139.758 197.241 139.614 196.805 139.614 196.248C139.614 195.519 139.917 194.938 140.521 194.507C141.135 194.065 141.96 193.844 142.997 193.844C143.525 193.844 144.052 193.907 144.58 194.032C145.108 194.147 145.54 194.305 145.875 194.507L145.184 195.874C144.532 195.49 143.798 195.298 142.982 195.298C142.455 195.298 142.052 195.38 141.773 195.543C141.505 195.696 141.37 195.903 141.37 196.162C141.37 196.45 141.514 196.656 141.802 196.781C142.1 196.896 142.555 197.006 143.169 197.112C143.784 197.208 144.287 197.318 144.681 197.443C145.074 197.567 145.41 197.779 145.688 198.076C145.976 198.373 146.12 198.796 146.12 199.343C146.12 200.062 145.808 200.638 145.184 201.07C144.561 201.501 143.712 201.717 142.637 201.717Z" fill="#240D85"/>
<rect x="86.008" y="373.234" width="266.447" height="53.9823" rx="5.39734" fill="#F4F4FF"/>
<path d="M119.105 405.226L119.09 398.547L115.78 404.074H114.945L111.635 398.634V405.226H109.85V395.15H111.39L115.391 401.829L119.32 395.15H120.86L120.875 405.226H119.105ZM130.865 397.54V405.226H129.152V404.247C128.864 404.592 128.504 404.861 128.072 405.053C127.641 405.235 127.175 405.326 126.676 405.326C125.65 405.326 124.839 405.043 124.244 404.477C123.659 403.901 123.366 403.052 123.366 401.93V397.54H125.165V401.685C125.165 402.376 125.319 402.894 125.626 403.239C125.942 403.575 126.388 403.743 126.964 403.743C127.607 403.743 128.116 403.546 128.49 403.153C128.874 402.75 129.066 402.174 129.066 401.426V397.54H130.865ZM133.22 394.546H135.019V405.226H133.22V394.546ZM142.38 404.808C142.169 404.981 141.91 405.11 141.603 405.197C141.306 405.283 140.989 405.326 140.653 405.326C139.809 405.326 139.156 405.106 138.696 404.664C138.235 404.223 138.005 403.58 138.005 402.736V399.037H136.738V397.597H138.005V395.841H139.804V397.597H141.862V399.037H139.804V402.692C139.804 403.067 139.895 403.354 140.077 403.556C140.26 403.748 140.524 403.844 140.869 403.844C141.272 403.844 141.608 403.738 141.877 403.527L142.38 404.808ZM143.86 397.54H145.659V405.226H143.86V397.54ZM144.767 396.273C144.441 396.273 144.167 396.172 143.947 395.971C143.726 395.76 143.616 395.501 143.616 395.194C143.616 394.887 143.726 394.632 143.947 394.431C144.167 394.22 144.441 394.114 144.767 394.114C145.093 394.114 145.367 394.215 145.587 394.416C145.808 394.608 145.919 394.853 145.919 395.15C145.919 395.467 145.808 395.736 145.587 395.956C145.376 396.168 145.103 396.273 144.767 396.273ZM157.722 397.453C158.691 397.453 159.458 397.736 160.024 398.303C160.591 398.859 160.874 399.699 160.874 400.821V405.226H159.075V401.052C159.075 400.38 158.926 399.876 158.628 399.54C158.331 399.195 157.904 399.022 157.347 399.022C156.743 399.022 156.258 399.224 155.894 399.627C155.529 400.02 155.347 400.586 155.347 401.325V405.226H153.548V401.052C153.548 400.38 153.399 399.876 153.101 399.54C152.804 399.195 152.377 399.022 151.821 399.022C151.206 399.022 150.717 399.219 150.352 399.612C149.997 400.006 149.82 400.577 149.82 401.325V405.226H148.021V397.54H149.734V398.518C150.021 398.173 150.381 397.909 150.813 397.727C151.245 397.545 151.725 397.453 152.252 397.453C152.828 397.453 153.337 397.564 153.778 397.784C154.229 397.995 154.584 398.312 154.843 398.734C155.16 398.331 155.567 398.019 156.066 397.799C156.565 397.568 157.117 397.453 157.722 397.453ZM170.468 401.426C170.468 401.551 170.459 401.728 170.439 401.958H164.409C164.514 402.524 164.788 402.975 165.229 403.311C165.68 403.638 166.237 403.801 166.899 403.801C167.743 403.801 168.439 403.522 168.986 402.966L169.95 404.074C169.605 404.487 169.168 404.799 168.64 405.01C168.113 405.221 167.518 405.326 166.856 405.326C166.011 405.326 165.268 405.158 164.625 404.823C163.982 404.487 163.483 404.021 163.128 403.426C162.782 402.822 162.61 402.141 162.61 401.383C162.61 400.634 162.778 399.963 163.113 399.368C163.459 398.763 163.934 398.293 164.538 397.957C165.143 397.621 165.824 397.453 166.582 397.453C167.331 397.453 167.997 397.621 168.583 397.957C169.178 398.283 169.638 398.749 169.964 399.353C170.3 399.948 170.468 400.639 170.468 401.426ZM166.582 398.893C166.006 398.893 165.517 399.065 165.114 399.411C164.721 399.747 164.481 400.198 164.394 400.764H168.755C168.679 400.207 168.444 399.756 168.05 399.411C167.657 399.065 167.167 398.893 166.582 398.893ZM179.724 394.546V405.226H177.997V404.232C177.699 404.597 177.33 404.87 176.888 405.053C176.457 405.235 175.977 405.326 175.449 405.326C174.71 405.326 174.043 405.163 173.449 404.837C172.863 404.511 172.403 404.05 172.067 403.455C171.731 402.851 171.563 402.16 171.563 401.383C171.563 400.605 171.731 399.919 172.067 399.324C172.403 398.73 172.863 398.269 173.449 397.943C174.043 397.616 174.71 397.453 175.449 397.453C175.958 397.453 176.423 397.54 176.845 397.712C177.267 397.885 177.627 398.144 177.925 398.49V394.546H179.724ZM175.665 403.786C176.097 403.786 176.485 403.69 176.831 403.498C177.176 403.297 177.45 403.014 177.651 402.649C177.853 402.285 177.954 401.862 177.954 401.383C177.954 400.903 177.853 400.481 177.651 400.116C177.45 399.751 177.176 399.473 176.831 399.281C176.485 399.08 176.097 398.979 175.665 398.979C175.233 398.979 174.845 399.08 174.499 399.281C174.154 399.473 173.88 399.751 173.679 400.116C173.477 400.481 173.377 400.903 173.377 401.383C173.377 401.862 173.477 402.285 173.679 402.649C173.88 403.014 174.154 403.297 174.499 403.498C174.845 403.69 175.233 403.786 175.665 403.786ZM182.077 397.54H183.877V405.226H182.077V397.54ZM182.984 396.273C182.658 396.273 182.384 396.172 182.164 395.971C181.943 395.76 181.833 395.501 181.833 395.194C181.833 394.887 181.943 394.632 182.164 394.431C182.384 394.22 182.658 394.114 182.984 394.114C183.31 394.114 183.584 394.215 183.805 394.416C184.025 394.608 184.136 394.853 184.136 395.15C184.136 395.467 184.025 395.736 183.805 395.956C183.593 396.168 183.32 396.273 182.984 396.273ZM189.174 397.453C190.306 397.453 191.17 397.727 191.765 398.274C192.369 398.811 192.672 399.627 192.672 400.721V405.226H190.973V404.29C190.752 404.626 190.436 404.885 190.023 405.067C189.62 405.24 189.131 405.326 188.555 405.326C187.979 405.326 187.476 405.23 187.044 405.038C186.612 404.837 186.276 404.563 186.036 404.218C185.806 403.863 185.691 403.465 185.691 403.023C185.691 402.333 185.945 401.781 186.454 401.368C186.972 400.946 187.783 400.735 188.886 400.735H190.872V400.62C190.872 400.082 190.709 399.67 190.383 399.382C190.066 399.094 189.591 398.95 188.958 398.95C188.526 398.95 188.099 399.017 187.677 399.152C187.265 399.286 186.914 399.473 186.627 399.713L185.921 398.403C186.324 398.096 186.809 397.861 187.375 397.698C187.941 397.535 188.541 397.453 189.174 397.453ZM188.929 404.017C189.38 404.017 189.779 403.916 190.124 403.714C190.479 403.503 190.728 403.206 190.872 402.822V401.93H189.016C187.979 401.93 187.461 402.27 187.461 402.951C187.461 403.278 187.591 403.537 187.85 403.729C188.109 403.921 188.469 404.017 188.929 404.017Z" fill="#240D85"/>
<rect x="86.008" y="475.193" width="266.447" height="53.9823" rx="5.39734" fill="#F4F4FF"/>
<path d="M112.973 507.328C112.196 507.328 111.443 507.218 110.713 506.997C109.994 506.777 109.423 506.484 109.001 506.119L109.648 504.666C110.061 504.992 110.565 505.261 111.16 505.472C111.764 505.673 112.369 505.774 112.973 505.774C113.722 505.774 114.278 505.654 114.643 505.414C115.017 505.174 115.204 504.858 115.204 504.464C115.204 504.176 115.099 503.941 114.887 503.759C114.686 503.567 114.427 503.418 114.11 503.313C113.794 503.207 113.362 503.087 112.815 502.953C112.047 502.771 111.424 502.588 110.944 502.406C110.474 502.224 110.066 501.941 109.72 501.557C109.385 501.163 109.217 500.636 109.217 499.974C109.217 499.417 109.365 498.913 109.663 498.462C109.97 498.002 110.426 497.637 111.03 497.369C111.644 497.1 112.393 496.966 113.275 496.966C113.89 496.966 114.494 497.042 115.089 497.196C115.684 497.349 116.197 497.57 116.629 497.858L116.039 499.312C115.597 499.053 115.137 498.856 114.657 498.721C114.177 498.587 113.712 498.52 113.261 498.52C112.522 498.52 111.97 498.645 111.606 498.894C111.251 499.144 111.073 499.475 111.073 499.887C111.073 500.175 111.174 500.41 111.376 500.593C111.587 500.775 111.851 500.919 112.167 501.024C112.484 501.13 112.916 501.25 113.463 501.384C114.211 501.557 114.825 501.739 115.305 501.931C115.785 502.113 116.192 502.396 116.528 502.78C116.874 503.164 117.046 503.682 117.046 504.335C117.046 504.891 116.893 505.395 116.586 505.846C116.288 506.297 115.833 506.657 115.218 506.925C114.604 507.194 113.856 507.328 112.973 507.328ZM133.626 497.109L130.286 507.185H128.3L125.81 499.729L123.277 507.185H121.277L117.937 497.109H119.88L122.385 504.767L124.99 497.109H126.717L129.265 504.81L131.841 497.109H133.626ZM138.311 497.858C137.553 497.858 137.174 498.271 137.174 499.096V499.556H139.29V500.996H137.232V507.185H135.433V500.996H134.166V499.556H135.433V499.067C135.433 498.242 135.673 497.594 136.152 497.124C136.632 496.644 137.309 496.404 138.182 496.404C138.873 496.404 139.415 496.543 139.808 496.822L139.304 498.175C138.997 497.963 138.666 497.858 138.311 497.858ZM147.462 505.601V507.185H140.035V505.932L144.037 502.133C144.488 501.701 144.79 501.327 144.943 501.01C145.107 500.684 145.188 500.362 145.188 500.046C145.188 499.575 145.03 499.216 144.713 498.966C144.396 498.717 143.931 498.592 143.317 498.592C142.29 498.592 141.504 498.942 140.957 499.643L139.647 498.635C140.04 498.107 140.568 497.7 141.23 497.412C141.902 497.114 142.65 496.966 143.475 496.966C144.569 496.966 145.442 497.225 146.095 497.743C146.747 498.261 147.074 498.966 147.074 499.859C147.074 500.405 146.958 500.919 146.728 501.399C146.498 501.878 146.056 502.425 145.404 503.039L142.713 505.601H147.462ZM157.312 504.896H155.528V507.185H153.714V504.896H148.187V503.601L153.153 497.109H155.153L150.476 503.313H153.772V501.283H155.528V503.313H157.312V504.896ZM164.775 501.888C165.303 502.128 165.706 502.454 165.984 502.867C166.272 503.27 166.416 503.745 166.416 504.292C166.416 504.906 166.243 505.443 165.897 505.904C165.562 506.364 165.082 506.719 164.458 506.969C163.834 507.208 163.11 507.328 162.285 507.328C161.46 507.328 160.735 507.208 160.112 506.969C159.497 506.719 159.022 506.364 158.687 505.904C158.351 505.443 158.183 504.906 158.183 504.292C158.183 503.745 158.322 503.27 158.6 502.867C158.879 502.454 159.277 502.128 159.795 501.888C159.392 501.667 159.08 501.379 158.859 501.024C158.648 500.66 158.543 500.242 158.543 499.772C158.543 499.206 158.696 498.712 159.003 498.29C159.32 497.867 159.761 497.541 160.327 497.311C160.894 497.081 161.546 496.966 162.285 496.966C163.033 496.966 163.691 497.081 164.257 497.311C164.823 497.541 165.264 497.867 165.581 498.29C165.897 498.712 166.056 499.206 166.056 499.772C166.056 500.242 165.945 500.655 165.725 501.01C165.504 501.365 165.187 501.658 164.775 501.888ZM162.285 498.434C161.7 498.434 161.234 498.558 160.889 498.808C160.553 499.057 160.385 499.408 160.385 499.859C160.385 500.29 160.553 500.636 160.889 500.895C161.234 501.144 161.7 501.269 162.285 501.269C162.88 501.269 163.35 501.144 163.695 500.895C164.041 500.636 164.213 500.29 164.213 499.859C164.213 499.408 164.036 499.057 163.681 498.808C163.336 498.558 162.87 498.434 162.285 498.434ZM162.285 505.86C162.976 505.86 163.523 505.716 163.926 505.429C164.329 505.141 164.53 504.743 164.53 504.234C164.53 503.735 164.329 503.342 163.926 503.054C163.523 502.766 162.976 502.622 162.285 502.622C161.594 502.622 161.052 502.766 160.658 503.054C160.265 503.342 160.068 503.735 160.068 504.234C160.068 504.743 160.265 505.141 160.658 505.429C161.052 505.716 161.594 505.86 162.285 505.86ZM175.229 497.109V498.362L171.314 507.185H169.314L173.099 498.693H169.141V500.405H167.399V497.109H175.229ZM180.682 500.967C181.344 500.967 181.939 501.096 182.467 501.355C182.994 501.605 183.407 501.965 183.705 502.435C184.002 502.905 184.151 503.447 184.151 504.061C184.151 504.714 183.988 505.289 183.661 505.788C183.335 506.278 182.894 506.657 182.337 506.925C181.781 507.194 181.157 507.328 180.466 507.328C179.084 507.328 178.01 506.897 177.242 506.033C176.484 505.17 176.105 503.932 176.105 502.32C176.105 501.187 176.311 500.223 176.724 499.427C177.137 498.621 177.712 498.011 178.451 497.599C179.2 497.177 180.063 496.966 181.042 496.966C181.56 496.966 182.045 497.023 182.496 497.138C182.956 497.244 183.354 497.402 183.69 497.613L182.999 499.024C182.5 498.697 181.862 498.534 181.085 498.534C180.116 498.534 179.358 498.832 178.811 499.427C178.264 500.022 177.991 500.88 177.991 502.003V502.017C178.288 501.672 178.667 501.413 179.128 501.24C179.588 501.058 180.106 500.967 180.682 500.967ZM180.365 505.86C180.951 505.86 181.426 505.707 181.79 505.4C182.155 505.083 182.337 504.666 182.337 504.148C182.337 503.62 182.155 503.202 181.79 502.895C181.426 502.588 180.936 502.435 180.322 502.435C179.718 502.435 179.224 502.598 178.84 502.924C178.466 503.25 178.278 503.663 178.278 504.162C178.278 504.651 178.461 505.059 178.825 505.385C179.2 505.702 179.713 505.86 180.365 505.86ZM190.037 499.412C191.006 499.412 191.783 499.695 192.368 500.262C192.954 500.828 193.246 501.667 193.246 502.78V507.185H191.447V503.011C191.447 502.339 191.289 501.835 190.972 501.499C190.656 501.154 190.205 500.981 189.619 500.981C188.957 500.981 188.434 501.183 188.051 501.586C187.667 501.979 187.475 502.55 187.475 503.298V507.185H185.676V496.505H187.475V500.391C187.772 500.074 188.137 499.835 188.569 499.671C189.01 499.499 189.499 499.412 190.037 499.412Z" fill="#240D85"/>
<path d="M87.8351 247.155H91.9371C93.0022 247.155 93.9425 247.371 94.7581 247.803C95.5737 248.225 96.207 248.82 96.658 249.588C97.109 250.346 97.3345 251.214 97.3345 252.193C97.3345 253.171 97.109 254.045 96.658 254.812C96.207 255.57 95.5737 256.165 94.7581 256.597C93.9425 257.019 93.0022 257.23 91.9371 257.23H87.8351V247.155ZM91.8796 256.309C92.7623 256.309 93.5347 256.136 94.1968 255.791C94.8589 255.436 95.3722 254.951 95.7368 254.337C96.1015 253.714 96.2838 252.999 96.2838 252.193C96.2838 251.387 96.1015 250.677 95.7368 250.063C95.3722 249.439 94.8589 248.954 94.1968 248.609C93.5347 248.254 92.7623 248.076 91.8796 248.076H88.9002V256.309H91.8796ZM106.102 253.762H99.7693C99.8269 254.548 100.129 255.186 100.676 255.676C101.223 256.156 101.914 256.395 102.749 256.395C103.219 256.395 103.651 256.314 104.044 256.151C104.437 255.978 104.778 255.729 105.066 255.402L105.642 256.064C105.306 256.467 104.884 256.774 104.375 256.986C103.876 257.197 103.324 257.302 102.72 257.302C101.943 257.302 101.252 257.139 100.647 256.813C100.052 256.477 99.587 256.016 99.2512 255.431C98.9154 254.846 98.7474 254.184 98.7474 253.445C98.7474 252.706 98.9058 252.044 99.2224 251.459C99.5486 250.873 99.99 250.418 100.547 250.091C101.113 249.765 101.746 249.602 102.446 249.602C103.147 249.602 103.775 249.765 104.332 250.091C104.888 250.418 105.325 250.873 105.642 251.459C105.958 252.034 106.117 252.696 106.117 253.445L106.102 253.762ZM102.446 250.48C101.717 250.48 101.103 250.715 100.604 251.185C100.115 251.646 99.8365 252.25 99.7693 252.999H105.138C105.071 252.25 104.788 251.646 104.289 251.185C103.799 250.715 103.185 250.48 102.446 250.48ZM110.634 249.602C111.622 249.602 112.38 249.851 112.908 250.35C113.436 250.84 113.7 251.569 113.7 252.538V257.23H112.721V256.05C112.491 256.443 112.15 256.75 111.699 256.971C111.258 257.192 110.73 257.302 110.116 257.302C109.272 257.302 108.6 257.101 108.101 256.698C107.602 256.295 107.352 255.762 107.352 255.1C107.352 254.457 107.583 253.939 108.043 253.546C108.514 253.152 109.257 252.956 110.274 252.956H112.678V252.495C112.678 251.842 112.496 251.348 112.131 251.012C111.766 250.667 111.234 250.494 110.533 250.494C110.054 250.494 109.593 250.576 109.152 250.739C108.71 250.893 108.331 251.108 108.015 251.387L107.554 250.624C107.938 250.298 108.398 250.048 108.936 249.875C109.473 249.693 110.039 249.602 110.634 249.602ZM110.274 256.496C110.85 256.496 111.344 256.367 111.757 256.108C112.169 255.839 112.476 255.455 112.678 254.956V253.718H110.303C109.008 253.718 108.36 254.169 108.36 255.071C108.36 255.513 108.528 255.863 108.864 256.122C109.2 256.371 109.67 256.496 110.274 256.496ZM123.412 246.551V257.23H122.433V255.733C122.126 256.242 121.718 256.631 121.21 256.899C120.711 257.168 120.145 257.302 119.512 257.302C118.802 257.302 118.159 257.139 117.583 256.813C117.007 256.487 116.556 256.031 116.23 255.446C115.904 254.86 115.741 254.193 115.741 253.445C115.741 252.696 115.904 252.03 116.23 251.444C116.556 250.859 117.007 250.408 117.583 250.091C118.159 249.765 118.802 249.602 119.512 249.602C120.126 249.602 120.677 249.732 121.167 249.991C121.666 250.24 122.074 250.609 122.39 251.099V246.551H123.412ZM119.598 256.395C120.126 256.395 120.601 256.275 121.023 256.036C121.455 255.786 121.79 255.436 122.03 254.985C122.28 254.534 122.405 254.021 122.405 253.445C122.405 252.869 122.28 252.356 122.03 251.905C121.79 251.454 121.455 251.108 121.023 250.869C120.601 250.619 120.126 250.494 119.598 250.494C119.061 250.494 118.576 250.619 118.144 250.869C117.722 251.108 117.386 251.454 117.137 251.905C116.897 252.356 116.777 252.869 116.777 253.445C116.777 254.021 116.897 254.534 117.137 254.985C117.386 255.436 117.722 255.786 118.144 256.036C118.576 256.275 119.061 256.395 119.598 256.395ZM126.258 246.551H127.28V257.23H126.258V246.551ZM130.123 249.66H131.145V257.23H130.123V249.66ZM130.641 248.004C130.43 248.004 130.253 247.932 130.109 247.788C129.965 247.645 129.893 247.472 129.893 247.27C129.893 247.078 129.965 246.911 130.109 246.767C130.253 246.623 130.43 246.551 130.641 246.551C130.853 246.551 131.03 246.623 131.174 246.767C131.318 246.901 131.39 247.064 131.39 247.256C131.39 247.467 131.318 247.645 131.174 247.788C131.03 247.932 130.853 248.004 130.641 248.004ZM137.846 249.602C138.796 249.602 139.549 249.88 140.106 250.437C140.672 250.984 140.955 251.785 140.955 252.84V257.23H139.933V252.941C139.933 252.154 139.736 251.555 139.343 251.142C138.949 250.729 138.388 250.523 137.659 250.523C136.843 250.523 136.196 250.768 135.716 251.257C135.246 251.737 135.01 252.404 135.01 253.258V257.23H133.989V249.66H134.967V251.056C135.246 250.595 135.629 250.24 136.119 249.991C136.618 249.732 137.193 249.602 137.846 249.602ZM150.349 253.762H144.016C144.074 254.548 144.376 255.186 144.923 255.676C145.47 256.156 146.161 256.395 146.996 256.395C147.466 256.395 147.898 256.314 148.291 256.151C148.684 255.978 149.025 255.729 149.313 255.402L149.889 256.064C149.553 256.467 149.131 256.774 148.622 256.986C148.123 257.197 147.571 257.302 146.967 257.302C146.19 257.302 145.499 257.139 144.894 256.813C144.299 256.477 143.834 256.016 143.498 255.431C143.162 254.846 142.994 254.184 142.994 253.445C142.994 252.706 143.153 252.044 143.469 251.459C143.796 250.873 144.237 250.418 144.794 250.091C145.36 249.765 145.993 249.602 146.693 249.602C147.394 249.602 148.022 249.765 148.579 250.091C149.135 250.418 149.572 250.873 149.889 251.459C150.205 252.034 150.364 252.696 150.364 253.445L150.349 253.762ZM146.693 250.48C145.964 250.48 145.35 250.715 144.851 251.185C144.362 251.646 144.083 252.25 144.016 252.999H149.385C149.318 252.25 149.035 251.646 148.536 251.185C148.046 250.715 147.432 250.48 146.693 250.48ZM158.715 247.342C158.273 247.342 157.938 247.462 157.707 247.702C157.487 247.942 157.376 248.297 157.376 248.767V249.66H159.708V250.523H157.405V257.23H156.383V250.523H155.03V249.66H156.383V248.724C156.383 248.033 156.58 247.486 156.973 247.083C157.376 246.68 157.942 246.479 158.672 246.479C158.959 246.479 159.238 246.522 159.506 246.608C159.775 246.685 160.001 246.8 160.183 246.954L159.837 247.717C159.54 247.467 159.166 247.342 158.715 247.342ZM164.056 257.302C163.326 257.302 162.669 257.139 162.084 256.813C161.499 256.477 161.038 256.016 160.702 255.431C160.366 254.846 160.198 254.184 160.198 253.445C160.198 252.706 160.366 252.044 160.702 251.459C161.038 250.873 161.499 250.418 162.084 250.091C162.669 249.765 163.326 249.602 164.056 249.602C164.785 249.602 165.442 249.765 166.028 250.091C166.613 250.418 167.069 250.873 167.395 251.459C167.731 252.044 167.899 252.706 167.899 253.445C167.899 254.184 167.731 254.846 167.395 255.431C167.069 256.016 166.613 256.477 166.028 256.813C165.442 257.139 164.785 257.302 164.056 257.302ZM164.056 256.395C164.593 256.395 165.073 256.275 165.495 256.036C165.927 255.786 166.263 255.436 166.503 254.985C166.742 254.534 166.862 254.021 166.862 253.445C166.862 252.869 166.742 252.356 166.503 251.905C166.263 251.454 165.927 251.108 165.495 250.869C165.073 250.619 164.593 250.494 164.056 250.494C163.518 250.494 163.034 250.619 162.602 250.869C162.18 251.108 161.844 251.454 161.595 251.905C161.355 252.356 161.235 252.869 161.235 253.445C161.235 254.021 161.355 254.534 161.595 254.985C161.844 255.436 162.18 255.786 162.602 256.036C163.034 256.275 163.518 256.395 164.056 256.395ZM170.964 251.142C171.204 250.633 171.559 250.25 172.029 249.991C172.508 249.732 173.099 249.602 173.799 249.602V250.595L173.554 250.581C172.758 250.581 172.134 250.825 171.683 251.315C171.232 251.804 171.007 252.49 171.007 253.373V257.23H169.985V249.66H170.964V251.142ZM181.558 257.302C180.944 257.302 180.354 257.216 179.788 257.043C179.231 256.861 178.795 256.635 178.478 256.367L178.939 255.561C179.255 255.81 179.653 256.016 180.133 256.18C180.613 256.333 181.112 256.41 181.63 256.41C182.321 256.41 182.829 256.304 183.156 256.093C183.491 255.872 183.659 255.565 183.659 255.172C183.659 254.894 183.568 254.678 183.386 254.524C183.204 254.361 182.973 254.241 182.695 254.165C182.417 254.078 182.047 253.997 181.587 253.92C180.973 253.805 180.479 253.69 180.104 253.574C179.73 253.45 179.409 253.243 179.14 252.956C178.881 252.668 178.751 252.269 178.751 251.761C178.751 251.128 179.015 250.609 179.543 250.206C180.071 249.803 180.805 249.602 181.745 249.602C182.235 249.602 182.724 249.669 183.213 249.803C183.703 249.928 184.106 250.096 184.422 250.307L183.976 251.128C183.352 250.696 182.609 250.48 181.745 250.48C181.093 250.48 180.599 250.595 180.263 250.825C179.936 251.056 179.773 251.358 179.773 251.732C179.773 252.02 179.864 252.25 180.047 252.423C180.239 252.596 180.474 252.725 180.752 252.812C181.03 252.888 181.414 252.97 181.903 253.056C182.508 253.171 182.993 253.287 183.357 253.402C183.722 253.517 184.034 253.714 184.293 253.992C184.552 254.27 184.681 254.654 184.681 255.143C184.681 255.805 184.403 256.333 183.847 256.726C183.3 257.11 182.537 257.302 181.558 257.302ZM193.393 249.66V257.23H192.414V255.849C192.145 256.309 191.776 256.669 191.306 256.928C190.836 257.177 190.298 257.302 189.694 257.302C188.705 257.302 187.923 257.029 187.348 256.482C186.782 255.925 186.499 255.114 186.499 254.049V249.66H187.52V253.949C187.52 254.745 187.717 255.35 188.111 255.762C188.504 256.175 189.065 256.381 189.795 256.381C190.591 256.381 191.219 256.141 191.68 255.661C192.141 255.172 192.371 254.496 192.371 253.632V249.66H193.393ZM200.155 249.602C200.865 249.602 201.508 249.765 202.084 250.091C202.66 250.408 203.111 250.859 203.437 251.444C203.763 252.03 203.926 252.696 203.926 253.445C203.926 254.193 203.763 254.86 203.437 255.446C203.111 256.031 202.66 256.487 202.084 256.813C201.508 257.139 200.865 257.302 200.155 257.302C199.522 257.302 198.951 257.168 198.443 256.899C197.944 256.631 197.541 256.242 197.234 255.733V257.23H196.255V246.551H197.277V251.099C197.593 250.609 197.996 250.24 198.486 249.991C198.985 249.732 199.541 249.602 200.155 249.602ZM200.083 256.395C200.611 256.395 201.091 256.275 201.523 256.036C201.954 255.786 202.29 255.436 202.53 254.985C202.78 254.534 202.904 254.021 202.904 253.445C202.904 252.869 202.78 252.356 202.53 251.905C202.29 251.454 201.954 251.108 201.523 250.869C201.091 250.619 200.611 250.494 200.083 250.494C199.546 250.494 199.061 250.619 198.63 250.869C198.207 251.108 197.872 251.454 197.622 251.905C197.382 252.356 197.262 252.869 197.262 253.445C197.262 254.021 197.382 254.534 197.622 254.985C197.872 255.436 198.207 255.786 198.63 256.036C199.061 256.275 199.546 256.395 200.083 256.395ZM215.451 249.602C216.401 249.602 217.145 249.875 217.682 250.422C218.229 250.969 218.502 251.775 218.502 252.84V257.23H217.481V252.941C217.481 252.154 217.289 251.555 216.905 251.142C216.531 250.729 215.998 250.523 215.307 250.523C214.52 250.523 213.901 250.768 213.45 251.257C213 251.737 212.774 252.404 212.774 253.258V257.23H211.752V252.941C211.752 252.154 211.56 251.555 211.176 251.142C210.802 250.729 210.265 250.523 209.564 250.523C208.787 250.523 208.168 250.768 207.708 251.257C207.257 251.737 207.031 252.404 207.031 253.258V257.23H206.009V249.66H206.988V251.041C207.257 250.581 207.631 250.226 208.111 249.976C208.59 249.727 209.142 249.602 209.766 249.602C210.399 249.602 210.946 249.736 211.407 250.005C211.877 250.274 212.227 250.672 212.457 251.2C212.736 250.701 213.134 250.312 213.652 250.034C214.18 249.746 214.779 249.602 215.451 249.602ZM221.274 249.66H222.296V257.23H221.274V249.66ZM221.792 248.004C221.581 248.004 221.403 247.932 221.259 247.788C221.115 247.645 221.043 247.472 221.043 247.27C221.043 247.078 221.115 246.911 221.259 246.767C221.403 246.623 221.581 246.551 221.792 246.551C222.003 246.551 222.18 246.623 222.324 246.767C222.468 246.901 222.54 247.064 222.54 247.256C222.54 247.467 222.468 247.645 222.324 247.788C222.18 247.932 222.003 248.004 221.792 248.004ZM227.168 257.302C226.554 257.302 225.964 257.216 225.398 257.043C224.842 256.861 224.405 256.635 224.088 256.367L224.549 255.561C224.866 255.81 225.264 256.016 225.743 256.18C226.223 256.333 226.722 256.41 227.24 256.41C227.931 256.41 228.44 256.304 228.766 256.093C229.102 255.872 229.27 255.565 229.27 255.172C229.27 254.894 229.179 254.678 228.996 254.524C228.814 254.361 228.584 254.241 228.305 254.165C228.027 254.078 227.658 253.997 227.197 253.92C226.583 253.805 226.089 253.69 225.715 253.574C225.34 253.45 225.019 253.243 224.75 252.956C224.491 252.668 224.362 252.269 224.362 251.761C224.362 251.128 224.626 250.609 225.153 250.206C225.681 249.803 226.415 249.602 227.356 249.602C227.845 249.602 228.334 249.669 228.824 249.803C229.313 249.928 229.716 250.096 230.033 250.307L229.586 251.128C228.963 250.696 228.219 250.48 227.356 250.48C226.703 250.48 226.209 250.595 225.873 250.825C225.547 251.056 225.384 251.358 225.384 251.732C225.384 252.02 225.475 252.25 225.657 252.423C225.849 252.596 226.084 252.725 226.362 252.812C226.641 252.888 227.024 252.97 227.514 253.056C228.118 253.171 228.603 253.287 228.968 253.402C229.332 253.517 229.644 253.714 229.903 253.992C230.162 254.27 230.292 254.654 230.292 255.143C230.292 255.805 230.013 256.333 229.457 256.726C228.91 257.11 228.147 257.302 227.168 257.302ZM234.21 257.302C233.596 257.302 233.006 257.216 232.44 257.043C231.883 256.861 231.447 256.635 231.13 256.367L231.591 255.561C231.907 255.81 232.306 256.016 232.785 256.18C233.265 256.333 233.764 256.41 234.282 256.41C234.973 256.41 235.482 256.304 235.808 256.093C236.144 255.872 236.312 255.565 236.312 255.172C236.312 254.894 236.22 254.678 236.038 254.524C235.856 254.361 235.626 254.241 235.347 254.165C235.069 254.078 234.7 253.997 234.239 253.92C233.625 253.805 233.131 253.69 232.757 253.574C232.382 253.45 232.061 253.243 231.792 252.956C231.533 252.668 231.404 252.269 231.404 251.761C231.404 251.128 231.667 250.609 232.195 250.206C232.723 249.803 233.457 249.602 234.397 249.602C234.887 249.602 235.376 249.669 235.865 249.803C236.355 249.928 236.758 250.096 237.074 250.307L236.628 251.128C236.005 250.696 235.261 250.48 234.397 250.48C233.745 250.48 233.251 250.595 232.915 250.825C232.589 251.056 232.426 251.358 232.426 251.732C232.426 252.02 232.517 252.25 232.699 252.423C232.891 252.596 233.126 252.725 233.404 252.812C233.682 252.888 234.066 252.97 234.556 253.056C235.16 253.171 235.645 253.287 236.009 253.402C236.374 253.517 236.686 253.714 236.945 253.992C237.204 254.27 237.333 254.654 237.333 255.143C237.333 255.805 237.055 256.333 236.499 256.726C235.952 257.11 235.189 257.302 234.21 257.302ZM239.223 249.66H240.245V257.23H239.223V249.66ZM239.741 248.004C239.53 248.004 239.352 247.932 239.208 247.788C239.064 247.645 238.992 247.472 238.992 247.27C238.992 247.078 239.064 246.911 239.208 246.767C239.352 246.623 239.53 246.551 239.741 246.551C239.952 246.551 240.129 246.623 240.273 246.767C240.417 246.901 240.489 247.064 240.489 247.256C240.489 247.467 240.417 247.645 240.273 247.788C240.129 247.932 239.952 248.004 239.741 248.004ZM246.182 257.302C245.453 257.302 244.796 257.139 244.211 256.813C243.625 256.477 243.165 256.016 242.829 255.431C242.493 254.846 242.325 254.184 242.325 253.445C242.325 252.706 242.493 252.044 242.829 251.459C243.165 250.873 243.625 250.418 244.211 250.091C244.796 249.765 245.453 249.602 246.182 249.602C246.912 249.602 247.569 249.765 248.154 250.091C248.74 250.418 249.195 250.873 249.522 251.459C249.857 252.044 250.025 252.706 250.025 253.445C250.025 254.184 249.857 254.846 249.522 255.431C249.195 256.016 248.74 256.477 248.154 256.813C247.569 257.139 246.912 257.302 246.182 257.302ZM246.182 256.395C246.72 256.395 247.2 256.275 247.622 256.036C248.054 255.786 248.389 255.436 248.629 254.985C248.869 254.534 248.989 254.021 248.989 253.445C248.989 252.869 248.869 252.356 248.629 251.905C248.389 251.454 248.054 251.108 247.622 250.869C247.2 250.619 246.72 250.494 246.182 250.494C245.645 250.494 245.161 250.619 244.729 250.869C244.307 251.108 243.971 251.454 243.721 251.905C243.481 252.356 243.361 252.869 243.361 253.445C243.361 254.021 243.481 254.534 243.721 254.985C243.971 255.436 244.307 255.786 244.729 256.036C245.161 256.275 245.645 256.395 246.182 256.395ZM255.969 249.602C256.919 249.602 257.672 249.88 258.229 250.437C258.795 250.984 259.078 251.785 259.078 252.84V257.23H258.056V252.941C258.056 252.154 257.859 251.555 257.466 251.142C257.072 250.729 256.511 250.523 255.782 250.523C254.966 250.523 254.319 250.768 253.839 251.257C253.369 251.737 253.134 252.404 253.134 253.258V257.23H252.112V249.66H253.09V251.056C253.369 250.595 253.752 250.24 254.242 249.991C254.741 249.732 255.316 249.602 255.969 249.602Z" fill="#696987"/>
<rect x="86.4578" y="271.88" width="265.548" height="53.0827" rx="4.94756" fill="#F4F4FF"/>
<path d="M113.333 303.565C112.527 303.565 111.807 303.364 111.174 302.961C110.541 302.548 110.042 301.953 109.677 301.176C109.313 300.389 109.13 299.458 109.13 298.384C109.13 297.309 109.313 296.383 109.677 295.606C110.042 294.819 110.541 294.224 111.174 293.821C111.807 293.408 112.527 293.202 113.333 293.202C114.139 293.202 114.859 293.408 115.492 293.821C116.135 294.224 116.639 294.819 117.003 295.606C117.368 296.383 117.55 297.309 117.55 298.384C117.55 299.458 117.368 300.389 117.003 301.176C116.639 301.953 116.135 302.548 115.492 302.961C114.859 303.364 114.139 303.565 113.333 303.565ZM113.333 301.939C114.053 301.939 114.619 301.641 115.031 301.046C115.454 300.451 115.665 299.564 115.665 298.384C115.665 297.203 115.454 296.316 115.031 295.721C114.619 295.126 114.053 294.829 113.333 294.829C112.623 294.829 112.057 295.126 111.635 295.721C111.222 296.316 111.016 297.203 111.016 298.384C111.016 299.564 111.222 300.451 111.635 301.046C112.057 301.641 112.623 301.939 113.333 301.939ZM126.041 301.838V303.421H118.615V302.169L122.616 298.369C123.067 297.937 123.369 297.563 123.523 297.247C123.686 296.92 123.767 296.599 123.767 296.282C123.767 295.812 123.609 295.452 123.292 295.203C122.976 294.953 122.51 294.829 121.896 294.829C120.87 294.829 120.083 295.179 119.536 295.879L118.226 294.872C118.62 294.344 119.147 293.936 119.809 293.648C120.481 293.351 121.229 293.202 122.055 293.202C123.148 293.202 124.022 293.461 124.674 293.979C125.327 294.497 125.653 295.203 125.653 296.095C125.653 296.642 125.538 297.155 125.307 297.635C125.077 298.115 124.636 298.662 123.983 299.276L121.292 301.838H126.041ZM130.947 291.302H132.559L127.809 304.86H126.197L130.947 291.302ZM136.525 303.565C135.719 303.565 134.999 303.364 134.366 302.961C133.732 302.548 133.234 301.953 132.869 301.176C132.504 300.389 132.322 299.458 132.322 298.384C132.322 297.309 132.504 296.383 132.869 295.606C133.234 294.819 133.732 294.224 134.366 293.821C134.999 293.408 135.719 293.202 136.525 293.202C137.331 293.202 138.05 293.408 138.684 293.821C139.326 294.224 139.83 294.819 140.195 295.606C140.559 296.383 140.742 297.309 140.742 298.384C140.742 299.458 140.559 300.389 140.195 301.176C139.83 301.953 139.326 302.548 138.684 302.961C138.05 303.364 137.331 303.565 136.525 303.565ZM136.525 301.939C137.244 301.939 137.81 301.641 138.223 301.046C138.645 300.451 138.856 299.564 138.856 298.384C138.856 297.203 138.645 296.316 138.223 295.721C137.81 295.126 137.244 294.829 136.525 294.829C135.815 294.829 135.249 295.126 134.826 295.721C134.414 296.316 134.207 297.203 134.207 298.384C134.207 299.564 134.414 300.451 134.826 301.046C135.249 301.641 135.815 301.939 136.525 301.939ZM149.233 301.838V303.421H141.806V302.169L145.808 298.369C146.259 297.937 146.561 297.563 146.714 297.247C146.878 296.92 146.959 296.599 146.959 296.282C146.959 295.812 146.801 295.452 146.484 295.203C146.167 294.953 145.702 294.829 145.088 294.829C144.061 294.829 143.275 295.179 142.728 295.879L141.418 294.872C141.811 294.344 142.339 293.936 143.001 293.648C143.673 293.351 144.421 293.202 145.246 293.202C146.34 293.202 147.213 293.461 147.866 293.979C148.518 294.497 148.845 295.203 148.845 296.095C148.845 296.642 148.729 297.155 148.499 297.635C148.269 298.115 147.827 298.662 147.175 299.276L144.484 301.838H149.233ZM154.138 291.302H155.75L151.001 304.86H149.389L154.138 291.302ZM163.092 301.838V303.421H155.665V302.169L159.666 298.369C160.117 297.937 160.42 297.563 160.573 297.247C160.736 296.92 160.818 296.599 160.818 296.282C160.818 295.812 160.66 295.452 160.343 295.203C160.026 294.953 159.561 294.829 158.947 294.829C157.92 294.829 157.133 295.179 156.586 295.879L155.277 294.872C155.67 294.344 156.198 293.936 156.86 293.648C157.532 293.351 158.28 293.202 159.105 293.202C160.199 293.202 161.072 293.461 161.725 293.979C162.377 294.497 162.703 295.203 162.703 296.095C162.703 296.642 162.588 297.155 162.358 297.635C162.128 298.115 161.686 298.662 161.034 299.276L158.342 301.838H163.092ZM168.332 303.565C167.526 303.565 166.807 303.364 166.174 302.961C165.54 302.548 165.041 301.953 164.677 301.176C164.312 300.389 164.13 299.458 164.13 298.384C164.13 297.309 164.312 296.383 164.677 295.606C165.041 294.819 165.54 294.224 166.174 293.821C166.807 293.408 167.526 293.202 168.332 293.202C169.138 293.202 169.858 293.408 170.491 293.821C171.134 294.224 171.638 294.819 172.003 295.606C172.367 296.383 172.55 297.309 172.55 298.384C172.55 299.458 172.367 300.389 172.003 301.176C171.638 301.953 171.134 302.548 170.491 302.961C169.858 303.364 169.138 303.565 168.332 303.565ZM168.332 301.939C169.052 301.939 169.618 301.641 170.031 301.046C170.453 300.451 170.664 299.564 170.664 298.384C170.664 297.203 170.453 296.316 170.031 295.721C169.618 295.126 169.052 294.829 168.332 294.829C167.622 294.829 167.056 295.126 166.634 295.721C166.221 296.316 166.015 297.203 166.015 298.384C166.015 299.564 166.221 300.451 166.634 301.046C167.056 301.641 167.622 301.939 168.332 301.939ZM181.041 301.838V303.421H173.614V302.169L177.615 298.369C178.066 297.937 178.369 297.563 178.522 297.247C178.685 296.92 178.767 296.599 178.767 296.282C178.767 295.812 178.609 295.452 178.292 295.203C177.975 294.953 177.51 294.829 176.896 294.829C175.869 294.829 175.082 295.179 174.535 295.879L173.226 294.872C173.619 294.344 174.147 293.936 174.809 293.648C175.48 293.351 176.229 293.202 177.054 293.202C178.148 293.202 179.021 293.461 179.674 293.979C180.326 294.497 180.652 295.203 180.652 296.095C180.652 296.642 180.537 297.155 180.307 297.635C180.077 298.115 179.635 298.662 178.983 299.276L176.291 301.838H181.041ZM182.84 292.742H184.496V306.213H182.84V292.742Z" fill="#240D85"/>
<rect x="86.4578" y="271.88" width="265.548" height="53.0827" rx="4.94756" stroke="#240D85" stroke-width="0.899557"/>
</g>
<g filter="url(#filter1_d)">
<path d="M347.415 342.897L347.413 307.291C347.413 307.222 347.434 307.153 347.474 307.096C347.513 307.038 347.569 306.993 347.634 306.968C347.699 306.942 347.77 306.936 347.839 306.951C347.907 306.966 347.969 307.002 348.017 307.052L372.572 332.941C372.618 332.989 372.649 333.05 372.661 333.115C372.674 333.181 372.667 333.248 372.642 333.31C372.617 333.372 372.575 333.425 372.52 333.464C372.466 333.502 372.401 333.525 372.334 333.528L358.623 334.182C358.546 334.186 358.471 334.215 358.412 334.266L347.992 343.162C347.942 343.205 347.879 343.233 347.813 343.242C347.747 343.251 347.68 343.241 347.619 343.214C347.558 343.186 347.507 343.141 347.47 343.085C347.434 343.029 347.415 342.964 347.415 342.897Z" fill="#78DAB1"/>
</g>
<g filter="url(#filter2_d)">
<rect x="360.04" y="295.105" width="73.3939" height="24.4646" rx="12.2323" fill="#78DAB1"/>
<path d="M381.356 311.684L381.342 305.005L378.031 310.532H377.197L373.886 305.092V311.684H372.101V301.609H373.641L377.643 308.287L381.572 301.609H383.112L383.126 311.684H381.356ZM388.611 303.912C389.743 303.912 390.607 304.185 391.202 304.732C391.806 305.269 392.109 306.085 392.109 307.179V311.684H390.41V310.748C390.19 311.084 389.873 311.343 389.46 311.525C389.057 311.698 388.568 311.785 387.992 311.785C387.417 311.785 386.913 311.689 386.481 311.497C386.049 311.295 385.713 311.022 385.474 310.676C385.243 310.321 385.128 309.923 385.128 309.482C385.128 308.791 385.382 308.239 385.891 307.826C386.409 307.404 387.22 307.193 388.323 307.193H390.31V307.078C390.31 306.541 390.146 306.128 389.82 305.84C389.504 305.552 389.029 305.408 388.395 305.408C387.964 305.408 387.537 305.476 387.114 305.61C386.702 305.744 386.352 305.931 386.064 306.171L385.358 304.862C385.761 304.554 386.246 304.319 386.812 304.156C387.378 303.993 387.978 303.912 388.611 303.912ZM388.367 310.475C388.818 310.475 389.216 310.374 389.561 310.173C389.916 309.961 390.166 309.664 390.31 309.28V308.388H388.453C387.417 308.388 386.898 308.728 386.898 309.41C386.898 309.736 387.028 309.995 387.287 310.187C387.546 310.379 387.906 310.475 388.367 310.475ZM399.311 311.684L397.339 309.021L395.353 311.684H393.367L396.361 307.783L393.496 303.998H395.497L397.383 306.517L399.268 303.998H401.211L398.332 307.755L401.341 311.684H399.311ZM416.073 311.684L416.059 305.005L412.749 310.532H411.914L408.603 305.092V311.684H406.819V301.609H408.359L412.36 308.287L416.289 301.609H417.829L417.844 311.684H416.073ZM420.968 311.785C420.642 311.785 420.364 311.674 420.133 311.453C419.903 311.223 419.788 310.935 419.788 310.59C419.788 310.235 419.898 309.947 420.119 309.726C420.349 309.506 420.632 309.395 420.968 309.395C421.304 309.395 421.582 309.506 421.803 309.726C422.033 309.947 422.148 310.235 422.148 310.59C422.148 310.935 422.033 311.223 421.803 311.453C421.573 311.674 421.294 311.785 420.968 311.785Z" fill="#00064A"/>
</g>
<g filter="url(#filter3_d)">
<path d="M244.032 83.2567L244.031 47.6505C244.031 47.5808 244.052 47.5127 244.091 47.455C244.13 47.3973 244.186 47.3527 244.251 47.327C244.316 47.3012 244.387 47.2955 244.456 47.3106C244.524 47.3257 244.586 47.3608 244.634 47.4115L269.189 73.3003C269.235 73.3488 269.266 73.4093 269.278 73.4747C269.291 73.5401 269.284 73.6077 269.259 73.6694C269.234 73.7312 269.192 73.7845 269.137 73.8231C269.083 73.8616 269.018 73.8838 268.952 73.887L255.24 74.5414C255.163 74.5451 255.089 74.5744 255.03 74.6248L244.61 83.5209C244.559 83.5642 244.497 83.5922 244.43 83.6014C244.364 83.6106 244.297 83.6007 244.236 83.5729C244.175 83.5451 244.124 83.5005 244.088 83.4445C244.052 83.3884 244.032 83.3233 244.032 83.2567Z" fill="#F39150"/>
</g>
<g filter="url(#filter4_d)">
<rect x="256.658" y="35.4647" width="73.3939" height="24.4646" rx="12.2323" fill="#F39150"/>
<path d="M279.259 52.043L279.245 45.3647L275.935 50.8916H275.1L271.789 45.4511V52.043H270.005V41.968H271.545L275.546 48.6463L279.475 41.968H281.015L281.03 52.043H279.259ZM283.578 44.3572H285.377V52.043H283.578V44.3572ZM284.485 43.0906C284.159 43.0906 283.885 42.9899 283.665 42.7884C283.444 42.5773 283.334 42.3182 283.334 42.0112C283.334 41.7041 283.444 41.4498 283.665 41.2483C283.885 41.0373 284.159 40.9317 284.485 40.9317C284.811 40.9317 285.085 41.0325 285.306 41.234C285.526 41.4259 285.637 41.6705 285.637 41.968C285.637 42.2846 285.526 42.5533 285.306 42.774C285.094 42.9851 284.821 43.0906 284.485 43.0906ZM289.452 45.4799C289.97 44.6739 290.881 44.2709 292.186 44.2709V45.9836C292.033 45.9548 291.894 45.9404 291.769 45.9404C291.068 45.9404 290.521 46.1467 290.128 46.5593C289.735 46.9623 289.538 47.5476 289.538 48.3153V52.043H287.739V44.3572H289.452V45.4799ZM296.606 44.2709C297.739 44.2709 298.602 44.5443 299.197 45.0913C299.802 45.6286 300.104 46.4442 300.104 47.538V52.043H298.406V51.1075C298.185 51.4433 297.868 51.7024 297.456 51.8847C297.053 52.0574 296.563 52.1438 295.988 52.1438C295.412 52.1438 294.908 52.0478 294.476 51.8559C294.045 51.6544 293.709 51.381 293.469 51.0355C293.238 50.6805 293.123 50.2823 293.123 49.8409C293.123 49.1501 293.378 48.5983 293.886 48.1857C294.404 47.7635 295.215 47.5524 296.319 47.5524H298.305V47.4373C298.305 46.9 298.142 46.4874 297.815 46.1995C297.499 45.9117 297.024 45.7677 296.391 45.7677C295.959 45.7677 295.532 45.8349 295.11 45.9692C294.697 46.1036 294.347 46.2907 294.059 46.5305L293.354 45.2208C293.757 44.9137 294.241 44.6787 294.807 44.5155C295.373 44.3524 295.973 44.2709 296.606 44.2709ZM296.362 50.834C296.813 50.834 297.211 50.7333 297.556 50.5318C297.911 50.3207 298.161 50.0232 298.305 49.6394V48.7471H296.448C295.412 48.7471 294.894 49.0877 294.894 49.769C294.894 50.0952 295.023 50.3543 295.282 50.5462C295.541 50.7381 295.901 50.834 296.362 50.834ZM309.687 52.187C308.909 52.187 308.156 52.0766 307.427 51.8559C306.707 51.6352 306.136 51.3426 305.714 50.978L306.362 49.5243C306.774 49.8505 307.278 50.1192 307.873 50.3303C308.478 50.5318 309.082 50.6325 309.687 50.6325C310.435 50.6325 310.992 50.5126 311.356 50.2727C311.73 50.0328 311.917 49.7162 311.917 49.3228C311.917 49.0349 311.812 48.7998 311.601 48.6175C311.399 48.4256 311.14 48.2769 310.824 48.1713C310.507 48.0658 310.075 47.9458 309.528 47.8115C308.761 47.6292 308.137 47.4469 307.657 47.2646C307.187 47.0823 306.779 46.7992 306.434 46.4154C306.098 46.022 305.93 45.4943 305.93 44.8322C305.93 44.2757 306.079 43.7719 306.376 43.3209C306.683 42.8604 307.139 42.4957 307.744 42.2271C308.358 41.9584 309.106 41.8241 309.989 41.8241C310.603 41.8241 311.207 41.9008 311.802 42.0544C312.397 42.2079 312.911 42.4286 313.342 42.7164L312.752 44.1701C312.311 43.911 311.85 43.7143 311.371 43.58C310.891 43.4457 310.425 43.3785 309.974 43.3785C309.236 43.3785 308.684 43.5032 308.319 43.7527C307.964 44.0022 307.787 44.3332 307.787 44.7458C307.787 45.0337 307.887 45.2688 308.089 45.4511C308.3 45.6334 308.564 45.7773 308.881 45.8829C309.197 45.9884 309.629 46.1084 310.176 46.2427C310.924 46.4154 311.538 46.5977 312.018 46.7896C312.498 46.9719 312.906 47.255 313.242 47.6388C313.587 48.0226 313.76 48.5408 313.76 49.1932C313.76 49.7498 313.606 50.2535 313.299 50.7045C313.002 51.1555 312.546 51.5153 311.932 51.784C311.318 52.0526 310.569 52.187 309.687 52.187ZM316.299 52.1438C315.973 52.1438 315.695 52.0334 315.464 51.8127C315.234 51.5825 315.119 51.2946 315.119 50.9492C315.119 50.5941 315.229 50.3063 315.45 50.0856C315.68 49.8649 315.963 49.7546 316.299 49.7546C316.635 49.7546 316.913 49.8649 317.134 50.0856C317.364 50.3063 317.479 50.5941 317.479 50.9492C317.479 51.2946 317.364 51.5825 317.134 51.8127C316.904 52.0334 316.625 52.1438 316.299 52.1438Z" fill="#00064A"/>
</g>
<path d="M327.477 391.304C327.793 390.933 328.365 390.933 328.68 391.304L333.681 397.188C334.117 397.701 333.753 398.488 333.08 398.488H323.077C322.404 398.488 322.04 397.701 322.476 397.188L327.477 391.304Z" fill="#240D85"/>
<path d="M328.68 408.829C328.365 409.2 327.792 409.2 327.477 408.829L322.476 402.945C322.04 402.433 322.404 401.645 323.077 401.645H333.08C333.753 401.645 334.117 402.433 333.681 402.945L328.68 408.829Z" fill="#240D85"/>
<path d="M327.477 187.695C327.793 187.324 328.365 187.324 328.68 187.695L333.681 193.579C334.117 194.092 333.753 194.879 333.08 194.879H323.077C322.404 194.879 322.04 194.092 322.476 193.579L327.477 187.695Z" fill="#240D85"/>
<path d="M328.68 205.22C328.365 205.591 327.792 205.591 327.477 205.22L322.476 199.336C322.04 198.824 322.404 198.036 323.077 198.036H333.08C333.753 198.036 334.117 198.824 333.681 199.336L328.68 205.22Z" fill="#240D85"/>
<defs>
<filter id="filter0_d" x="0.825306" y="0.706327" width="485.621" height="651.349" filterUnits="userSpaceOnUse" color-interpolation-filters="sRGB">
<feFlood flood-opacity="0" result="BackgroundImageFix"/>
<feColorMatrix in="SourceAlpha" type="matrix" values="0 0 0 0 0 0 0 0 0 0 0 0 0 0 0 0 0 0 127 0"/>
<feOffset dy="30.881"/>
<feGaussianBlur stdDeviation="20.5873"/>
<feColorMatrix type="matrix" values="0 0 0 0 0.0522222 0 0 0 0 0.0736667 0 0 0 0 0.266667 0 0 0 0.15 0"/>
<feBlend mode="normal" in2="BackgroundImageFix" result="effect1_dropShadow"/>
<feBlend mode="normal" in="SourceGraphic" in2="effect1_dropShadow" result="shape"/>
</filter>
<filter id="filter1_d" x="329.917" y="305.333" width="60.2461" height="71.2947" filterUnits="userSpaceOnUse" color-interpolation-filters="sRGB">
<feFlood flood-opacity="0" result="BackgroundImageFix"/>
<feColorMatrix in="SourceAlpha" type="matrix" values="0 0 0 0 0 0 0 0 0 0 0 0 0 0 0 0 0 0 127 0"/>
<feOffset dy="15.8862"/>
<feGaussianBlur stdDeviation="8.74808"/>
<feColorMatrix type="matrix" values="0 0 0 0 0.0522222 0 0 0 0 0.0736667 0 0 0 0 0.266667 0 0 0 0.15 0"/>
<feBlend mode="normal" in2="BackgroundImageFix" result="effect1_dropShadow"/>
<feBlend mode="normal" in="SourceGraphic" in2="effect1_dropShadow" result="shape"/>
</filter>
<filter id="filter2_d" x="342.544" y="293.495" width="108.386" height="59.4569" filterUnits="userSpaceOnUse" color-interpolation-filters="sRGB">
<feFlood flood-opacity="0" result="BackgroundImageFix"/>
<feColorMatrix in="SourceAlpha" type="matrix" values="0 0 0 0 0 0 0 0 0 0 0 0 0 0 0 0 0 0 127 0"/>
<feOffset dy="15.8862"/>
<feGaussianBlur stdDeviation="8.74808"/>
<feColorMatrix type="matrix" values="0 0 0 0 0.0522222 0 0 0 0 0.0736667 0 0 0 0 0.266667 0 0 0 0.15 0"/>
<feBlend mode="normal" in2="BackgroundImageFix" result="effect1_dropShadow"/>
<feBlend mode="normal" in="SourceGraphic" in2="effect1_dropShadow" result="shape"/>
</filter>
<filter id="filter3_d" x="226.534" y="45.6924" width="60.2461" height="71.2947" filterUnits="userSpaceOnUse" color-interpolation-filters="sRGB">
<feFlood flood-opacity="0" result="BackgroundImageFix"/>
<feColorMatrix in="SourceAlpha" type="matrix" values="0 0 0 0 0 0 0 0 0 0 0 0 0 0 0 0 0 0 127 0"/>
<feOffset dy="15.8862"/>
<feGaussianBlur stdDeviation="8.74808"/>
<feColorMatrix type="matrix" values="0 0 0 0 0.0522222 0 0 0 0 0.0736667 0 0 0 0 0.266667 0 0 0 0.15 0"/>
<feBlend mode="normal" in2="BackgroundImageFix" result="effect1_dropShadow"/>
<feBlend mode="normal" in="SourceGraphic" in2="effect1_dropShadow" result="shape"/>
</filter>
<filter id="filter4_d" x="239.161" y="33.8547" width="108.386" height="59.4569" filterUnits="userSpaceOnUse" color-interpolation-filters="sRGB">
<feFlood flood-opacity="0" result="BackgroundImageFix"/>
<feColorMatrix in="SourceAlpha" type="matrix" values="0 0 0 0 0 0 0 0 0 0 0 0 0 0 0 0 0 0 127 0"/>
<feOffset dy="15.8862"/>
<feGaussianBlur stdDeviation="8.74808"/>
<feColorMatrix type="matrix" values="0 0 0 0 0.0522222 0 0 0 0 0.0736667 0 0 0 0 0.266667 0 0 0 0.15 0"/>
<feBlend mode="normal" in2="BackgroundImageFix" result="effect1_dropShadow"/>
<feBlend mode="normal" in="SourceGraphic" in2="effect1_dropShadow" result="shape"/>
</filter>
</defs>
</svg>
