<svg width="125" height="28" viewBox="0 0 125 28" fill="none" xmlns="http://www.w3.org/2000/svg">
<mask id="mask0" mask-type="alpha" maskUnits="userSpaceOnUse" x="10" y="15" width="16" height="13">
<path fill-rule="evenodd" clip-rule="evenodd" d="M10.7439 15.0398H25.0195V27.5056H10.7439V15.0398Z" fill="white"/>
</mask>
<g mask="url(#mask0)">
<path fill-rule="evenodd" clip-rule="evenodd" d="M14.1372 15.7974L10.7993 26.0701C10.5228 26.9213 11.3281 27.7266 12.1793 27.4504L24.2625 23.5242C25.1133 23.2477 25.2917 22.1227 24.5679 21.5965L15.8218 15.2491C15.2201 14.8122 14.3672 15.0899 14.1372 15.7974Z" fill="#00064A"/>
</g>
<mask id="mask1" mask-type="alpha" maskUnits="userSpaceOnUse" x="0" y="13" width="13" height="14">
<path fill-rule="evenodd" clip-rule="evenodd" d="M0 13.9727H12.9945V26.4419H0V13.9727Z" fill="white"/>
</mask>
<g mask="url(#mask1)">
<path fill-rule="evenodd" clip-rule="evenodd" d="M11.8988 13.9727H1.09699C0.202321 13.9727 -0.314925 14.9877 0.211024 15.7115L7.67904 25.99C8.20499 26.7141 9.32999 26.536 9.60646 25.6851L12.9403 15.4055C13.1697 14.6982 12.6423 13.9727 11.8988 13.9727Z" fill="#00064A"/>
</g>
<path fill-rule="evenodd" clip-rule="evenodd" d="M13.33 11.3389L9.99208 1.06531C9.71562 0.214449 8.59062 0.0366186 8.06467 0.760415L0.596942 11.0392C0.0709931 11.763 0.587949 12.7778 1.48261 12.7778L12.2891 12.772C13.0329 12.7717 13.56 12.0461 13.33 11.3389Z" fill="#00064A"/>
<path fill-rule="evenodd" clip-rule="evenodd" d="M16.2155 12.2763L24.9545 5.92715C25.6783 5.4012 26.6933 5.91845 26.6933 6.81311V19.5183C26.6933 20.4129 25.6783 20.9302 24.9545 20.4042L16.2149 14.0476C15.6136 13.6104 15.6139 12.7134 16.2155 12.2763Z" fill="#00064A"/>
<path fill-rule="evenodd" clip-rule="evenodd" d="M71.2169 24.0569C72.409 24.0569 73.4638 23.7819 74.381 23.2313C75.2978 22.6813 76.0146 21.9244 76.5307 20.9616C77.0465 19.9987 77.3044 18.8868 77.3044 17.6254C77.3044 16.3647 77.0465 15.2472 76.5307 14.2722C76.0146 13.298 75.2978 12.5351 74.381 11.9853C73.4638 11.4344 72.409 11.1597 71.2169 11.1597C70.0243 11.1597 68.9698 11.4344 68.0531 11.9853C67.1355 12.5351 66.4132 13.298 65.8861 14.2722C65.3584 15.2472 65.095 16.3647 65.095 17.6254C65.095 18.8868 65.3584 19.9987 65.8861 20.9616C66.4132 21.9244 67.1355 22.6813 68.0531 23.2313C68.9698 23.7819 70.0243 24.0569 71.2169 24.0569ZM71.2169 27.1524C69.3597 27.1524 67.7204 26.7457 66.2989 25.9314C64.8771 25.1176 63.7594 23.9941 62.9456 22.561C62.1313 21.1279 61.7246 19.4825 61.7246 17.6255C61.7246 15.746 62.1313 14.0892 62.9456 12.6556C63.7594 11.2233 64.8771 10.0995 66.2989 9.28548C67.7204 8.47146 69.3597 8.06445 71.2169 8.06445C73.0512 8.06445 74.679 8.47146 76.1007 9.28548C77.5222 10.0995 78.64 11.2233 79.454 12.6556C80.2677 14.0892 80.675 15.746 80.675 17.6255C80.675 19.4825 80.2735 21.1279 79.4711 22.561C78.6681 23.9941 77.5565 25.1176 76.1353 25.9314C74.7132 26.7457 73.0741 27.1524 71.2169 27.1524Z" fill="#00064A"/>
<path fill-rule="evenodd" clip-rule="evenodd" d="M112.375 11.8819C113.303 11.3089 114.421 11.022 115.728 11.022C116.874 11.022 117.849 11.2857 118.651 11.8131C119.454 12.3408 120.073 13.0574 120.509 13.9628C120.818 14.6068 121.021 15.3126 121.123 16.0779H109.673C109.791 15.422 109.984 14.8075 110.26 14.2378C110.741 13.2404 111.446 12.4554 112.375 11.8819ZM122.71 18.8292C123.168 18.8292 123.547 18.6862 123.845 18.3993C124.142 18.1129 124.292 17.7518 124.292 17.316C124.292 15.505 123.953 13.9056 123.277 12.5181C122.601 11.1314 121.62 10.0418 120.337 9.251C119.052 8.4599 117.516 8.06421 115.728 8.06421C113.917 8.06421 112.311 8.4718 110.913 9.28524C109.514 10.0995 108.42 11.2231 107.629 12.6556C106.838 14.089 106.442 15.7457 106.442 17.6256C106.442 19.4828 106.86 21.1282 107.698 22.561C108.534 23.9941 109.692 25.1177 111.171 25.9314C112.65 26.7454 114.341 27.1521 116.244 27.1521C117.298 27.1521 118.405 26.9578 119.563 26.5676C120.72 26.178 121.689 25.6732 122.469 25.0544C122.859 24.7565 123.042 24.4008 123.019 23.988C122.996 23.5755 122.79 23.1969 122.4 22.8532C122.102 22.6014 121.752 22.481 121.351 22.492C120.95 22.5039 120.577 22.6353 120.234 22.8877C119.775 23.2314 119.173 23.5358 118.428 23.7989C117.683 24.0629 116.954 24.1946 116.244 24.1946C114.937 24.1946 113.779 23.9082 112.77 23.3347C111.761 22.7618 110.97 21.982 110.397 20.9959C110.013 20.3363 109.761 19.6128 109.634 18.8292H122.71Z" fill="#00064A"/>
<mask id="mask2" mask-type="alpha" maskUnits="userSpaceOnUse" x="78" y="0" width="27" height="28">
<path fill-rule="evenodd" clip-rule="evenodd" d="M78.4401 0.137695H104.49V27.015H78.4401V0.137695Z" fill="white"/>
</mask>
<g mask="url(#mask2)">
<path fill-rule="evenodd" clip-rule="evenodd" d="M103.836 18.9497C103.401 18.2506 102.684 17.6376 101.687 17.1096C100.69 16.5825 99.331 16.1468 97.6115 15.8027C96.3734 15.5506 95.4329 15.293 94.7912 15.029C94.1492 14.7656 93.7193 14.4674 93.5014 14.1347C93.2833 13.8028 93.1748 13.4297 93.1748 13.0169C93.1748 12.3523 93.5243 11.8478 94.2238 11.5038C94.9229 11.1597 95.7767 10.9883 96.7859 10.9883C97.6571 10.9883 98.4253 11.091 99.0902 11.2975C99.7551 11.5038 100.374 11.8821 100.948 12.4321C101.291 12.7538 101.716 12.9604 102.22 13.0514C102.724 13.1431 103.16 13.0631 103.527 12.8104C103.894 12.5359 104.089 12.1977 104.111 11.7959C104.134 11.395 103.985 11.0112 103.664 10.6439C102.977 9.79596 102.048 9.13047 100.879 8.64891C99.7092 8.16763 98.3681 7.92685 96.8547 7.92685C95.6856 7.92685 94.5617 8.11599 93.4843 8.49428C92.4066 8.87286 91.5238 9.4461 90.836 10.2143C90.1482 10.9825 89.8044 11.9508 89.8044 13.1199C89.8044 14.4503 90.3254 15.5739 91.3692 16.4906C92.4124 17.4082 94.0918 18.096 96.4076 18.5546C98.1964 18.8755 99.4284 19.2883 100.105 19.7922C100.781 20.2972 101.108 20.8928 101.085 21.5806C101.062 22.2685 100.701 22.8307 100.002 23.2658C99.4511 23.609 98.7023 23.815 97.7615 23.8875C97.5068 23.9072 97.2411 23.9194 96.9579 23.9194C96.269 23.9194 92.6317 23.8797 89.8288 23.9122C88.2617 23.9304 87.7218 23.3334 87.3122 22.9018C86.7932 22.3552 86.5347 21.5531 86.5402 20.5789V7.94774H88.0664C88.548 7.94774 88.9382 7.81052 89.2358 7.53522C89.534 7.25991 89.6828 6.89294 89.6828 6.43458C89.6828 6.02206 89.534 5.678 89.2358 5.4027C88.9382 5.12769 88.548 4.99018 88.0664 4.99018H86.5402V1.85769C86.5402 1.3535 86.3795 0.940689 86.0589 0.619549C85.7375 0.2987 85.3247 0.137695 84.8205 0.137695C84.316 0.137695 83.9032 0.2987 83.5824 0.619549C83.2612 0.940689 83.1008 1.3535 83.1008 1.85769V4.99018H80.0565C79.5752 4.99018 79.185 5.12769 78.8871 5.4027C78.5889 5.678 78.4401 6.04498 78.4401 6.50362C78.4401 6.91644 78.5889 7.25991 78.8871 7.53522C79.185 7.81052 79.5752 7.94774 80.0565 7.94774H83.1008V20.3428C83.1008 21.6036 83.3642 22.739 83.8922 23.7474C84.419 24.7569 85.1416 25.5533 86.0589 26.1375C86.9756 26.7224 88.0072 27.0151 89.154 27.0151H89.7731L89.809 27.0133L89.8334 27.0151H96.9037C96.9217 27.0151 96.9388 27.0125 96.9565 27.0119C97.0029 27.0125 97.0487 27.0151 97.0954 27.0151C98.7232 27.0151 100.082 26.763 101.171 26.2582C102.26 25.754 103.085 25.0772 103.647 24.229C104.209 23.381 104.49 22.4292 104.49 21.3744C104.49 20.4574 104.272 19.6492 103.836 18.9497Z" fill="#00064A"/>
</g>
<path fill-rule="evenodd" clip-rule="evenodd" d="M58.1947 12.0196C57.4726 10.7124 56.4866 9.72082 55.2371 9.04431C53.9871 8.36867 52.5717 8.03013 50.9895 8.03013C49.4763 8.03013 48.112 8.36258 46.8968 9.02748C46.2348 9.38982 45.6517 9.82439 45.1428 10.326V9.95609V1.90817C45.1428 1.38106 44.9821 0.956935 44.6613 0.635795C44.3398 0.314656 43.916 0.137695 43.3889 0.137695C42.8841 0.137695 42.4655 0.314656 42.1336 0.635795C41.8009 0.956935 41.6349 1.38106 41.6349 1.90817V18.4165V23.5754H38.313H38.2997C37.7949 23.5754 37.3821 23.3004 37.0615 22.7497C36.7401 22.1997 36.58 21.5009 36.58 20.652V1.87336C36.58 1.36975 36.4193 0.956935 36.0984 0.635795C35.777 0.314656 35.3645 0.137695 34.8603 0.137695C34.3558 0.137695 33.943 0.314656 33.6221 0.635795C33.3007 0.956935 33.1406 1.36975 33.1406 1.87336V20.652C33.1406 21.8899 33.3584 22.9856 33.7942 23.9368C34.2293 24.8881 34.8371 25.6388 35.6168 26.1894C36.3961 26.7392 37.2904 27.0145 38.2997 27.0145H38.313C38.313 27.0145 43.2673 27.0119 43.3988 27.0119C43.9259 27.0119 44.35 26.8456 44.6714 26.5132C44.992 26.181 45.1527 25.7624 45.1527 25.2579L45.1428 15.5965C45.1428 14.7482 45.3717 13.9969 45.8306 13.3433C46.289 12.6903 46.9081 12.169 47.6879 11.7788C48.4671 11.3889 49.3385 11.1939 50.3017 11.1939C51.3562 11.1939 52.2906 11.3953 53.1046 11.7959C53.9183 12.1974 54.5664 12.8107 55.048 13.6357C55.5292 14.4613 55.77 15.5277 55.77 16.8346V25.2951C55.77 25.7998 55.9362 26.2182 56.269 26.5503C56.6009 26.8828 57.0198 27.049 57.5242 27.049C58.0281 27.049 58.4468 26.8828 58.7795 26.5503C59.1117 26.2182 59.2782 25.7998 59.2782 25.2951V16.8346C59.2782 14.9313 58.917 13.3265 58.1947 12.0196Z" fill="#00064A"/>
</svg>
