<svg width="182" height="41" viewBox="0 0 182 41" fill="none" xmlns="http://www.w3.org/2000/svg">
<mask id="mask0" mask-type="alpha" maskUnits="userSpaceOnUse" x="15" y="21" width="22" height="20">
<path fill-rule="evenodd" clip-rule="evenodd" d="M15.7322 21.821H36.636V40.0747H15.7322V21.821Z" fill="white"/>
</mask>
<g mask="url(#mask0)">
<path fill-rule="evenodd" clip-rule="evenodd" d="M20.701 22.9304L15.8133 37.9727C15.4085 39.219 16.5877 40.3982 17.8341 39.9938L35.5274 34.2447C36.7733 33.8399 37.0346 32.1926 35.9747 31.422L23.1677 22.1276C22.2867 21.4878 21.0378 21.8944 20.701 22.9304Z" fill="white"/>
</g>
<mask id="mask1" mask-type="alpha" maskUnits="userSpaceOnUse" x="0" y="20" width="20" height="19">
<path fill-rule="evenodd" clip-rule="evenodd" d="M0 20.2585H19.0278V38.5173H0V20.2585Z" fill="white"/>
</mask>
<g mask="url(#mask1)">
<path fill-rule="evenodd" clip-rule="evenodd" d="M17.4234 20.2585H1.60634C0.296286 20.2585 -0.461115 21.7449 0.309029 22.8047L11.2444 37.8555C12.0146 38.9158 13.6619 38.6549 14.0667 37.409L18.9484 22.3566C19.2844 21.3209 18.5121 20.2585 17.4234 20.2585Z" fill="white"/>
</g>
<path fill-rule="evenodd" clip-rule="evenodd" d="M19.5189 16.4018L14.6312 1.3583C14.2264 0.112389 12.5791 -0.148008 11.8089 0.911844L0.873989 15.963C0.103844 17.0229 0.860821 18.5088 2.17087 18.5088L17.9947 18.5003C19.0839 18.4999 19.8557 17.4375 19.5189 16.4018Z" fill="white"/>
<path fill-rule="evenodd" clip-rule="evenodd" d="M23.7442 17.7745L36.5406 8.47755C37.6005 7.7074 39.0868 8.4648 39.0868 9.77486V28.379C39.0868 29.689 37.6005 30.4464 36.5406 29.6763L23.7434 20.3683C22.8628 19.7281 22.8632 18.4147 23.7442 17.7745Z" fill="white"/>
<path fill-rule="evenodd" clip-rule="evenodd" d="M104.283 35.0248C106.028 35.0248 107.573 34.6221 108.916 33.8158C110.258 33.0104 111.308 31.9021 112.063 30.4922C112.819 29.0824 113.196 27.4541 113.196 25.6071C113.196 23.761 112.819 22.1247 112.063 20.697C111.308 19.2706 110.258 18.1534 108.916 17.3484C107.573 16.5417 106.028 16.1394 104.283 16.1394C102.536 16.1394 100.992 16.5417 99.6498 17.3484C98.3062 18.1534 97.2485 19.2706 96.4767 20.697C95.704 22.1247 95.3183 23.761 95.3183 25.6071C95.3183 27.4541 95.704 29.0824 96.4767 30.4922C97.2485 31.9021 98.3062 33.0104 99.6498 33.8158C100.992 34.6221 102.536 35.0248 104.283 35.0248ZM104.283 39.5575C101.563 39.5575 99.1626 38.962 97.0812 37.7696C94.9993 36.5781 93.3625 34.9328 92.171 32.8344C90.9786 30.7359 90.3831 28.3265 90.3831 25.6074C90.3831 22.8552 90.9786 20.4292 92.171 18.3299C93.3625 16.2327 94.9993 14.5871 97.0812 13.3951C99.1626 12.2032 101.563 11.6072 104.283 11.6072C106.969 11.6072 109.352 12.2032 111.434 13.3951C113.515 14.5871 115.152 16.2327 116.344 18.3299C117.536 20.4292 118.132 22.8552 118.132 25.6074C118.132 28.3265 117.544 30.7359 116.369 32.8344C115.193 34.9328 113.566 36.5781 111.485 37.7696C109.402 38.962 107.002 39.5575 104.283 39.5575Z" fill="white"/>
<path fill-rule="evenodd" clip-rule="evenodd" d="M164.55 17.1969C165.909 16.3579 167.546 15.9378 169.46 15.9378C171.139 15.9378 172.566 16.3239 173.741 17.0962C174.915 17.8689 175.822 18.9181 176.46 20.2439C176.913 21.1869 177.211 22.2204 177.359 23.341H160.594C160.766 22.3806 161.05 21.4809 161.453 20.6466C162.158 19.1862 163.19 18.0367 164.55 17.1969ZM179.683 27.3698C180.354 27.3698 180.909 27.1604 181.345 26.7403C181.781 26.321 182 25.7921 182 25.1541C182 22.5021 181.504 20.1603 180.514 18.1285C179.524 16.098 178.088 14.5025 176.208 13.3445C174.328 12.1861 172.079 11.6067 169.46 11.6067C166.808 11.6067 164.457 12.2035 162.41 13.3946C160.361 14.587 158.759 16.2322 157.6 18.3298C156.442 20.4287 155.863 22.8547 155.863 25.6074C155.863 28.3269 156.475 30.7363 157.701 32.8343C158.926 34.9328 160.622 36.578 162.787 37.7695C164.953 38.9615 167.428 39.557 170.216 39.557C171.76 39.557 173.38 39.2724 175.076 38.7011C176.77 38.1306 178.189 37.3915 179.331 36.4854C179.902 36.0491 180.17 35.5283 180.137 34.9239C180.103 34.3198 179.801 33.7655 179.23 33.2621C178.793 32.8934 178.281 32.7171 177.694 32.7332C177.106 32.7506 176.561 32.9431 176.058 33.3126C175.386 33.816 174.504 34.2616 173.414 34.6469C172.322 35.0335 171.256 35.2263 170.216 35.2263C168.302 35.2263 166.606 34.807 165.129 33.9672C163.651 33.1283 162.493 31.9864 161.654 30.5426C161.092 29.5766 160.723 28.5172 160.537 27.3698H179.683Z" fill="white"/>
<mask id="mask2" mask-type="alpha" maskUnits="userSpaceOnUse" x="114" y="0" width="40" height="40">
<path fill-rule="evenodd" clip-rule="evenodd" d="M114.859 0H153.004V39.3563H114.859V0Z" fill="white"/>
</mask>
<g mask="url(#mask2)">
<path fill-rule="evenodd" clip-rule="evenodd" d="M152.047 27.5464C151.409 26.5226 150.36 25.6251 148.9 24.8519C147.44 24.0801 145.45 23.4421 142.932 22.9383C141.119 22.5691 139.742 22.1919 138.802 21.8053C137.862 21.4196 137.233 20.9829 136.914 20.4957C136.594 20.0098 136.435 19.4635 136.435 18.859C136.435 17.8858 136.947 17.1471 137.971 16.6433C138.995 16.1395 140.245 15.8884 141.723 15.8884C142.999 15.8884 144.124 16.0388 145.097 16.3413C146.071 16.6433 146.977 17.1972 147.817 18.0026C148.321 18.4737 148.942 18.7762 149.68 18.9095C150.419 19.0438 151.057 18.9265 151.594 18.5565C152.131 18.1547 152.416 17.6594 152.45 17.0711C152.483 16.484 152.265 15.922 151.795 15.3842C150.788 14.1425 149.428 13.1681 147.716 12.4629C146.004 11.7582 144.04 11.4056 141.824 11.4056C140.112 11.4056 138.466 11.6826 136.889 12.2365C135.31 12.7909 134.018 13.6302 133.011 14.7551C132.003 15.8799 131.5 17.2979 131.5 19.0098C131.5 20.9579 132.263 22.6031 133.791 23.9454C135.319 25.289 137.778 26.2962 141.169 26.9678C143.788 27.4376 145.593 28.0421 146.583 28.78C147.573 29.5195 148.051 30.3916 148.019 31.3988C147.985 32.406 147.456 33.2292 146.432 33.8664C145.626 34.3689 144.529 34.6705 143.152 34.7767C142.779 34.8056 142.39 34.8235 141.975 34.8235C140.966 34.8235 135.64 34.7653 131.536 34.8128C129.241 34.8396 128.451 33.9654 127.851 33.3333C127.091 32.533 126.712 31.3584 126.72 29.932V11.4362H128.955C129.66 11.4362 130.232 11.2353 130.668 10.8322C131.104 10.429 131.322 9.89167 131.322 9.2205C131.322 8.61645 131.104 8.11265 130.668 7.70952C130.232 7.30682 129.66 7.10547 128.955 7.10547H126.72V2.51858C126.72 1.7803 126.485 1.17582 126.016 0.705577C125.545 0.235759 124.941 0 124.202 0C123.464 0 122.859 0.235759 122.389 0.705577C121.919 1.17582 121.684 1.7803 121.684 2.51858V7.10547H117.226C116.522 7.10547 115.95 7.30682 115.514 7.70952C115.077 8.11265 114.859 8.65001 114.859 9.3216C114.859 9.92608 115.077 10.429 115.514 10.8322C115.95 11.2353 116.522 11.4362 117.226 11.4362H121.684V29.5862C121.684 31.4324 122.07 33.095 122.843 34.5716C123.614 36.0498 124.672 37.2159 126.016 38.0714C127.358 38.9278 128.869 39.3564 130.548 39.3564H131.454L131.507 39.3539L131.543 39.3564H141.896C141.922 39.3564 141.947 39.3526 141.973 39.3517C142.041 39.3526 142.108 39.3564 142.176 39.3564C144.56 39.3564 146.549 38.9873 148.144 38.2481C149.738 37.5098 150.947 36.5188 151.77 35.2767C152.593 34.0351 153.004 32.6413 153.004 31.0968C153.004 29.754 152.685 28.5706 152.047 27.5464Z" fill="white"/>
</g>
<path fill-rule="evenodd" clip-rule="evenodd" d="M85.2142 17.3986C84.1569 15.4845 82.7131 14.0325 80.8835 13.0419C79.0531 12.0526 76.9805 11.5568 74.6637 11.5568C72.448 11.5568 70.4502 12.0437 68.6708 13.0173C67.7014 13.5478 66.8476 14.1842 66.1025 14.9186V14.377V2.5925C66.1025 1.82065 65.8672 1.19961 65.3973 0.729365C64.9267 0.259122 64.3061 0 63.5342 0C62.7951 0 62.1821 0.259122 61.6961 0.729365C61.2089 1.19961 60.9659 1.82065 60.9659 2.5925V26.7656V34.3197H56.1017H56.0821C55.343 34.3197 54.7385 33.917 54.2691 33.1107C53.7984 32.3053 53.564 31.282 53.564 30.0391V2.54152C53.564 1.80408 53.3286 1.19961 52.8588 0.729365C52.3881 0.259122 51.7841 0 51.0458 0C50.3071 0 49.7026 0.259122 49.2328 0.729365C48.7621 1.19961 48.5276 1.80408 48.5276 2.54152V30.0391C48.5276 31.8516 48.8467 33.4561 49.4847 34.849C50.1219 36.2418 51.0118 37.3412 52.1537 38.1474C53.2946 38.9524 54.6043 39.3556 56.0821 39.3556H56.1017C56.1017 39.3556 63.3562 39.3517 63.5487 39.3517C64.3205 39.3517 64.9415 39.1083 65.4122 38.6215C65.8816 38.1351 66.1169 37.5222 66.1169 36.7834L66.1025 22.6362C66.1025 21.3941 66.4377 20.2939 67.1097 19.3369C67.7808 18.3807 68.6873 17.6173 69.8292 17.046C70.9702 16.4751 72.2462 16.1896 73.6565 16.1896C75.2007 16.1896 76.5689 16.4844 77.7609 17.0711C78.9524 17.659 79.9014 18.557 80.6065 19.7651C81.3113 20.974 81.6638 22.5356 81.6638 24.4492V36.8378C81.6638 37.577 81.9072 38.1895 82.3945 38.6759C82.8804 39.1627 83.4938 39.4061 84.2326 39.4061C84.9704 39.4061 85.5834 39.1627 86.0706 38.6759C86.557 38.1895 86.8008 37.577 86.8008 36.8378V24.4492C86.8008 21.6622 86.272 19.3122 85.2142 17.3986Z" fill="white"/>
</svg>
