<svg width="150" height="150" viewBox="0 0 150 150" fill="none" xmlns="http://www.w3.org/2000/svg">
<circle cx="75" cy="75" r="75" fill="#240D85" fill-opacity="0.15"/>
<mask id="mask0" mask-type="alpha" maskUnits="userSpaceOnUse" x="0" y="0" width="150" height="150">
<circle cx="75" cy="75" r="75" fill="white"/>
</mask>
<g mask="url(#mask0)">
<path d="M152.114 85.8433C151.652 86.9187 150.578 87.6552 149.385 87.6552H126.96C126.259 86.6683 125.558 85.696 124.857 84.7091C124.156 83.7221 123.456 82.7499 122.74 81.7629C120.966 79.2734 119.176 76.784 117.387 74.2945C114.122 69.728 110.841 65.1614 107.576 60.5949C106.979 59.7553 106.368 58.9156 105.772 58.076C105.175 57.2363 104.564 56.3967 103.968 55.557C107.427 50.9611 110.871 46.3651 114.33 41.7544C114.912 40.9884 115.523 40.4728 116.507 40.355C117.342 40.2371 118.446 40.4581 119.012 41.1651C119.027 41.1946 119.042 41.2093 119.072 41.2388C120.474 42.8297 121.711 44.5974 123.008 46.262C125.722 49.7237 128.436 53.1854 131.135 56.6471C134.251 60.6244 137.382 64.6164 140.499 68.5937C143.093 71.8934 145.673 75.2078 148.267 78.5075C149.341 79.8774 150.414 81.2474 151.488 82.6173C152.263 83.6043 152.621 84.6649 152.114 85.8433Z" fill="#00064A"/>
<path d="M32.9041 86.404C33.1007 86.5312 33.3079 86.6582 33.5253 86.7847C43.5924 92.6443 75.6546 97.7422 101.87 101.91C112.65 103.624 122.441 105.181 129.308 106.569C129.777 106.664 130.234 106.758 130.675 106.852C131.321 106.153 131.578 105.107 130.981 104.255C130.087 103.003 129.196 101.754 128.305 100.505C127.415 99.2556 126.524 98.0065 125.63 96.7538C125.111 96.0304 124.592 95.3033 124.074 94.5761C123.555 93.8492 123.037 93.1223 122.518 92.399C122.165 91.8994 121.812 91.4036 121.458 90.9077C121.105 90.4118 120.752 89.9159 120.398 89.4163C119.677 88.4171 118.97 87.4328 118.264 86.4336C117.362 85.1734 116.464 83.9132 115.566 82.653C114.667 81.3928 113.769 80.1326 112.867 78.8724C111.221 76.5608 109.571 74.2492 107.922 71.9376C106.272 69.626 104.622 67.3144 102.976 65.0028C102.675 64.5778 102.371 64.1527 102.067 63.7277C101.762 63.3027 101.458 62.8776 101.157 62.4526C100.857 62.0276 100.552 61.6025 100.248 61.1775C99.9433 60.7525 99.6389 60.3274 99.3382 59.9024C98.7069 59.0076 98.0755 58.1277 97.4442 57.2478C95.2123 54.1165 92.9804 50.989 90.7485 47.8615C88.5158 44.7328 86.2831 41.6041 84.0504 38.4716C83.2765 37.3892 82.508 36.3042 81.7393 35.2188C80.6861 33.7318 79.6324 32.2441 78.5636 30.7613C77.0876 28.7331 74.062 28.736 72.5898 30.767L72.5507 30.821L72.5496 30.8224C71.122 32.8203 69.6942 34.8183 68.2665 36.8311C66.1394 39.8138 64.0123 42.7928 61.8853 45.7718C59.7582 48.7508 57.6311 51.7298 55.5041 54.7125C50.378 61.9157 45.237 69.119 40.096 76.3222C37.8637 79.454 35.6315 82.5821 33.3992 85.7101C33.2342 85.9414 33.0691 86.1727 32.9041 86.404Z" fill="#00064A"/>
<path d="M69.4848 103.798C69.4848 103.798 8.78645 97.5545 28.8984 83.1974C28.8984 83.1974 -6.61463 87.0626 2.80721 94.7197C12.229 102.377 62.2372 115.265 39.045 123.688C15.8528 132.111 -3.02474 142.042 -14.6208 150.743C-14.6208 150.743 100.649 150.743 104.273 150.743C104.273 150.743 189.07 118.347 69.4848 103.798Z" fill="#00064A"/>
</g>
</svg>
