<svg width="1535" height="523" viewBox="0 0 1535 523" fill="none" xmlns="http://www.w3.org/2000/svg">
<g clip-path="url(#clip0)">
<path d="M220.83 19.819L555.5 443L1099 426L1303.52 121.965C1314.68 105.37 1336.38 99.5707 1354.34 108.385L1405.52 133.515C1422.2 141.706 1442.33 137.327 1454.1 122.946L1535.5 23.5V512.5H-0.956421L-0.956322 263L138.496 25.5162C156.302 -4.80655 199.018 -7.76231 220.83 19.819Z" fill="#F4F4FF"/>
<path d="M1362.38 333.72L1537 432V523H0V372.734L42.2214 332.58C51.2239 324.018 63.6937 320.125 75.9683 322.045L858.559 444.444L1333.37 329.697C1343.2 327.321 1353.57 328.758 1362.38 333.72Z" fill="#240D85"/>
</g>
<defs>
<clipPath id="clip0">
<rect width="1535" height="523" fill="white"/>
</clipPath>
</defs>
</svg>
