<svg width="1224" height="453" viewBox="0 0 1224 453" fill="none" xmlns="http://www.w3.org/2000/svg">
<g clip-path="url(#clip0)">
<g filter="url(#filter0_d)">
<path fill-rule="evenodd" clip-rule="evenodd" d="M53.2618 2.41522L91.9094 19.4511C95.1107 20.862 95.3294 25.3062 92.2844 27.0643L49.0428 52.0298C45.9978 53.7878 42.2583 51.3763 42.6371 47.8985L47.2319 5.89394C47.5473 3.00401 50.6008 1.24242 53.2618 2.41522" fill="#240D85"/>
</g>
<g filter="url(#filter1_d)">
<path fill-rule="evenodd" clip-rule="evenodd" d="M112.065 403.418L105.612 445.158C105.078 448.616 100.842 449.977 98.3557 447.491L63.0491 412.184C60.5629 409.698 61.9244 405.462 65.3817 404.928L107.144 398.494C110.017 398.051 112.509 400.544 112.065 403.418" fill="#240D85"/>
</g>
<g filter="url(#filter2_d)">
<path fill-rule="evenodd" clip-rule="evenodd" d="M1196.15 63.3068L1198.77 115.911C1198.99 120.268 1194.16 122.997 1190.5 120.586L1138.49 86.3457C1134.83 83.9346 1135.43 78.418 1139.51 76.8957L1188.9 58.5308C1192.3 57.2665 1195.97 59.685 1196.15 63.3068" fill="#240D85"/>
</g>
<g filter="url(#filter3_d)">
<path fill-rule="evenodd" clip-rule="evenodd" d="M681.728 366.009L684.792 394.161C685.046 396.493 682.539 398.11 680.497 396.931L651.504 380.192C649.462 379.013 649.609 376.034 651.755 375.088L677.686 363.674C679.47 362.888 681.517 364.071 681.728 366.009" fill="#240D85"/>
</g>
<g filter="url(#filter4_d)">
<path fill-rule="evenodd" clip-rule="evenodd" d="M345.234 48.6264L347.69 71.1935C347.894 73.0627 345.884 74.3588 344.247 73.4139L321.006 59.9957C319.37 59.0508 319.487 56.6622 321.208 55.9039L341.994 46.7546C343.424 46.1248 345.065 47.0726 345.234 48.6264" fill="#240D85"/>
</g>
<g filter="url(#filter5_d)">
<path fill-rule="evenodd" clip-rule="evenodd" d="M937.234 48.6264L939.69 71.1935C939.894 73.0627 937.884 74.3588 936.247 73.4139L913.006 59.9957C911.37 59.0508 911.487 56.6622 913.208 55.9039L933.994 46.7546C935.424 46.1248 937.065 47.0726 937.234 48.6264" fill="#240D85"/>
</g>
<g filter="url(#filter6_d)">
<path fill-rule="evenodd" clip-rule="evenodd" d="M405.869 422.537L426.472 432.069C428.178 432.858 428.253 435.249 426.599 436.164L403.119 449.158C401.465 450.073 399.479 448.741 399.717 446.876L402.595 424.348C402.793 422.798 404.451 421.881 405.869 422.537" fill="#240D85"/>
</g>
<g filter="url(#filter7_d)">
<path fill-rule="evenodd" clip-rule="evenodd" d="M950.071 412.539L946.603 434.973C946.316 436.831 944.039 437.563 942.703 436.226L923.726 417.25C922.39 415.914 923.122 413.637 924.98 413.35L947.426 409.892C948.97 409.654 950.31 410.994 950.071 412.539" fill="#240D85"/>
</g>
<g filter="url(#filter8_d)">
<path fill-rule="evenodd" clip-rule="evenodd" d="M562.433 72.0807L586.779 82.8122C588.795 83.7009 588.933 86.5005 587.015 87.6079L559.775 103.335C557.857 104.442 555.502 102.923 555.74 100.732L558.635 74.272C558.833 72.4516 560.757 71.3419 562.433 72.0807" fill="#240D85"/>
</g>
<g filter="url(#filter9_d)">
<path d="M1134.18 404.711C1134.91 412.39 1137.91 419.678 1142.78 425.655C1147.66 431.631 1154.2 436.028 1161.57 438.288C1168.95 440.548 1176.83 440.571 1184.21 438.353C1191.6 436.135 1198.17 431.776 1203.08 425.828C1207.99 419.879 1211.02 412.608 1211.8 404.934C1212.58 397.26 1211.06 389.527 1207.45 382.714C1203.83 375.901 1198.28 370.314 1191.48 366.658C1184.69 363.002 1176.97 361.443 1169.29 362.177L1171.48 385.123C1174.62 384.823 1177.78 385.461 1180.56 386.956C1183.34 388.451 1185.61 390.736 1187.09 393.522C1188.57 396.308 1189.19 399.47 1188.87 402.609C1188.55 405.747 1187.31 408.721 1185.3 411.153C1183.29 413.586 1180.61 415.368 1177.59 416.275C1174.56 417.182 1171.34 417.173 1168.33 416.249C1165.31 415.325 1162.64 413.527 1160.64 411.083C1158.65 408.638 1157.42 405.658 1157.12 402.518L1134.18 404.711Z" fill="#240D85"/>
</g>
<g filter="url(#filter10_d)">
<path d="M717.367 9.74628C715.141 12.4426 713.765 15.7384 713.412 19.2169C713.06 22.6954 713.747 26.2003 715.386 29.2885C717.025 32.3767 719.543 34.9094 722.622 36.5664C725.701 38.2234 729.202 38.9302 732.682 38.5975C736.163 38.2648 739.466 36.9075 742.175 34.6972C744.884 32.4869 746.877 29.5229 747.902 26.1801C748.926 22.8372 748.936 19.2657 747.931 15.917C746.926 12.5683 744.95 9.59299 742.254 7.36721L735.602 15.4249C736.705 16.3352 737.513 17.5519 737.924 18.9213C738.335 20.2908 738.331 21.7514 737.912 23.1184C737.493 24.4854 736.678 25.6976 735.57 26.6014C734.462 27.5053 733.111 28.0604 731.688 28.1965C730.265 28.3325 728.833 28.0435 727.574 27.3659C726.315 26.6882 725.285 25.6525 724.615 24.3896C723.944 23.1267 723.663 21.6933 723.808 20.2708C723.952 18.8483 724.515 17.5005 725.425 16.3978L717.367 9.74628Z" fill="#240D85"/>
</g>
<g filter="url(#filter11_d)">
<path d="M45.2554 256.399C48.1032 254.371 50.2856 251.543 51.5265 248.275C52.7675 245.006 53.0113 241.443 52.2271 238.035C51.443 234.628 49.666 231.53 47.1211 229.133C44.5761 226.735 41.3774 225.146 37.9294 224.567C34.4814 223.988 30.9391 224.444 27.7503 225.877C24.5615 227.311 21.8695 229.658 20.0147 232.622C18.1599 235.586 17.2256 239.033 17.33 242.528C17.4343 246.023 18.5727 249.408 20.6011 252.256L29.1115 246.194C28.282 245.03 27.8164 243.645 27.7738 242.216C27.7311 240.787 28.1132 239.377 28.8717 238.165C29.6302 236.953 30.7311 235.993 32.0351 235.407C33.3392 234.821 34.7878 234.634 36.1978 234.871C37.6079 235.108 38.916 235.758 39.9568 236.738C40.9975 237.718 41.7242 238.985 42.0449 240.379C42.3655 241.772 42.2658 243.229 41.7583 244.566C41.2509 245.903 40.3584 247.059 39.1938 247.889L45.2554 256.399Z" fill="#240D85"/>
</g>
</g>
<defs>
<filter id="filter0_d" x="-28.1742" y="-25.0435" width="176.366" height="170.533" filterUnits="userSpaceOnUse" color-interpolation-filters="sRGB">
<feFlood flood-opacity="0" result="BackgroundImageFix"/>
<feColorMatrix in="SourceAlpha" type="matrix" values="0 0 0 0 0 0 0 0 0 0 0 0 0 0 0 0 0 0 127 0"/>
<feOffset dy="39.1304"/>
<feGaussianBlur stdDeviation="26.087"/>
<feColorMatrix type="matrix" values="0 0 0 0 0.0522222 0 0 0 0 0.0736667 0 0 0 0 0.266667 0 0 0 0.15 0"/>
<feBlend mode="normal" in2="BackgroundImageFix" result="effect1_dropShadow"/>
<feBlend mode="normal" in="SourceGraphic" in2="effect1_dropShadow" result="shape"/>
</filter>
<filter id="filter1_d" x="7.82658" y="365.957" width="175.887" height="175.887" filterUnits="userSpaceOnUse" color-interpolation-filters="sRGB">
<feFlood flood-opacity="0" result="BackgroundImageFix"/>
<feColorMatrix in="SourceAlpha" type="matrix" values="0 0 0 0 0 0 0 0 0 0 0 0 0 0 0 0 0 0 127 0"/>
<feOffset dy="39.1304"/>
<feGaussianBlur stdDeviation="26.087"/>
<feColorMatrix type="matrix" values="0 0 0 0 0.0522222 0 0 0 0 0.0736667 0 0 0 0 0.266667 0 0 0 0.15 0"/>
<feBlend mode="normal" in2="BackgroundImageFix" result="effect1_dropShadow"/>
<feBlend mode="normal" in="SourceGraphic" in2="effect1_dropShadow" result="shape"/>
</filter>
<filter id="filter2_d" x="1083.89" y="45.1481" width="167.064" height="167.642" filterUnits="userSpaceOnUse" color-interpolation-filters="sRGB">
<feFlood flood-opacity="0" result="BackgroundImageFix"/>
<feColorMatrix in="SourceAlpha" type="matrix" values="0 0 0 0 0 0 0 0 0 0 0 0 0 0 0 0 0 0 127 0"/>
<feOffset dy="39.1304"/>
<feGaussianBlur stdDeviation="26.087"/>
<feColorMatrix type="matrix" values="0 0 0 0 0.0522222 0 0 0 0 0.0736667 0 0 0 0 0.266667 0 0 0 0.15 0"/>
<feBlend mode="normal" in2="BackgroundImageFix" result="effect1_dropShadow"/>
<feBlend mode="normal" in="SourceGraphic" in2="effect1_dropShadow" result="shape"/>
</filter>
<filter id="filter3_d" x="596.827" y="340.956" width="152.636" height="148.725" filterUnits="userSpaceOnUse" color-interpolation-filters="sRGB">
<feFlood flood-opacity="0" result="BackgroundImageFix"/>
<feColorMatrix in="SourceAlpha" type="matrix" values="0 0 0 0 0 0 0 0 0 0 0 0 0 0 0 0 0 0 127 0"/>
<feOffset dy="39.1304"/>
<feGaussianBlur stdDeviation="26.087"/>
<feColorMatrix type="matrix" values="0 0 0 0 0.0522222 0 0 0 0 0.0736667 0 0 0 0 0.266667 0 0 0 0.15 0"/>
<feBlend mode="normal" in2="BackgroundImageFix" result="effect1_dropShadow"/>
<feBlend mode="normal" in="SourceGraphic" in2="effect1_dropShadow" result="shape"/>
</filter>
<filter id="filter4_d" x="267.671" y="33.514" width="132.207" height="131.521" filterUnits="userSpaceOnUse" color-interpolation-filters="sRGB">
<feFlood flood-opacity="0" result="BackgroundImageFix"/>
<feColorMatrix in="SourceAlpha" type="matrix" values="0 0 0 0 0 0 0 0 0 0 0 0 0 0 0 0 0 0 127 0"/>
<feOffset dy="39.1304"/>
<feGaussianBlur stdDeviation="26.087"/>
<feColorMatrix type="matrix" values="0 0 0 0 0.0522222 0 0 0 0 0.0736667 0 0 0 0 0.266667 0 0 0 0.15 0"/>
<feBlend mode="normal" in2="BackgroundImageFix" result="effect1_dropShadow"/>
<feBlend mode="normal" in="SourceGraphic" in2="effect1_dropShadow" result="shape"/>
</filter>
<filter id="filter5_d" x="859.671" y="33.514" width="132.207" height="131.521" filterUnits="userSpaceOnUse" color-interpolation-filters="sRGB">
<feFlood flood-opacity="0" result="BackgroundImageFix"/>
<feColorMatrix in="SourceAlpha" type="matrix" values="0 0 0 0 0 0 0 0 0 0 0 0 0 0 0 0 0 0 127 0"/>
<feOffset dy="39.1304"/>
<feGaussianBlur stdDeviation="26.087"/>
<feColorMatrix type="matrix" values="0 0 0 0 0.0522222 0 0 0 0 0.0736667 0 0 0 0 0.266667 0 0 0 0.15 0"/>
<feBlend mode="normal" in2="BackgroundImageFix" result="effect1_dropShadow"/>
<feBlend mode="normal" in="SourceGraphic" in2="effect1_dropShadow" result="shape"/>
</filter>
<filter id="filter6_d" x="347.523" y="409.279" width="132.447" height="131.479" filterUnits="userSpaceOnUse" color-interpolation-filters="sRGB">
<feFlood flood-opacity="0" result="BackgroundImageFix"/>
<feColorMatrix in="SourceAlpha" type="matrix" values="0 0 0 0 0 0 0 0 0 0 0 0 0 0 0 0 0 0 127 0"/>
<feOffset dy="39.1304"/>
<feGaussianBlur stdDeviation="26.087"/>
<feColorMatrix type="matrix" values="0 0 0 0 0.0522222 0 0 0 0 0.0736667 0 0 0 0 0.266667 0 0 0 0.15 0"/>
<feBlend mode="normal" in2="BackgroundImageFix" result="effect1_dropShadow"/>
<feBlend mode="normal" in="SourceGraphic" in2="effect1_dropShadow" result="shape"/>
</filter>
<filter id="filter7_d" x="870.869" y="396.821" width="131.403" height="131.393" filterUnits="userSpaceOnUse" color-interpolation-filters="sRGB">
<feFlood flood-opacity="0" result="BackgroundImageFix"/>
<feColorMatrix in="SourceAlpha" type="matrix" values="0 0 0 0 0 0 0 0 0 0 0 0 0 0 0 0 0 0 127 0"/>
<feOffset dy="39.1304"/>
<feGaussianBlur stdDeviation="26.087"/>
<feColorMatrix type="matrix" values="0 0 0 0 0.0522222 0 0 0 0 0.0736667 0 0 0 0 0.266667 0 0 0 0.15 0"/>
<feBlend mode="normal" in2="BackgroundImageFix" result="effect1_dropShadow"/>
<feBlend mode="normal" in="SourceGraphic" in2="effect1_dropShadow" result="shape"/>
</filter>
<filter id="filter8_d" x="491.826" y="49.9565" width="149.715" height="146.04" filterUnits="userSpaceOnUse" color-interpolation-filters="sRGB">
<feFlood flood-opacity="0" result="BackgroundImageFix"/>
<feColorMatrix in="SourceAlpha" type="matrix" values="0 0 0 0 0 0 0 0 0 0 0 0 0 0 0 0 0 0 127 0"/>
<feOffset dy="39.1304"/>
<feGaussianBlur stdDeviation="26.087"/>
<feColorMatrix type="matrix" values="0 0 0 0 0.0522222 0 0 0 0 0.0736667 0 0 0 0 0.266667 0 0 0 0.15 0"/>
<feBlend mode="normal" in2="BackgroundImageFix" result="effect1_dropShadow"/>
<feBlend mode="normal" in="SourceGraphic" in2="effect1_dropShadow" result="shape"/>
</filter>
<filter id="filter9_d" x="1082" y="348.957" width="182.171" height="182.348" filterUnits="userSpaceOnUse" color-interpolation-filters="sRGB">
<feFlood flood-opacity="0" result="BackgroundImageFix"/>
<feColorMatrix in="SourceAlpha" type="matrix" values="0 0 0 0 0 0 0 0 0 0 0 0 0 0 0 0 0 0 127 0"/>
<feOffset dy="39.1304"/>
<feGaussianBlur stdDeviation="26.087"/>
<feColorMatrix type="matrix" values="0 0 0 0 0.0522222 0 0 0 0 0.0736667 0 0 0 0 0.266667 0 0 0 0.15 0"/>
<feBlend mode="normal" in2="BackgroundImageFix" result="effect1_dropShadow"/>
<feBlend mode="normal" in="SourceGraphic" in2="effect1_dropShadow" result="shape"/>
</filter>
<filter id="filter10_d" x="653.883" y="-16.9867" width="154.291" height="154.291" filterUnits="userSpaceOnUse" color-interpolation-filters="sRGB">
<feFlood flood-opacity="0" result="BackgroundImageFix"/>
<feColorMatrix in="SourceAlpha" type="matrix" values="0 0 0 0 0 0 0 0 0 0 0 0 0 0 0 0 0 0 127 0"/>
<feOffset dy="39.1304"/>
<feGaussianBlur stdDeviation="26.087"/>
<feColorMatrix type="matrix" values="0 0 0 0 0.0522222 0 0 0 0 0.0736667 0 0 0 0 0.266667 0 0 0 0.15 0"/>
<feBlend mode="normal" in2="BackgroundImageFix" result="effect1_dropShadow"/>
<feBlend mode="normal" in="SourceGraphic" in2="effect1_dropShadow" result="shape"/>
</filter>
<filter id="filter11_d" x="-41.3223" y="204.809" width="152.604" height="152.575" filterUnits="userSpaceOnUse" color-interpolation-filters="sRGB">
<feFlood flood-opacity="0" result="BackgroundImageFix"/>
<feColorMatrix in="SourceAlpha" type="matrix" values="0 0 0 0 0 0 0 0 0 0 0 0 0 0 0 0 0 0 127 0"/>
<feOffset dy="39.1304"/>
<feGaussianBlur stdDeviation="26.087"/>
<feColorMatrix type="matrix" values="0 0 0 0 0.0522222 0 0 0 0 0.0736667 0 0 0 0 0.266667 0 0 0 0.15 0"/>
<feBlend mode="normal" in2="BackgroundImageFix" result="effect1_dropShadow"/>
<feBlend mode="normal" in="SourceGraphic" in2="effect1_dropShadow" result="shape"/>
</filter>
<clipPath id="clip0">
<rect width="1224" height="453" fill="white"/>
</clipPath>
</defs>
</svg>
