<svg width="1410" height="519" viewBox="0 0 1410 519" fill="none" xmlns="http://www.w3.org/2000/svg">
<g clip-path="url(#clip0)">
<g filter="url(#filter0_d)">
<rect x="84" y="38" width="1254" height="404" rx="26.087" fill="#F4F4FF"/>
</g>
<g filter="url(#filter1_d)">
<path fill-rule="evenodd" clip-rule="evenodd" d="M151.262 19.4152L189.909 36.4511C193.111 37.862 193.329 42.3062 190.284 44.0643L147.043 69.0298C143.998 70.7878 140.258 68.3763 140.637 64.8985L145.232 22.8939C145.547 20.004 148.601 18.2424 151.262 19.4152" fill="#240D85"/>
</g>
<g filter="url(#filter2_d)">
<path fill-rule="evenodd" clip-rule="evenodd" d="M210.065 420.418L203.612 462.158C203.078 465.616 198.842 466.977 196.356 464.491L161.049 429.184C158.563 426.698 159.924 422.462 163.382 421.928L205.144 415.494C208.017 415.051 210.509 417.544 210.065 420.418" fill="#240D85"/>
</g>
<g filter="url(#filter3_d)">
<path fill-rule="evenodd" clip-rule="evenodd" d="M1294.15 80.3068L1296.77 132.911C1296.99 137.268 1292.16 139.997 1288.5 137.586L1236.49 103.346C1232.83 100.935 1233.43 95.418 1237.51 93.8957L1286.9 75.5308C1290.3 74.2665 1293.97 76.685 1294.15 80.3068" fill="#240D85"/>
</g>
<g filter="url(#filter4_d)">
<path fill-rule="evenodd" clip-rule="evenodd" d="M779.728 383.009L782.792 411.161C783.046 413.493 780.539 415.11 778.497 413.931L749.504 397.192C747.462 396.013 747.609 393.034 749.755 392.088L775.686 380.674C777.47 379.888 779.517 381.071 779.728 383.009" fill="#240D85"/>
</g>
<g filter="url(#filter5_d)">
<path fill-rule="evenodd" clip-rule="evenodd" d="M443.234 65.6264L445.69 88.1935C445.894 90.0627 443.884 91.3588 442.247 90.4139L419.006 76.9957C417.37 76.0508 417.487 73.6622 419.208 72.9039L439.994 63.7546C441.424 63.1248 443.065 64.0726 443.234 65.6264" fill="#240D85"/>
</g>
<g filter="url(#filter6_d)">
<path fill-rule="evenodd" clip-rule="evenodd" d="M1035.23 65.6264L1037.69 88.1935C1037.89 90.0627 1035.88 91.3588 1034.25 90.4139L1011.01 76.9957C1009.37 76.0508 1009.49 73.6622 1011.21 72.9039L1031.99 63.7546C1033.42 63.1248 1035.06 64.0726 1035.23 65.6264" fill="#240D85"/>
</g>
<g filter="url(#filter7_d)">
<path fill-rule="evenodd" clip-rule="evenodd" d="M503.869 439.537L524.472 449.069C526.178 449.858 526.253 452.249 524.599 453.164L501.119 466.158C499.465 467.073 497.479 465.741 497.717 463.876L500.595 441.348C500.793 439.798 502.451 438.881 503.869 439.537" fill="#240D85"/>
</g>
<g filter="url(#filter8_d)">
<path fill-rule="evenodd" clip-rule="evenodd" d="M1048.07 429.539L1044.6 451.973C1044.32 453.831 1042.04 454.563 1040.7 453.226L1021.73 434.25C1020.39 432.914 1021.12 430.637 1022.98 430.35L1045.43 426.892C1046.97 426.654 1048.31 427.994 1048.07 429.539" fill="#240D85"/>
</g>
<g filter="url(#filter9_d)">
<path fill-rule="evenodd" clip-rule="evenodd" d="M660.433 89.0807L684.779 99.8122C686.795 100.701 686.933 103.501 685.015 104.608L657.775 120.335C655.857 121.442 653.502 119.923 653.74 117.732L656.635 91.272C656.833 89.4516 658.757 88.3419 660.433 89.0807" fill="#240D85"/>
</g>
<g filter="url(#filter10_d)">
<path d="M1232.18 421.711C1232.91 429.39 1235.91 436.678 1240.78 442.655C1245.66 448.631 1252.2 453.028 1259.57 455.288C1266.95 457.548 1274.83 457.571 1282.21 455.353C1289.6 453.135 1296.17 448.776 1301.08 442.828C1305.99 436.879 1309.02 429.608 1309.8 421.934C1310.58 414.26 1309.06 406.527 1305.45 399.714C1301.83 392.901 1296.28 387.314 1289.48 383.658C1282.69 380.002 1274.97 378.443 1267.29 379.177L1269.48 402.123C1272.62 401.823 1275.78 402.461 1278.56 403.956C1281.34 405.451 1283.61 407.736 1285.09 410.522C1286.57 413.308 1287.19 416.47 1286.87 419.609C1286.55 422.747 1285.31 425.721 1283.3 428.153C1281.29 430.586 1278.61 432.368 1275.59 433.275C1272.56 434.182 1269.34 434.173 1266.33 433.249C1263.31 432.325 1260.64 430.527 1258.64 428.083C1256.65 425.638 1255.42 422.658 1255.12 419.518L1232.18 421.711Z" fill="#240D85"/>
</g>
<g filter="url(#filter11_d)">
<path d="M815.367 26.7463C813.141 29.4426 811.765 32.7384 811.412 36.2169C811.06 39.6954 811.747 43.2003 813.386 46.2885C815.025 49.3767 817.543 51.9094 820.622 53.5664C823.701 55.2234 827.202 55.9302 830.682 55.5975C834.163 55.2648 837.466 53.9075 840.175 51.6972C842.884 49.4869 844.877 46.5229 845.902 43.1801C846.926 39.8372 846.936 36.2657 845.931 32.917C844.926 29.5683 842.95 26.593 840.254 24.3672L833.602 32.4249C834.705 33.3352 835.513 34.5519 835.924 35.9213C836.335 37.2908 836.331 38.7514 835.912 40.1184C835.493 41.4854 834.678 42.6976 833.57 43.6014C832.462 44.5053 831.111 45.0604 829.688 45.1965C828.265 45.3325 826.833 45.0435 825.574 44.3659C824.315 43.6882 823.285 42.6525 822.615 41.3896C821.944 40.1267 821.663 38.6933 821.808 37.2708C821.952 35.8483 822.515 34.5005 823.425 33.3978L815.367 26.7463Z" fill="#240D85"/>
</g>
<g filter="url(#filter12_d)">
<path d="M143.255 273.399C146.103 271.371 148.286 268.543 149.527 265.275C150.767 262.006 151.011 258.443 150.227 255.035C149.443 251.628 147.666 248.53 145.121 246.133C142.576 243.735 139.377 242.146 135.929 241.567C132.481 240.988 128.939 241.444 125.75 242.877C122.561 244.311 119.869 246.658 118.015 249.622C116.16 252.586 115.226 256.033 115.33 259.528C115.434 263.023 116.573 266.408 118.601 269.256L127.111 263.194C126.282 262.03 125.816 260.645 125.774 259.216C125.731 257.787 126.113 256.377 126.872 255.165C127.63 253.953 128.731 252.993 130.035 252.407C131.339 251.821 132.788 251.634 134.198 251.871C135.608 252.108 136.916 252.758 137.957 253.738C138.998 254.718 139.724 255.985 140.045 257.379C140.366 258.772 140.266 260.229 139.758 261.566C139.251 262.903 138.358 264.059 137.194 264.889L143.255 273.399Z" fill="#240D85"/>
</g>
</g>
<defs>
<filter id="filter0_d" x="31.8261" y="24.9565" width="1358.35" height="508.348" filterUnits="userSpaceOnUse" color-interpolation-filters="sRGB">
<feFlood flood-opacity="0" result="BackgroundImageFix"/>
<feColorMatrix in="SourceAlpha" type="matrix" values="0 0 0 0 0 0 0 0 0 0 0 0 0 0 0 0 0 0 127 0"/>
<feOffset dy="39.1304"/>
<feGaussianBlur stdDeviation="26.087"/>
<feColorMatrix type="matrix" values="0 0 0 0 0.0522222 0 0 0 0 0.0736667 0 0 0 0 0.266667 0 0 0 0.15 0"/>
<feBlend mode="normal" in2="BackgroundImageFix" result="effect1_dropShadow"/>
<feBlend mode="normal" in="SourceGraphic" in2="effect1_dropShadow" result="shape"/>
</filter>
<filter id="filter1_d" x="88.4367" y="6.00425" width="156.182" height="154.919" filterUnits="userSpaceOnUse" color-interpolation-filters="sRGB">
<feFlood flood-opacity="0" result="BackgroundImageFix"/>
<feColorMatrix in="SourceAlpha" type="matrix" values="0 0 0 0 0 0 0 0 0 0 0 0 0 0 0 0 0 0 127 0"/>
<feOffset dy="39.1304"/>
<feGaussianBlur stdDeviation="26.087"/>
<feColorMatrix type="matrix" values="0 0 0 0 0.0522222 0 0 0 0 0.0736667 0 0 0 0 0.266667 0 0 0 0.15 0"/>
<feBlend mode="normal" in2="BackgroundImageFix" result="effect1_dropShadow"/>
<feBlend mode="normal" in="SourceGraphic" in2="effect1_dropShadow" result="shape"/>
</filter>
<filter id="filter2_d" x="107.604" y="402.4" width="154.687" height="154.667" filterUnits="userSpaceOnUse" color-interpolation-filters="sRGB">
<feFlood flood-opacity="0" result="BackgroundImageFix"/>
<feColorMatrix in="SourceAlpha" type="matrix" values="0 0 0 0 0 0 0 0 0 0 0 0 0 0 0 0 0 0 127 0"/>
<feOffset dy="39.1304"/>
<feGaussianBlur stdDeviation="26.087"/>
<feColorMatrix type="matrix" values="0 0 0 0 0.0522222 0 0 0 0 0.0736667 0 0 0 0 0.266667 0 0 0 0.15 0"/>
<feBlend mode="normal" in2="BackgroundImageFix" result="effect1_dropShadow"/>
<feBlend mode="normal" in="SourceGraphic" in2="effect1_dropShadow" result="shape"/>
</filter>
<filter id="filter3_d" x="1181.89" y="62.1481" width="167.064" height="167.642" filterUnits="userSpaceOnUse" color-interpolation-filters="sRGB">
<feFlood flood-opacity="0" result="BackgroundImageFix"/>
<feColorMatrix in="SourceAlpha" type="matrix" values="0 0 0 0 0 0 0 0 0 0 0 0 0 0 0 0 0 0 127 0"/>
<feOffset dy="39.1304"/>
<feGaussianBlur stdDeviation="26.087"/>
<feColorMatrix type="matrix" values="0 0 0 0 0.0522222 0 0 0 0 0.0736667 0 0 0 0 0.266667 0 0 0 0.15 0"/>
<feBlend mode="normal" in2="BackgroundImageFix" result="effect1_dropShadow"/>
<feBlend mode="normal" in="SourceGraphic" in2="effect1_dropShadow" result="shape"/>
</filter>
<filter id="filter4_d" x="695.882" y="367.385" width="139.102" height="138.246" filterUnits="userSpaceOnUse" color-interpolation-filters="sRGB">
<feFlood flood-opacity="0" result="BackgroundImageFix"/>
<feColorMatrix in="SourceAlpha" type="matrix" values="0 0 0 0 0 0 0 0 0 0 0 0 0 0 0 0 0 0 127 0"/>
<feOffset dy="39.1304"/>
<feGaussianBlur stdDeviation="26.087"/>
<feColorMatrix type="matrix" values="0 0 0 0 0.0522222 0 0 0 0 0.0736667 0 0 0 0 0.266667 0 0 0 0.15 0"/>
<feBlend mode="normal" in2="BackgroundImageFix" result="effect1_dropShadow"/>
<feBlend mode="normal" in="SourceGraphic" in2="effect1_dropShadow" result="shape"/>
</filter>
<filter id="filter5_d" x="365.671" y="50.514" width="132.207" height="131.521" filterUnits="userSpaceOnUse" color-interpolation-filters="sRGB">
<feFlood flood-opacity="0" result="BackgroundImageFix"/>
<feColorMatrix in="SourceAlpha" type="matrix" values="0 0 0 0 0 0 0 0 0 0 0 0 0 0 0 0 0 0 127 0"/>
<feOffset dy="39.1304"/>
<feGaussianBlur stdDeviation="26.087"/>
<feColorMatrix type="matrix" values="0 0 0 0 0.0522222 0 0 0 0 0.0736667 0 0 0 0 0.266667 0 0 0 0.15 0"/>
<feBlend mode="normal" in2="BackgroundImageFix" result="effect1_dropShadow"/>
<feBlend mode="normal" in="SourceGraphic" in2="effect1_dropShadow" result="shape"/>
</filter>
<filter id="filter6_d" x="957.671" y="50.514" width="132.207" height="131.521" filterUnits="userSpaceOnUse" color-interpolation-filters="sRGB">
<feFlood flood-opacity="0" result="BackgroundImageFix"/>
<feColorMatrix in="SourceAlpha" type="matrix" values="0 0 0 0 0 0 0 0 0 0 0 0 0 0 0 0 0 0 127 0"/>
<feOffset dy="39.1304"/>
<feGaussianBlur stdDeviation="26.087"/>
<feColorMatrix type="matrix" values="0 0 0 0 0.0522222 0 0 0 0 0.0736667 0 0 0 0 0.266667 0 0 0 0.15 0"/>
<feBlend mode="normal" in2="BackgroundImageFix" result="effect1_dropShadow"/>
<feBlend mode="normal" in="SourceGraphic" in2="effect1_dropShadow" result="shape"/>
</filter>
<filter id="filter7_d" x="445.523" y="426.279" width="132.447" height="131.479" filterUnits="userSpaceOnUse" color-interpolation-filters="sRGB">
<feFlood flood-opacity="0" result="BackgroundImageFix"/>
<feColorMatrix in="SourceAlpha" type="matrix" values="0 0 0 0 0 0 0 0 0 0 0 0 0 0 0 0 0 0 127 0"/>
<feOffset dy="39.1304"/>
<feGaussianBlur stdDeviation="26.087"/>
<feColorMatrix type="matrix" values="0 0 0 0 0.0522222 0 0 0 0 0.0736667 0 0 0 0 0.266667 0 0 0 0.15 0"/>
<feBlend mode="normal" in2="BackgroundImageFix" result="effect1_dropShadow"/>
<feBlend mode="normal" in="SourceGraphic" in2="effect1_dropShadow" result="shape"/>
</filter>
<filter id="filter8_d" x="968.869" y="413.821" width="131.403" height="131.393" filterUnits="userSpaceOnUse" color-interpolation-filters="sRGB">
<feFlood flood-opacity="0" result="BackgroundImageFix"/>
<feColorMatrix in="SourceAlpha" type="matrix" values="0 0 0 0 0 0 0 0 0 0 0 0 0 0 0 0 0 0 127 0"/>
<feOffset dy="39.1304"/>
<feGaussianBlur stdDeviation="26.087"/>
<feColorMatrix type="matrix" values="0 0 0 0 0.0522222 0 0 0 0 0.0736667 0 0 0 0 0.266667 0 0 0 0.15 0"/>
<feBlend mode="normal" in2="BackgroundImageFix" result="effect1_dropShadow"/>
<feBlend mode="normal" in="SourceGraphic" in2="effect1_dropShadow" result="shape"/>
</filter>
<filter id="filter9_d" x="601.549" y="75.8056" width="137" height="136.204" filterUnits="userSpaceOnUse" color-interpolation-filters="sRGB">
<feFlood flood-opacity="0" result="BackgroundImageFix"/>
<feColorMatrix in="SourceAlpha" type="matrix" values="0 0 0 0 0 0 0 0 0 0 0 0 0 0 0 0 0 0 127 0"/>
<feOffset dy="39.1304"/>
<feGaussianBlur stdDeviation="26.087"/>
<feColorMatrix type="matrix" values="0 0 0 0 0.0522222 0 0 0 0 0.0736667 0 0 0 0 0.266667 0 0 0 0.15 0"/>
<feBlend mode="normal" in2="BackgroundImageFix" result="effect1_dropShadow"/>
<feBlend mode="normal" in="SourceGraphic" in2="effect1_dropShadow" result="shape"/>
</filter>
<filter id="filter10_d" x="1180" y="365.957" width="182.171" height="182.348" filterUnits="userSpaceOnUse" color-interpolation-filters="sRGB">
<feFlood flood-opacity="0" result="BackgroundImageFix"/>
<feColorMatrix in="SourceAlpha" type="matrix" values="0 0 0 0 0 0 0 0 0 0 0 0 0 0 0 0 0 0 127 0"/>
<feOffset dy="39.1304"/>
<feGaussianBlur stdDeviation="26.087"/>
<feColorMatrix type="matrix" values="0 0 0 0 0.0522222 0 0 0 0 0.0736667 0 0 0 0 0.266667 0 0 0 0.15 0"/>
<feBlend mode="normal" in2="BackgroundImageFix" result="effect1_dropShadow"/>
<feBlend mode="normal" in="SourceGraphic" in2="effect1_dropShadow" result="shape"/>
</filter>
<filter id="filter11_d" x="751.883" y="0.0132256" width="154.291" height="154.291" filterUnits="userSpaceOnUse" color-interpolation-filters="sRGB">
<feFlood flood-opacity="0" result="BackgroundImageFix"/>
<feColorMatrix in="SourceAlpha" type="matrix" values="0 0 0 0 0 0 0 0 0 0 0 0 0 0 0 0 0 0 127 0"/>
<feOffset dy="39.1304"/>
<feGaussianBlur stdDeviation="26.087"/>
<feColorMatrix type="matrix" values="0 0 0 0 0.0522222 0 0 0 0 0.0736667 0 0 0 0 0.266667 0 0 0 0.15 0"/>
<feBlend mode="normal" in2="BackgroundImageFix" result="effect1_dropShadow"/>
<feBlend mode="normal" in="SourceGraphic" in2="effect1_dropShadow" result="shape"/>
</filter>
<filter id="filter12_d" x="56.6777" y="221.809" width="152.604" height="152.575" filterUnits="userSpaceOnUse" color-interpolation-filters="sRGB">
<feFlood flood-opacity="0" result="BackgroundImageFix"/>
<feColorMatrix in="SourceAlpha" type="matrix" values="0 0 0 0 0 0 0 0 0 0 0 0 0 0 0 0 0 0 127 0"/>
<feOffset dy="39.1304"/>
<feGaussianBlur stdDeviation="26.087"/>
<feColorMatrix type="matrix" values="0 0 0 0 0.0522222 0 0 0 0 0.0736667 0 0 0 0 0.266667 0 0 0 0.15 0"/>
<feBlend mode="normal" in2="BackgroundImageFix" result="effect1_dropShadow"/>
<feBlend mode="normal" in="SourceGraphic" in2="effect1_dropShadow" result="shape"/>
</filter>
<clipPath id="clip0">
<rect width="1410" height="519" fill="white"/>
</clipPath>
</defs>
</svg>
