<svg width="108" height="112" viewBox="0 0 108 112" fill="none" xmlns="http://www.w3.org/2000/svg">
<g filter="url(#filter0_d)">
<path d="M85.0001 60.7898V21.6579C85.0001 16.8537 81.1056 12.9592 76.3014 12.9592C71.4973 12.9592 67.6028 16.8537 67.6028 21.6579V60.7898C67.6028 65.5939 71.4973 69.4884 76.3014 69.4884C81.1056 69.4884 85.0001 65.5939 85.0001 60.7898Z" fill="#00064A"/>
<path d="M62.7088 60.7898V40.7595C62.7088 35.9554 58.8143 32.0609 54.0102 32.0609C49.2061 32.0609 45.3116 35.9554 45.3116 40.7595V60.7898C45.3116 65.5939 49.2061 69.4884 54.0102 69.4884C58.8143 69.4884 62.7088 65.5939 62.7088 60.7898Z" fill="#00064A"/>
<path d="M40.3974 60.7899V52.0193C40.3974 47.2152 36.5029 43.3207 31.6988 43.3207C26.8946 43.3207 23.0001 47.2152 23.0001 52.0193V60.7899C23.0001 65.594 26.8946 69.4885 31.6988 69.4885C36.5029 69.4885 40.3974 65.594 40.3974 60.7899Z" fill="#00064A"/>
</g>
<path d="M27.7362 33.9044L69.0694 3.33508" stroke="#00064A" stroke-width="5" stroke-linecap="round"/>
<defs>
<filter id="filter0_d" x="0.830122" y="10.9192" width="106.34" height="100.869" filterUnits="userSpaceOnUse" color-interpolation-filters="sRGB">
<feFlood flood-opacity="0" result="BackgroundImageFix"/>
<feColorMatrix in="SourceAlpha" type="matrix" values="0 0 0 0 0 0 0 0 0 0 0 0 0 0 0 0 0 0 127 0"/>
<feOffset dy="20.13"/>
<feGaussianBlur stdDeviation="11.085"/>
<feColorMatrix type="matrix" values="0 0 0 0 0.0522222 0 0 0 0 0.0736667 0 0 0 0 0.266667 0 0 0 0.15 0"/>
<feBlend mode="normal" in2="BackgroundImageFix" result="effect1_dropShadow"/>
<feBlend mode="normal" in="SourceGraphic" in2="effect1_dropShadow" result="shape"/>
</filter>
</defs>
</svg>
