<svg width="62" height="70" viewBox="0 0 62 70" fill="none" xmlns="http://www.w3.org/2000/svg">
<path d="M62.0001 60.7898V21.6579C62.0001 16.8537 58.1056 12.9592 53.3014 12.9592C48.4973 12.9592 44.6028 16.8537 44.6028 21.6579V60.7898C44.6028 65.5939 48.4973 69.4884 53.3014 69.4884C58.1056 69.4884 62.0001 65.5939 62.0001 60.7898Z" fill="#00064A"/>
<path d="M39.7088 60.7898V40.7595C39.7088 35.9554 35.8143 32.0609 31.0102 32.0609C26.2061 32.0609 22.3116 35.9554 22.3116 40.7595V60.7898C22.3116 65.5939 26.2061 69.4884 31.0102 69.4884C35.8143 69.4884 39.7088 65.5939 39.7088 60.7898Z" fill="#00064A"/>
<path d="M17.3974 60.7899V52.0193C17.3974 47.2152 13.5029 43.3207 8.69875 43.3207C3.89463 43.3207 0.00012207 47.2152 0.00012207 52.0193V60.7899C0.00012207 65.594 3.89463 69.4885 8.69875 69.4885C13.5029 69.4885 17.3974 65.594 17.3974 60.7899Z" fill="#00064A"/>
<path d="M4.73622 33.9044L46.0694 3.33508" stroke="#00064A" stroke-width="5" stroke-linecap="round"/>
</svg>
