<svg width="165" height="180" viewBox="0 0 165 180" fill="none" xmlns="http://www.w3.org/2000/svg">
<g filter="url(#filter0_d)">
<path d="M93.8474 38.6562V33.2485C93.8474 30.3384 92.6903 27.5476 90.6306 25.4899C88.571 23.4322 85.7775 22.2762 82.8648 22.2762H82.1509C79.2381 22.2762 76.4447 23.4322 74.3851 25.4899C72.3254 27.5476 71.1683 30.3384 71.1683 33.2485V38.6562C68.4018 38.8757 65.6404 39.1709 62.8843 39.5418V33.272C62.8864 28.1681 64.914 23.2734 68.5227 19.6608C72.1314 16.0481 77.0266 14.0124 82.1352 14H82.8491C87.9564 14.0104 92.8512 16.043 96.4612 19.6524C100.071 23.2619 102.102 28.1538 102.108 33.2563V39.5262C99.3726 39.1656 96.6192 38.8757 93.8474 38.6562ZM56.891 47.2773C73.811 44.0793 91.1812 44.0793 108.101 47.2773L108.486 47.3478C109.474 47.5342 110.367 48.0601 111.009 48.8343C111.65 49.6086 112.001 50.5825 112 51.5878V81.0561C112.001 82.0614 111.65 83.0354 111.009 83.8096C110.367 84.5839 109.474 85.1097 108.486 85.2961L105.865 85.7899C98.1617 87.2533 90.3378 87.9932 82.4961 88C74.6577 88.0005 66.8364 87.2684 59.1346 85.8134L56.5144 85.3196C55.5257 85.1332 54.6332 84.6074 53.9915 83.8331C53.3497 83.0589 52.999 82.0849 53 81.0796V51.6113C52.999 50.6061 53.3497 49.6321 53.9915 48.8578C54.6332 48.0836 55.5257 47.5577 56.5144 47.3713L56.891 47.2773ZM70.729 66.7844L78.2599 75.4838C78.441 75.6876 78.6633 75.8508 78.9121 75.9626C79.1609 76.0743 79.4306 76.1321 79.7034 76.1321C79.9762 76.1321 80.2458 76.0743 80.4947 75.9626C80.7435 75.8508 80.9657 75.6876 81.1468 75.4838L93.3688 62.129C93.7038 61.7622 93.8843 61.2805 93.8726 60.7841C93.8609 60.2877 93.658 59.8149 93.3061 59.4643L91.1252 57.3247C90.7774 56.9778 90.3102 56.7765 89.819 56.7619C89.3277 56.7474 88.8494 56.9206 88.4816 57.2463L79.6406 65.1072L75.5221 61.886C75.1505 61.5951 74.6849 61.4503 74.2137 61.4792C73.7424 61.5081 73.298 61.7086 72.9648 62.0428L70.8232 64.1902C70.4886 64.5342 70.2938 64.9899 70.2764 65.4692C70.259 65.9485 70.4203 66.4171 70.729 66.7844Z" fill="#00064A"/>
</g>
<defs>
<filter id="filter0_d" x="0.826092" y="0.956524" width="163.348" height="178.348" filterUnits="userSpaceOnUse" color-interpolation-filters="sRGB">
<feFlood flood-opacity="0" result="BackgroundImageFix"/>
<feColorMatrix in="SourceAlpha" type="matrix" values="0 0 0 0 0 0 0 0 0 0 0 0 0 0 0 0 0 0 127 0"/>
<feOffset dy="39.1304"/>
<feGaussianBlur stdDeviation="26.087"/>
<feColorMatrix type="matrix" values="0 0 0 0 0.0522222 0 0 0 0 0.0736667 0 0 0 0 0.266667 0 0 0 0.15 0"/>
<feBlend mode="normal" in2="BackgroundImageFix" result="effect1_dropShadow"/>
<feBlend mode="normal" in="SourceGraphic" in2="effect1_dropShadow" result="shape"/>
</filter>
</defs>
</svg>
