<svg width="59" height="74" viewBox="0 0 59 74" fill="none" xmlns="http://www.w3.org/2000/svg">
<path d="M40.8474 24.6562V19.2485C40.8474 16.3384 39.6903 13.5476 37.6306 11.4899C35.571 9.43221 32.7775 8.27621 29.8648 8.27621H29.1509C26.2381 8.27621 23.4447 9.43221 21.3851 11.4899C19.3254 13.5476 18.1683 16.3384 18.1683 19.2485V24.6562C15.4018 24.8757 12.6404 25.1709 9.88433 25.5418V19.272C9.88639 14.1681 11.914 9.27337 15.5227 5.66075C19.1314 2.04813 24.0266 0.012448 29.1352 0H29.8491C34.9564 0.0103671 39.8512 2.04298 43.4612 5.65244C47.0711 9.2619 49.1016 14.1538 49.1078 19.2563V25.5262C46.3726 25.1656 43.6192 24.8757 40.8474 24.6562ZM3.89097 33.2773C20.811 30.0793 38.1812 30.0793 55.1012 33.2773L55.4856 33.3478C56.4743 33.5342 57.3668 34.0601 58.0085 34.8343C58.6503 35.6086 59.001 36.5825 59 37.5878V67.0561C59.001 68.0614 58.6503 69.0354 58.0085 69.8096C57.3668 70.5839 56.4743 71.1097 55.4856 71.2961L52.8654 71.7899C45.1617 73.2533 37.3378 73.9932 29.4961 74C21.6577 74.0005 13.8364 73.2684 6.13456 71.8134L3.51443 71.3196C2.52568 71.1332 1.63324 70.6074 0.991486 69.8331C0.349729 69.0589 -0.000987441 68.0849 2.08821e-06 67.0796V37.6113C-0.000987441 36.6061 0.349729 35.6321 0.991486 34.8578C1.63324 34.0836 2.52568 33.5577 3.51443 33.3713L3.89097 33.2773ZM17.729 52.7844L25.2599 61.4838C25.441 61.6876 25.6633 61.8508 25.9121 61.9626C26.1609 62.0743 26.4306 62.1321 26.7034 62.1321C26.9762 62.1321 27.2458 62.0743 27.4947 61.9626C27.7435 61.8508 27.9657 61.6876 28.1468 61.4838L40.3688 48.129C40.7038 47.7622 40.8843 47.2805 40.8726 46.7841C40.8609 46.2877 40.658 45.8149 40.3061 45.4643L38.1252 43.3247C37.7774 42.9778 37.3102 42.7765 36.819 42.7619C36.3277 42.7474 35.8494 42.9206 35.4816 43.2463L26.6406 51.1072L22.5221 47.886C22.1505 47.5951 21.6849 47.4503 21.2137 47.4792C20.7424 47.5081 20.298 47.7086 19.9648 48.0428L17.8232 50.1902C17.4886 50.5342 17.2938 50.9899 17.2764 51.4692C17.259 51.9485 17.4203 52.4171 17.729 52.7844V52.7844Z" fill="#00064A"/>
</svg>
