<svg width="80" height="80" viewBox="0 0 80 80" fill="none" xmlns="http://www.w3.org/2000/svg">
<path d="M78.8387 32.926L71.871 31.3826C71.0968 28.5531 69.9355 25.7235 68.5161 23.1511L72.3871 17.2347C72.7742 16.7203 72.6452 16.0772 72.2581 15.5627L72.129 15.4341C67.4839 10.9325 65.4194 8.8746 64.5161 7.97428C64.5161 7.84566 64.3871 7.71704 64.2581 7.58842H64.129C63.6129 7.20257 63.4839 7.20257 63.2258 7.20257C62.8387 7.20257 62.5806 7.33119 62.3226 7.58842L56.5161 11.3183C53.9355 9.77492 51.2258 8.61736 48.2581 7.97428L46.7097 1.02894C46.5806 0.385852 46.0645 0 45.4194 0H34.1935C33.5484 0 33.0323 0.385852 32.9032 1.02894L31.3548 7.97428C28.5161 8.74598 25.6774 9.90354 23.0968 11.3183L17.1613 7.45981C16.6452 7.07395 16 7.20257 15.6129 7.58842L7.6129 15.5627C7.22581 15.9486 7.09677 16.5916 7.48387 17.2347L11.3548 23.2797C9.80645 25.8521 8.64516 28.5531 8 31.5113L1.03226 33.0547C0.387097 33.1833 0 33.6977 0 34.3408V45.5305C0 46.1736 0.387097 46.6881 1.03226 46.8167L8 48.3601C8.77419 51.1897 9.93548 54.0193 11.3548 56.5916L7.48387 62.6367C7.09677 63.1511 7.22581 63.7942 7.6129 64.3087C7.74194 64.3087 9.54839 66.2379 11.4839 68.1672C13.4194 70.0965 15.3548 72.0257 15.6129 72.283C15.7419 72.4116 15.871 72.5402 16 72.5402C16.5161 72.7974 17.1613 72.6688 17.5484 72.283L23.2258 68.6817C25.8065 70.2251 28.5161 71.254 31.4839 72.0257L33.0323 78.9711C33.1613 79.6141 33.6774 80 34.3226 80H45.5484C46.1935 80 46.7097 79.6141 46.8387 78.9711L48.3871 72.0257C51.3548 71.254 54.0645 70.0965 56.6452 68.6817L62.7097 72.5402C63.2258 72.926 63.871 72.7974 64.3871 72.4116C64.5161 72.283 71.871 64.9518 72.3871 64.5659C72.7742 64.1801 72.9032 63.6656 72.6452 63.1511C72.6452 63.0225 72.5161 62.8939 72.3871 62.7653L68.6452 56.9775C70.1935 54.4051 71.2258 51.7042 72 48.746L78.9677 47.2026C79.6129 47.074 80 46.5595 80 45.9164V34.7267C79.871 33.5691 79.4839 33.0547 78.8387 32.926ZM50.5806 57.1061V48.746C52.129 48.2315 53.1613 46.8167 53.1613 45.2733C53.1613 43.2154 51.4839 41.5434 49.4194 41.5434C47.3548 41.5434 45.6774 43.2154 45.6774 45.2733C45.6774 46.8167 46.5806 48.1029 47.871 48.6174C47.871 58.3923 47.7419 58.0064 48 58.3923C45.9355 59.2926 43.6129 59.9357 41.1613 60.0643V52.4759C41.1613 52.09 41.0323 51.7042 40.6452 51.4469L36.6452 48.4887V45.9164C38.0645 45.4019 39.2258 43.9871 39.2258 42.4437C39.2258 40.3859 37.5484 38.7138 35.4839 38.7138C33.4194 38.7138 31.7419 40.3859 31.7419 42.4437C31.7419 43.9871 32.6452 45.2733 33.9355 45.7878V49.1318C33.9355 49.5177 34.0645 49.9035 34.4516 50.1608L38.3226 53.119V60.0643C33.1613 59.8071 28.6452 57.6206 25.1613 54.1479C21.4194 50.418 19.2258 45.2733 19.2258 39.7428C19.2258 39.2283 19.2258 38.8424 19.3548 38.328H19.4839H24.6452C25.1613 39.7428 26.5806 40.6431 28.129 40.6431C30.1935 40.6431 31.871 38.9711 31.871 36.9132C31.871 34.8553 30.4516 33.3119 28.3871 33.3119C26.8387 33.3119 25.4194 34.3408 24.9032 35.7556H19.871C21.6774 26.2379 30.0645 19.2926 39.871 19.2926C42.0645 19.2926 44.2581 19.6785 46.1935 20.3215C46.1935 20.4502 46.0645 20.5788 46.0645 20.7074V28.8103H40.5161C40 27.3955 38.5806 26.3666 37.0323 26.3666C34.9677 26.3666 33.2903 28.0386 33.2903 30.0965C33.2903 32.1543 34.9677 33.8264 37.0323 33.8264C38.5806 33.8264 39.871 32.7974 40.5161 31.5113H47.4839C48.129 31.5113 48.7742 30.8682 48.7742 30.2251V21.4791C50.8387 22.508 52.7742 23.7942 54.3226 25.3376C57.1613 28.1672 59.0968 31.7685 59.871 35.7556H52.129C51.7419 34.3408 50.3226 33.3119 48.7742 33.3119C46.7097 33.3119 45.0323 34.9839 45.0323 37.0418C45.0323 39.0997 46.7097 40.7717 48.7742 40.7717C50.3226 40.7717 51.6129 39.7428 52.2581 38.4566C55.4839 38.4566 60 38.4566 60.3871 38.4566C60.9032 46.3022 56.9032 53.3762 50.5806 57.1061Z" fill="#00064A"/>
</svg>
