<svg width="186" height="186" viewBox="0 0 186 186" fill="none" xmlns="http://www.w3.org/2000/svg">
<g filter="url(#filter0_d)">
<path d="M131.839 46.926L124.871 45.3826C124.097 42.5531 122.935 39.7235 121.516 37.1511L125.387 31.2347C125.774 30.7203 125.645 30.0772 125.258 29.5627L125.129 29.4341C120.484 24.9325 118.419 22.8746 117.516 21.9743C117.516 21.8457 117.387 21.717 117.258 21.5884H117.129C116.613 21.2026 116.484 21.2026 116.226 21.2026C115.839 21.2026 115.581 21.3312 115.323 21.5884L109.516 25.3183C106.935 23.7749 104.226 22.6174 101.258 21.9743L99.7097 15.0289C99.5806 14.3859 99.0645 14 98.4194 14H87.1935C86.5484 14 86.0323 14.3859 85.9032 15.0289L84.3548 21.9743C81.5161 22.746 78.6774 23.9035 76.0968 25.3183L70.1613 21.4598C69.6452 21.074 69 21.2026 68.6129 21.5884L60.6129 29.5627C60.2258 29.9486 60.0968 30.5916 60.4839 31.2347L64.3548 37.2797C62.8065 39.8521 61.6452 42.5531 61 45.5113L54.0323 47.0547C53.3871 47.1833 53 47.6977 53 48.3408V59.5305C53 60.1736 53.3871 60.6881 54.0323 60.8167L61 62.3601C61.7742 65.1897 62.9355 68.0193 64.3548 70.5916L60.4839 76.6367C60.0968 77.1511 60.2258 77.7942 60.6129 78.3087C60.7419 78.3087 62.5484 80.2379 64.4839 82.1672C66.4194 84.0965 68.3548 86.0257 68.6129 86.283C68.7419 86.4116 68.871 86.5402 69 86.5402C69.5161 86.7974 70.1613 86.6688 70.5484 86.283L76.2258 82.6817C78.8065 84.2251 81.5161 85.254 84.4839 86.0257L86.0323 92.9711C86.1613 93.6141 86.6774 94 87.3226 94H98.5484C99.1935 94 99.7097 93.6141 99.8387 92.9711L101.387 86.0257C104.355 85.254 107.065 84.0965 109.645 82.6817L115.71 86.5402C116.226 86.926 116.871 86.7974 117.387 86.4116C117.516 86.283 124.871 78.9518 125.387 78.5659C125.774 78.1801 125.903 77.6656 125.645 77.1511C125.645 77.0225 125.516 76.8939 125.387 76.7653L121.645 70.9775C123.194 68.4051 124.226 65.7042 125 62.746L131.968 61.2026C132.613 61.074 133 60.5595 133 59.9164V48.7267C132.871 47.5691 132.484 47.0547 131.839 46.926ZM103.581 71.1061V62.746C105.129 62.2315 106.161 60.8167 106.161 59.2733C106.161 57.2154 104.484 55.5434 102.419 55.5434C100.355 55.5434 98.6774 57.2154 98.6774 59.2733C98.6774 60.8167 99.5806 62.1029 100.871 62.6174C100.871 72.3923 100.742 72.0064 101 72.3923C98.9355 73.2926 96.6129 73.9357 94.1613 74.0643V66.4759C94.1613 66.09 94.0323 65.7042 93.6452 65.4469L89.6452 62.4887V59.9164C91.0645 59.4019 92.2258 57.9871 92.2258 56.4437C92.2258 54.3859 90.5484 52.7138 88.4839 52.7138C86.4194 52.7138 84.7419 54.3859 84.7419 56.4437C84.7419 57.9871 85.6452 59.2733 86.9355 59.7878V63.1318C86.9355 63.5177 87.0645 63.9035 87.4516 64.1608L91.3226 67.119V74.0643C86.1613 73.8071 81.6452 71.6206 78.1613 68.1479C74.4194 64.418 72.2258 59.2733 72.2258 53.7428C72.2258 53.2283 72.2258 52.8424 72.3548 52.328H72.4839H77.6452C78.1613 53.7428 79.5806 54.6431 81.129 54.6431C83.1935 54.6431 84.871 52.9711 84.871 50.9132C84.871 48.8553 83.4516 47.3119 81.3871 47.3119C79.8387 47.3119 78.4194 48.3408 77.9032 49.7556H72.871C74.6774 40.2379 83.0645 33.2926 92.871 33.2926C95.0645 33.2926 97.2581 33.6785 99.1935 34.3215C99.1935 34.4502 99.0645 34.5788 99.0645 34.7074V42.8103H93.5161C93 41.3955 91.5806 40.3666 90.0323 40.3666C87.9677 40.3666 86.2903 42.0386 86.2903 44.0965C86.2903 46.1543 87.9677 47.8264 90.0323 47.8264C91.5806 47.8264 92.871 46.7974 93.5161 45.5113H100.484C101.129 45.5113 101.774 44.8682 101.774 44.2251V35.4791C103.839 36.508 105.774 37.7942 107.323 39.3376C110.161 42.1672 112.097 45.7685 112.871 49.7556H105.129C104.742 48.3408 103.323 47.3119 101.774 47.3119C99.7097 47.3119 98.0323 48.9839 98.0323 51.0418C98.0323 53.0997 99.7097 54.7717 101.774 54.7717C103.323 54.7717 104.613 53.7428 105.258 52.4566C108.484 52.4566 113 52.4566 113.387 52.4566C113.903 60.3022 109.903 67.3762 103.581 71.1061Z" fill="#00064A"/>
</g>
<defs>
<filter id="filter0_d" x="0.826092" y="0.956524" width="184.348" height="184.348" filterUnits="userSpaceOnUse" color-interpolation-filters="sRGB">
<feFlood flood-opacity="0" result="BackgroundImageFix"/>
<feColorMatrix in="SourceAlpha" type="matrix" values="0 0 0 0 0 0 0 0 0 0 0 0 0 0 0 0 0 0 127 0"/>
<feOffset dy="39.1304"/>
<feGaussianBlur stdDeviation="26.087"/>
<feColorMatrix type="matrix" values="0 0 0 0 0.0522222 0 0 0 0 0.0736667 0 0 0 0 0.266667 0 0 0 0.15 0"/>
<feBlend mode="normal" in2="BackgroundImageFix" result="effect1_dropShadow"/>
<feBlend mode="normal" in="SourceGraphic" in2="effect1_dropShadow" result="shape"/>
</filter>
</defs>
</svg>
