<svg width="535" height="274" viewBox="0 0 535 274" fill="none" xmlns="http://www.w3.org/2000/svg">
<path d="M0 111L198 111" stroke="#F4F4FF" stroke-width="39.5705"/>
<path d="M194.374 111.16L477.963 111.16" stroke="#F4F4FF" stroke-width="20"/>
<path d="M202.288 111.16L281.759 111.16C302.339 111.16 319.021 94.4767 319.021 73.8973V73.8973C319.021 53.318 335.704 36.6351 356.284 36.6351L394.206 36.635" stroke="#F4F4FF" stroke-width="20"/>
<path d="M194.374 111.159L308.469 111.159C328.867 111.159 345.402 127.695 345.402 148.092V148.092C345.402 168.489 361.937 185.024 382.334 185.024L427.841 185.024" stroke="#F4F4FF" stroke-width="20"/>
<path opacity="0.3" d="M427.841 185.025L382.334 185.025C361.937 185.025 345.402 168.489 345.402 148.092C345.402 139.473 342.449 131.543 337.5 125.259" stroke="#78DAB1" stroke-width="2" stroke-linecap="round" stroke-dasharray="15 20"/>
<path d="M11 105L43 105" stroke="#78DAB1" stroke-width="3.95706" stroke-linecap="round"/>
<path d="M21 116L57 116" stroke="#240D85" stroke-width="3.95706" stroke-linecap="round"/>
<path d="M109 116L126 116" stroke="#240D85" stroke-width="3.95706" stroke-linecap="round"/>
<path d="M76 105L93 105" stroke="#78DAB1" stroke-width="3.95706" stroke-linecap="round"/>
<path d="M51 105L68 105" stroke="#240D85" stroke-width="3.95706" stroke-linecap="round"/>
<path d="M65 116L101 116" stroke="#78DAB1" stroke-width="3.95706" stroke-linecap="round"/>
<path d="M101 105L138 105" stroke="#78DAB1" stroke-width="3.95706" stroke-linecap="round"/>
<path opacity="0.3" d="M279 111L441 111" stroke="#78DAB1" stroke-width="2" stroke-linecap="round" stroke-dasharray="15 20"/>
<path opacity="0.3" d="M394.206 36.635L356.284 36.6351C335.704 36.6351 319.021 53.318 319.021 73.8973C319.021 83.9859 315.012 93.1381 308.5 99.8474" stroke="#78DAB1" stroke-width="2" stroke-linecap="round" stroke-dasharray="15 20"/>
<g filter="url(#filter0_d)">
<rect x="129.326" y="35.9753" width="150.368" height="150.368" rx="25.8895" fill="#240D85"/>
</g>
<mask id="mask0" mask-type="alpha" maskUnits="userSpaceOnUse" x="198" y="113" width="37" height="33">
<path fill-rule="evenodd" clip-rule="evenodd" d="M198.389 113.446H234.823V145.262H198.389V113.446Z" fill="white"/>
</mask>
<g mask="url(#mask0)">
<path fill-rule="evenodd" clip-rule="evenodd" d="M207.049 115.38L198.53 141.598C197.824 143.77 199.88 145.826 202.052 145.121L232.891 135.1C235.062 134.395 235.518 131.523 233.67 130.18L211.348 113.981C209.813 112.866 207.636 113.574 207.049 115.38Z" fill="white"/>
</g>
<mask id="mask1" mask-type="alpha" maskUnits="userSpaceOnUse" x="170" y="110" width="35" height="33">
<path fill-rule="evenodd" clip-rule="evenodd" d="M170.968 110.723H204.132V142.548H170.968V110.723Z" fill="white"/>
</mask>
<g mask="url(#mask1)">
<path fill-rule="evenodd" clip-rule="evenodd" d="M201.336 110.723H173.768C171.484 110.723 170.164 113.314 171.506 115.161L190.566 141.394C191.909 143.242 194.78 142.788 195.486 140.616L203.994 114.38C204.58 112.575 203.234 110.723 201.336 110.723Z" fill="white"/>
</g>
<path fill-rule="evenodd" clip-rule="evenodd" d="M204.989 104.001L196.47 77.7811C195.764 75.6096 192.893 75.1557 191.551 77.003L172.491 103.237C171.149 105.084 172.468 107.674 174.752 107.674L202.332 107.659C204.231 107.658 205.576 105.806 204.989 104.001Z" fill="white"/>
<path fill-rule="evenodd" clip-rule="evenodd" d="M212.354 106.394L234.657 90.1896C236.504 88.8473 239.095 90.1674 239.095 92.4508V124.877C239.095 127.16 236.504 128.48 234.657 127.138L212.352 110.915C210.817 109.799 210.818 107.51 212.354 106.394Z" fill="white"/>
<g filter="url(#filter1_d)">
<rect width="65.9509" height="65.9509" rx="32.9755" transform="matrix(-1 0 0 1 505.663 75.5459)" fill="#78DAB1"/>
</g>
<g filter="url(#filter2_d)">
<rect width="65.9509" height="65.9509" rx="32.9755" transform="matrix(-1 0 0 1 437.074 3)" fill="#78DAB1"/>
</g>
<g filter="url(#filter3_d)">
<rect width="65.9509" height="65.9509" rx="32.9755" transform="matrix(-1 0 0 1 459.497 152.049)" fill="#78DAB1"/>
</g>
<defs>
<filter id="filter0_d" x="100.083" y="33.2845" width="208.853" height="208.853" filterUnits="userSpaceOnUse" color-interpolation-filters="sRGB">
<feFlood flood-opacity="0" result="BackgroundImageFix"/>
<feColorMatrix in="SourceAlpha" type="matrix" values="0 0 0 0 0 0 0 0 0 0 0 0 0 0 0 0 0 0 127 0"/>
<feOffset dy="26.5518"/>
<feGaussianBlur stdDeviation="14.6213"/>
<feColorMatrix type="matrix" values="0 0 0 0 0.0522222 0 0 0 0 0.0736667 0 0 0 0 0.266667 0 0 0 0.15 0"/>
<feBlend mode="normal" in2="BackgroundImageFix" result="effect1_dropShadow"/>
<feBlend mode="normal" in="SourceGraphic" in2="effect1_dropShadow" result="shape"/>
</filter>
<filter id="filter1_d" x="410.469" y="72.8551" width="124.436" height="124.436" filterUnits="userSpaceOnUse" color-interpolation-filters="sRGB">
<feFlood flood-opacity="0" result="BackgroundImageFix"/>
<feColorMatrix in="SourceAlpha" type="matrix" values="0 0 0 0 0 0 0 0 0 0 0 0 0 0 0 0 0 0 127 0"/>
<feOffset dy="26.5518"/>
<feGaussianBlur stdDeviation="14.6213"/>
<feColorMatrix type="matrix" values="0 0 0 0 0.0522222 0 0 0 0 0.0736667 0 0 0 0 0.266667 0 0 0 0.15 0"/>
<feBlend mode="normal" in2="BackgroundImageFix" result="effect1_dropShadow"/>
<feBlend mode="normal" in="SourceGraphic" in2="effect1_dropShadow" result="shape"/>
</filter>
<filter id="filter2_d" x="341.88" y="0.3092" width="124.436" height="124.436" filterUnits="userSpaceOnUse" color-interpolation-filters="sRGB">
<feFlood flood-opacity="0" result="BackgroundImageFix"/>
<feColorMatrix in="SourceAlpha" type="matrix" values="0 0 0 0 0 0 0 0 0 0 0 0 0 0 0 0 0 0 127 0"/>
<feOffset dy="26.5518"/>
<feGaussianBlur stdDeviation="14.6213"/>
<feColorMatrix type="matrix" values="0 0 0 0 0.0522222 0 0 0 0 0.0736667 0 0 0 0 0.266667 0 0 0 0.15 0"/>
<feBlend mode="normal" in2="BackgroundImageFix" result="effect1_dropShadow"/>
<feBlend mode="normal" in="SourceGraphic" in2="effect1_dropShadow" result="shape"/>
</filter>
<filter id="filter3_d" x="364.303" y="149.358" width="124.436" height="124.436" filterUnits="userSpaceOnUse" color-interpolation-filters="sRGB">
<feFlood flood-opacity="0" result="BackgroundImageFix"/>
<feColorMatrix in="SourceAlpha" type="matrix" values="0 0 0 0 0 0 0 0 0 0 0 0 0 0 0 0 0 0 127 0"/>
<feOffset dy="26.5518"/>
<feGaussianBlur stdDeviation="14.6213"/>
<feColorMatrix type="matrix" values="0 0 0 0 0.0522222 0 0 0 0 0.0736667 0 0 0 0 0.266667 0 0 0 0.15 0"/>
<feBlend mode="normal" in2="BackgroundImageFix" result="effect1_dropShadow"/>
<feBlend mode="normal" in="SourceGraphic" in2="effect1_dropShadow" result="shape"/>
</filter>
</defs>
</svg>
