<svg width="379" height="379" viewBox="0 0 379 379" fill="none" xmlns="http://www.w3.org/2000/svg">
<circle cx="191" cy="167" r="147" fill="#F4F4FF"/>
<g filter="url(#filter0_d)">
<path d="M331.881 65.4123C329.715 61.7357 326.18 59.0685 322.05 57.996C317.92 56.9235 313.533 57.5333 309.852 59.6916L307.84 60.8739L306.658 58.8622C305.619 56.9772 304.214 55.3195 302.524 53.987C300.834 52.6546 298.894 51.6744 296.819 51.1046C294.744 50.5347 292.575 50.3866 290.442 50.6692C288.308 50.9517 286.253 51.6591 284.398 52.7494C282.543 53.8398 280.925 55.2911 279.64 57.0175C278.355 58.7439 277.429 60.7104 276.918 62.8006C276.406 64.8909 276.318 67.0626 276.66 69.1873C277.002 71.312 277.766 73.3466 278.908 75.1709L295.888 104.077C296.022 104.304 296.241 104.469 296.497 104.535C296.753 104.602 297.024 104.564 297.252 104.431L326.161 87.4416C327.983 86.3711 329.577 84.9521 330.851 83.2655C332.124 81.5789 333.054 79.6579 333.585 77.6121C334.116 75.5664 334.239 73.436 333.947 71.3427C333.654 69.2494 332.953 67.2342 331.881 65.4123V65.4123Z" fill="#DA7878"/>
</g>
<g filter="url(#filter1_d)">
<path d="M81.8298 274.412C83.9955 270.736 87.5313 268.069 91.6613 266.996C95.7914 265.924 100.178 266.533 103.859 268.692L105.871 269.874L107.053 267.862C108.091 265.977 109.497 264.319 111.187 262.987C112.877 261.655 114.817 260.674 116.892 260.105C118.967 259.535 121.136 259.387 123.269 259.669C125.402 259.952 127.458 260.659 129.313 261.749C131.168 262.84 132.786 264.291 134.071 266.018C135.356 267.744 136.282 269.71 136.793 271.801C137.305 273.891 137.393 276.063 137.051 278.187C136.709 280.312 135.945 282.347 134.803 284.171L117.823 313.077C117.689 313.304 117.47 313.469 117.214 313.535C116.958 313.602 116.687 313.564 116.459 313.431L87.5504 296.442C85.728 295.371 84.1343 293.952 82.8604 292.265C81.5865 290.579 80.6574 288.658 80.1262 286.612C79.5949 284.566 79.4719 282.436 79.7642 280.343C80.0565 278.249 80.7584 276.234 81.8298 274.412V274.412Z" fill="#DA7878"/>
</g>
<g filter="url(#filter2_d)">
<path d="M304.78 235.9C305.555 234.594 307.445 234.594 308.22 235.9L315.93 248.897C316.207 249.365 316.663 249.699 317.192 249.824L331.802 253.257C333.261 253.6 333.839 255.365 332.865 256.504L323.004 268.028C322.656 268.435 322.486 268.965 322.531 269.499L323.829 284.674C323.958 286.179 322.435 287.278 321.047 286.682L307.29 280.769C306.786 280.552 306.214 280.552 305.71 280.769L291.953 286.682C290.565 287.278 289.042 286.179 289.171 284.674L290.469 269.499C290.514 268.965 290.344 268.435 289.996 268.028L280.135 256.504C279.161 255.365 279.739 253.6 281.198 253.257L295.808 249.824C296.337 249.699 296.793 249.365 297.07 248.897L304.78 235.9Z" fill="#F39150"/>
</g>
<g filter="url(#filter3_d)">
<path d="M75.7799 49.8999C76.5547 48.5937 78.4453 48.5937 79.2202 49.8999L86.9297 62.8971C87.2071 63.3648 87.663 63.6994 88.1923 63.8237L102.802 67.2568C104.261 67.5995 104.839 69.3654 103.865 70.504L94.0044 82.0282C93.6561 82.4353 93.4857 82.9651 93.5314 83.4989L94.8294 98.6738C94.9582 100.179 93.4351 101.278 92.0469 100.682L78.2898 94.7685C77.7856 94.5518 77.2144 94.5518 76.7102 94.7685L62.9531 100.682C61.5649 101.278 60.0418 100.179 60.1706 98.6738L61.4686 83.4989C61.5143 82.9651 61.3439 82.4353 60.9956 82.0282L51.1354 70.504C50.1613 69.3654 50.7389 67.5995 52.1976 67.2568L66.8077 63.8237C67.3371 63.6994 67.7929 63.3648 68.0704 62.8971L75.7799 49.8999Z" fill="#F39150"/>
</g>
<g filter="url(#filter4_d)">
<rect x="115" y="93.9755" width="150.368" height="150.368" rx="25.8895" fill="#240D85"/>
</g>
<mask id="mask0" mask-type="alpha" maskUnits="userSpaceOnUse" x="184" y="171" width="37" height="33">
<path fill-rule="evenodd" clip-rule="evenodd" d="M184.063 171.446H220.497V203.262H184.063V171.446Z" fill="white"/>
</mask>
<g mask="url(#mask0)">
<path fill-rule="evenodd" clip-rule="evenodd" d="M192.723 173.38L184.204 199.598C183.499 201.77 185.554 203.826 187.726 203.121L218.565 193.1C220.737 192.395 221.192 189.524 219.345 188.18L197.023 171.981C195.487 170.866 193.31 171.574 192.723 173.38" fill="white"/>
</g>
<mask id="mask1" mask-type="alpha" maskUnits="userSpaceOnUse" x="156" y="168" width="34" height="33">
<path fill-rule="evenodd" clip-rule="evenodd" d="M156.642 168.724H189.807V200.548H156.642V168.724Z" fill="white"/>
</mask>
<g mask="url(#mask1)">
<path fill-rule="evenodd" clip-rule="evenodd" d="M187.01 168.724H159.442C157.159 168.724 155.838 171.314 157.181 173.161L176.241 199.394C177.583 201.242 180.454 200.788 181.16 198.616L189.668 172.38C190.254 170.575 188.908 168.724 187.01 168.724" fill="white"/>
</g>
<path fill-rule="evenodd" clip-rule="evenodd" d="M190.663 162.002L182.144 135.781C181.439 133.61 178.567 133.156 177.225 135.003L158.166 161.237C156.823 163.084 158.143 165.674 160.426 165.674L188.007 165.659C189.905 165.658 191.25 163.807 190.663 162.002" fill="white"/>
<path fill-rule="evenodd" clip-rule="evenodd" d="M198.028 164.394L220.331 148.19C222.179 146.847 224.769 148.167 224.769 150.451V182.877C224.769 185.16 222.179 186.48 220.331 185.138L198.026 168.915C196.492 167.799 196.492 165.51 198.028 164.394" fill="white"/>
<g filter="url(#filter5_d)">
<path d="M203.5 3H178.5C175.143 3.04509 171.941 4.39083 169.598 6.74181C167.255 9.09279 165.961 12.2569 166.001 15.5396V45.369C166.001 45.693 166.099 46.0097 166.284 46.2787C166.468 46.5477 166.731 46.7567 167.038 46.8792C167.344 47.0016 167.682 47.0318 168.006 46.966C168.33 46.9002 168.627 46.7413 168.859 46.5097L175.526 39.804H203.5C206.857 39.7589 210.059 38.4132 212.402 36.0622C214.745 33.7112 216.039 30.5471 215.999 27.2644V15.5396C216.039 12.2569 214.745 9.09279 212.402 6.74181C210.059 4.39083 206.857 3.04509 203.5 3V3ZM203.5 24.9993C202.84 24.9993 202.196 24.8081 201.648 24.45C201.1 24.0919 200.672 23.5829 200.42 22.9874C200.168 22.3918 200.102 21.7365 200.23 21.1043C200.359 20.4721 200.676 19.8914 201.143 19.4356C201.609 18.9798 202.203 18.6694 202.849 18.5436C203.496 18.4178 204.166 18.4824 204.775 18.7291C205.384 18.9757 205.905 19.3935 206.271 19.9294C206.637 20.4654 206.833 21.0955 206.833 21.7401C206.833 22.6045 206.482 23.4335 205.856 24.0447C205.231 24.6559 204.384 24.9993 203.5 24.9993ZM194.333 21.7401C194.333 22.3847 194.138 23.0149 193.771 23.5508C193.405 24.0868 192.885 24.5045 192.276 24.7512C191.667 24.9979 190.996 25.0624 190.35 24.9367C189.703 24.8109 189.109 24.5005 188.643 24.0447C188.177 23.5889 187.859 23.0082 187.731 22.376C187.602 21.7437 187.668 21.0884 187.921 20.4929C188.173 19.8974 188.6 19.3884 189.148 19.0302C189.696 18.6721 190.341 18.481 191 18.481C191.884 18.481 192.732 18.8244 193.357 19.4356C193.982 20.0468 194.333 20.8758 194.333 21.7401ZM178.5 18.481C179.16 18.481 179.804 18.6721 180.352 19.0302C180.9 19.3884 181.328 19.8974 181.58 20.4929C181.832 21.0884 181.898 21.7437 181.77 22.376C181.641 23.0082 181.324 23.5889 180.857 24.0447C180.391 24.5005 179.797 24.8109 179.151 24.9367C178.504 25.0624 177.834 24.9979 177.225 24.7512C176.616 24.5045 176.095 24.0868 175.729 23.5508C175.363 23.0149 175.167 22.3847 175.167 21.7401C175.167 20.8758 175.518 20.0468 176.144 19.4356C176.769 18.8244 177.616 18.481 178.5 18.481V18.481Z" fill="#78DAB1"/>
</g>
<g filter="url(#filter6_d)">
<path d="M232.5 292H207.5C204.143 292.045 200.941 293.391 198.598 295.742C196.255 298.093 194.961 301.257 195.001 304.54V334.369C195.001 334.693 195.099 335.01 195.284 335.279C195.468 335.548 195.731 335.757 196.038 335.879C196.344 336.002 196.682 336.032 197.006 335.966C197.33 335.9 197.627 335.741 197.859 335.51L204.526 328.804H232.5C235.857 328.759 239.059 327.413 241.402 325.062C243.745 322.711 245.039 319.547 244.999 316.264V304.54C245.039 301.257 243.745 298.093 241.402 295.742C239.059 293.391 235.857 292.045 232.5 292V292ZM232.5 313.999C231.84 313.999 231.196 313.808 230.648 313.45C230.1 313.092 229.672 312.583 229.42 311.987C229.168 311.392 229.102 310.737 229.23 310.104C229.359 309.472 229.676 308.891 230.143 308.436C230.609 307.98 231.203 307.669 231.849 307.544C232.496 307.418 233.166 307.482 233.775 307.729C234.384 307.976 234.905 308.393 235.271 308.929C235.637 309.465 235.833 310.096 235.833 310.74C235.833 311.605 235.482 312.433 234.856 313.045C234.231 313.656 233.384 313.999 232.5 313.999ZM223.333 310.74C223.333 311.385 223.138 312.015 222.771 312.551C222.405 313.087 221.885 313.505 221.276 313.751C220.667 313.998 219.996 314.062 219.35 313.937C218.703 313.811 218.109 313.501 217.643 313.045C217.177 312.589 216.859 312.008 216.731 311.376C216.602 310.744 216.668 310.088 216.921 309.493C217.173 308.897 217.6 308.388 218.148 308.03C218.696 307.672 219.341 307.481 220 307.481C220.884 307.481 221.732 307.824 222.357 308.436C222.982 309.047 223.333 309.876 223.333 310.74ZM207.5 307.481C208.16 307.481 208.804 307.672 209.352 308.03C209.9 308.388 210.328 308.897 210.58 309.493C210.832 310.088 210.898 310.744 210.77 311.376C210.641 312.008 210.324 312.589 209.857 313.045C209.391 313.501 208.797 313.811 208.151 313.937C207.504 314.062 206.834 313.998 206.225 313.751C205.616 313.505 205.095 313.087 204.729 312.551C204.363 312.015 204.167 311.385 204.167 310.74C204.167 309.876 204.518 309.047 205.144 308.436C205.769 307.824 206.616 307.481 207.5 307.481V307.481Z" fill="#78DAB1"/>
</g>
<g filter="url(#filter7_d)">
<path d="M73.8245 187.301C75.275 186.464 76.1677 184.846 75.9445 183.061C75.6656 180.829 73.6014 179.267 71.3698 179.267H57.4223C57.5339 178.988 57.7013 178.598 57.8129 178.263C58.6497 176.143 60.2118 172.237 60.2118 168.221C60.2118 163.702 57.0318 160.968 54.856 160.801C53.5171 160.745 52.5128 161.582 52.2897 163.088C51.8992 165.933 50.0023 170.117 49.2212 171.735C48.9981 172.237 48.7191 172.684 48.3286 173.074C47.0455 174.525 43.8096 178.095 40.7412 180.215C40.7412 180.327 40.797 180.494 40.797 180.606V207.329C40.797 207.552 40.7412 207.776 40.7412 207.999C45.9854 209.505 50.7276 210.23 55.916 210.23H67.7992C69.8634 210.23 71.8161 208.836 72.2066 206.827C72.5413 205.153 71.9277 203.647 70.8119 202.643C72.7087 202.197 74.1592 200.467 74.1592 198.459C74.1592 197.175 73.6014 196.004 72.6529 195.223C74.5498 194.777 76.0003 193.047 76.0003 191.039C76.0003 189.477 75.1635 188.082 73.8245 187.301Z" fill="#240D85"/>
<path d="M34.6601 178.263H25.3432C24.06 178.263 23 179.323 23 180.606V207.329C23 208.612 24.06 209.672 25.3432 209.672H34.6601C35.9432 209.672 37.0032 208.612 37.0032 207.329V180.662C37.0032 179.323 35.999 178.263 34.6601 178.263ZM30.0295 205.6C28.6906 205.6 27.5748 204.484 27.5748 203.145C27.5748 201.806 28.6906 200.69 30.0295 200.69C31.3685 200.69 32.4843 201.806 32.4843 203.145C32.4843 204.484 31.3685 205.6 30.0295 205.6Z" fill="#240D85"/>
</g>
<g filter="url(#filter8_d)">
<path d="M353.825 176.503C355.275 175.666 356.168 174.048 355.945 172.263C355.666 170.031 353.601 168.469 351.37 168.469H337.422C337.534 168.19 337.701 167.8 337.813 167.465C338.65 165.345 340.212 161.44 340.212 157.423C340.212 152.904 337.032 150.17 334.856 150.003C333.517 149.947 332.513 150.784 332.29 152.29C331.899 155.135 330.002 159.32 329.221 160.937C328.998 161.44 328.719 161.886 328.329 162.276C327.045 163.727 323.81 167.297 320.741 169.417C320.741 169.529 320.797 169.696 320.797 169.808V196.531C320.797 196.754 320.741 196.978 320.741 197.201C325.985 198.707 330.728 199.432 335.916 199.432H347.799C349.863 199.432 351.816 198.038 352.207 196.029C352.541 194.355 351.928 192.849 350.812 191.845C352.709 191.399 354.159 189.669 354.159 187.661C354.159 186.378 353.601 185.206 352.653 184.425C354.55 183.979 356 182.249 356 180.241C356 178.679 355.163 177.284 353.825 176.503Z" fill="#240D85"/>
<path d="M314.66 167.465H305.343C304.06 167.465 303 168.525 303 169.808V196.531C303 197.814 304.06 198.874 305.343 198.874H314.66C315.943 198.874 317.003 197.814 317.003 196.531V169.864C317.003 168.525 315.999 167.465 314.66 167.465ZM310.03 194.802C308.691 194.802 307.575 193.686 307.575 192.347C307.575 191.008 308.691 189.892 310.03 189.892C311.368 189.892 312.484 191.008 312.484 192.347C312.484 193.686 311.368 194.802 310.03 194.802Z" fill="#240D85"/>
</g>
<defs>
<filter id="filter0_d" x="245.83" y="44.96" width="114.051" height="109.197" filterUnits="userSpaceOnUse" color-interpolation-filters="sRGB">
<feFlood flood-opacity="0" result="BackgroundImageFix"/>
<feColorMatrix in="SourceAlpha" type="matrix" values="0 0 0 0 0 0 0 0 0 0 0 0 0 0 0 0 0 0 127 0"/>
<feOffset dy="20.13"/>
<feGaussianBlur stdDeviation="11.085"/>
<feColorMatrix type="matrix" values="0 0 0 0 0.0522222 0 0 0 0 0.0736667 0 0 0 0 0.266667 0 0 0 0.15 0"/>
<feBlend mode="normal" in2="BackgroundImageFix" result="effect1_dropShadow"/>
<feBlend mode="normal" in="SourceGraphic" in2="effect1_dropShadow" result="shape"/>
</filter>
<filter id="filter1_d" x="53.8298" y="253.96" width="114.051" height="109.197" filterUnits="userSpaceOnUse" color-interpolation-filters="sRGB">
<feFlood flood-opacity="0" result="BackgroundImageFix"/>
<feColorMatrix in="SourceAlpha" type="matrix" values="0 0 0 0 0 0 0 0 0 0 0 0 0 0 0 0 0 0 127 0"/>
<feOffset dy="20.13"/>
<feGaussianBlur stdDeviation="11.085"/>
<feColorMatrix type="matrix" values="0 0 0 0 0.0522222 0 0 0 0 0.0736667 0 0 0 0 0.266667 0 0 0 0.15 0"/>
<feBlend mode="normal" in2="BackgroundImageFix" result="effect1_dropShadow"/>
<feBlend mode="normal" in="SourceGraphic" in2="effect1_dropShadow" result="shape"/>
</filter>
<filter id="filter2_d" x="257.484" y="232.88" width="98.0328" height="96.2667" filterUnits="userSpaceOnUse" color-interpolation-filters="sRGB">
<feFlood flood-opacity="0" result="BackgroundImageFix"/>
<feColorMatrix in="SourceAlpha" type="matrix" values="0 0 0 0 0 0 0 0 0 0 0 0 0 0 0 0 0 0 127 0"/>
<feOffset dy="20.13"/>
<feGaussianBlur stdDeviation="11.085"/>
<feColorMatrix type="matrix" values="0 0 0 0 0.0522222 0 0 0 0 0.0736667 0 0 0 0 0.266667 0 0 0 0.15 0"/>
<feBlend mode="normal" in2="BackgroundImageFix" result="effect1_dropShadow"/>
<feBlend mode="normal" in="SourceGraphic" in2="effect1_dropShadow" result="shape"/>
</filter>
<filter id="filter3_d" x="28.4836" y="46.8803" width="98.0328" height="96.2667" filterUnits="userSpaceOnUse" color-interpolation-filters="sRGB">
<feFlood flood-opacity="0" result="BackgroundImageFix"/>
<feColorMatrix in="SourceAlpha" type="matrix" values="0 0 0 0 0 0 0 0 0 0 0 0 0 0 0 0 0 0 127 0"/>
<feOffset dy="20.13"/>
<feGaussianBlur stdDeviation="11.085"/>
<feColorMatrix type="matrix" values="0 0 0 0 0.0522222 0 0 0 0 0.0736667 0 0 0 0 0.266667 0 0 0 0.15 0"/>
<feBlend mode="normal" in2="BackgroundImageFix" result="effect1_dropShadow"/>
<feBlend mode="normal" in="SourceGraphic" in2="effect1_dropShadow" result="shape"/>
</filter>
<filter id="filter4_d" x="85.7574" y="91.2847" width="208.853" height="208.853" filterUnits="userSpaceOnUse" color-interpolation-filters="sRGB">
<feFlood flood-opacity="0" result="BackgroundImageFix"/>
<feColorMatrix in="SourceAlpha" type="matrix" values="0 0 0 0 0 0 0 0 0 0 0 0 0 0 0 0 0 0 127 0"/>
<feOffset dy="26.5518"/>
<feGaussianBlur stdDeviation="14.6213"/>
<feColorMatrix type="matrix" values="0 0 0 0 0.0522222 0 0 0 0 0.0736667 0 0 0 0 0.266667 0 0 0 0.15 0"/>
<feBlend mode="normal" in2="BackgroundImageFix" result="effect1_dropShadow"/>
<feBlend mode="normal" in="SourceGraphic" in2="effect1_dropShadow" result="shape"/>
</filter>
<filter id="filter5_d" x="143.83" y="0.959999" width="94.34" height="88.34" filterUnits="userSpaceOnUse" color-interpolation-filters="sRGB">
<feFlood flood-opacity="0" result="BackgroundImageFix"/>
<feColorMatrix in="SourceAlpha" type="matrix" values="0 0 0 0 0 0 0 0 0 0 0 0 0 0 0 0 0 0 127 0"/>
<feOffset dy="20.13"/>
<feGaussianBlur stdDeviation="11.085"/>
<feColorMatrix type="matrix" values="0 0 0 0 0.0522222 0 0 0 0 0.0736667 0 0 0 0 0.266667 0 0 0 0.15 0"/>
<feBlend mode="normal" in2="BackgroundImageFix" result="effect1_dropShadow"/>
<feBlend mode="normal" in="SourceGraphic" in2="effect1_dropShadow" result="shape"/>
</filter>
<filter id="filter6_d" x="172.83" y="289.96" width="94.34" height="88.34" filterUnits="userSpaceOnUse" color-interpolation-filters="sRGB">
<feFlood flood-opacity="0" result="BackgroundImageFix"/>
<feColorMatrix in="SourceAlpha" type="matrix" values="0 0 0 0 0 0 0 0 0 0 0 0 0 0 0 0 0 0 127 0"/>
<feOffset dy="20.13"/>
<feGaussianBlur stdDeviation="11.085"/>
<feColorMatrix type="matrix" values="0 0 0 0 0.0522222 0 0 0 0 0.0736667 0 0 0 0 0.266667 0 0 0 0.15 0"/>
<feBlend mode="normal" in2="BackgroundImageFix" result="effect1_dropShadow"/>
<feBlend mode="normal" in="SourceGraphic" in2="effect1_dropShadow" result="shape"/>
</filter>
<filter id="filter7_d" x="0.83" y="158.758" width="97.3403" height="93.7723" filterUnits="userSpaceOnUse" color-interpolation-filters="sRGB">
<feFlood flood-opacity="0" result="BackgroundImageFix"/>
<feColorMatrix in="SourceAlpha" type="matrix" values="0 0 0 0 0 0 0 0 0 0 0 0 0 0 0 0 0 0 127 0"/>
<feOffset dy="20.13"/>
<feGaussianBlur stdDeviation="11.085"/>
<feColorMatrix type="matrix" values="0 0 0 0 0.0522222 0 0 0 0 0.0736667 0 0 0 0 0.266667 0 0 0 0.15 0"/>
<feBlend mode="normal" in2="BackgroundImageFix" result="effect1_dropShadow"/>
<feBlend mode="normal" in="SourceGraphic" in2="effect1_dropShadow" result="shape"/>
</filter>
<filter id="filter8_d" x="280.83" y="147.96" width="97.3403" height="93.7723" filterUnits="userSpaceOnUse" color-interpolation-filters="sRGB">
<feFlood flood-opacity="0" result="BackgroundImageFix"/>
<feColorMatrix in="SourceAlpha" type="matrix" values="0 0 0 0 0 0 0 0 0 0 0 0 0 0 0 0 0 0 127 0"/>
<feOffset dy="20.13"/>
<feGaussianBlur stdDeviation="11.085"/>
<feColorMatrix type="matrix" values="0 0 0 0 0.0522222 0 0 0 0 0.0736667 0 0 0 0 0.266667 0 0 0 0.15 0"/>
<feBlend mode="normal" in2="BackgroundImageFix" result="effect1_dropShadow"/>
<feBlend mode="normal" in="SourceGraphic" in2="effect1_dropShadow" result="shape"/>
</filter>
</defs>
</svg>
