<svg width="379" height="379" viewBox="0 0 379 379" fill="none" xmlns="http://www.w3.org/2000/svg">
<circle cx="190" cy="185" r="147" fill="#F4F4FF"/>
<g filter="url(#filter0_d)">
<path d="M330.881 65.4123C328.715 61.7357 325.18 59.0685 321.05 57.996C316.92 56.9235 312.533 57.5333 308.852 59.6916L306.84 60.8739L305.658 58.8622C304.619 56.9772 303.214 55.3195 301.524 53.987C299.834 52.6546 297.894 51.6744 295.819 51.1046C293.744 50.5347 291.575 50.3866 289.442 50.6692C287.308 50.9517 285.253 51.6591 283.398 52.7494C281.543 53.8398 279.925 55.2911 278.64 57.0175C277.355 58.7439 276.429 60.7104 275.918 62.8006C275.406 64.8909 275.318 67.0626 275.66 69.1873C276.002 71.312 276.766 73.3466 277.908 75.1709L294.888 104.077C295.022 104.304 295.241 104.469 295.497 104.535C295.753 104.602 296.024 104.564 296.252 104.431L325.161 87.4416C326.983 86.3711 328.577 84.9521 329.851 83.2655C331.124 81.5789 332.054 79.6579 332.585 77.6121C333.116 75.5664 333.239 73.436 332.947 71.3427C332.654 69.2494 331.953 67.2342 330.881 65.4123V65.4123Z" fill="#DA7878"/>
</g>
<g filter="url(#filter1_d)">
<path d="M80.8298 274.412C82.9955 270.736 86.5313 268.069 90.6613 266.996C94.7914 265.924 99.1782 266.533 102.859 268.692L104.871 269.874L106.053 267.862C107.091 265.977 108.497 264.319 110.187 262.987C111.877 261.655 113.817 260.674 115.892 260.105C117.967 259.535 120.136 259.387 122.269 259.669C124.402 259.952 126.458 260.659 128.313 261.749C130.168 262.84 131.786 264.291 133.071 266.018C134.356 267.744 135.282 269.71 135.793 271.801C136.305 273.891 136.393 276.063 136.051 278.187C135.709 280.312 134.945 282.347 133.803 284.171L116.823 313.077C116.689 313.304 116.47 313.469 116.214 313.535C115.958 313.602 115.687 313.564 115.459 313.431L86.5504 296.442C84.728 295.371 83.1343 293.952 81.8604 292.265C80.5865 290.579 79.6574 288.658 79.1262 286.612C78.5949 284.566 78.4719 282.436 78.7642 280.343C79.0565 278.249 79.7584 276.234 80.8298 274.412V274.412Z" fill="#DA7878"/>
</g>
<g filter="url(#filter2_d)">
<path d="M303.78 235.9C304.555 234.594 306.445 234.594 307.22 235.9L314.93 248.897C315.207 249.365 315.663 249.699 316.192 249.824L330.802 253.257C332.261 253.6 332.839 255.365 331.865 256.504L322.004 268.028C321.656 268.435 321.486 268.965 321.531 269.499L322.829 284.674C322.958 286.179 321.435 287.278 320.047 286.682L306.29 280.769C305.786 280.552 305.214 280.552 304.71 280.769L290.953 286.682C289.565 287.278 288.042 286.179 288.171 284.674L289.469 269.499C289.514 268.965 289.344 268.435 288.996 268.028L279.135 256.504C278.161 255.365 278.739 253.6 280.198 253.257L294.808 249.824C295.337 249.699 295.793 249.365 296.07 248.897L303.78 235.9Z" fill="#F39150"/>
</g>
<g filter="url(#filter3_d)">
<rect x="114" y="93.9756" width="150.368" height="150.368" rx="25.8895" fill="#240D85"/>
</g>
<mask id="mask0" mask-type="alpha" maskUnits="userSpaceOnUse" x="183" y="171" width="37" height="33">
<path fill-rule="evenodd" clip-rule="evenodd" d="M183.063 171.447H219.497V203.262H183.063V171.447Z" fill="white"/>
</mask>
<g mask="url(#mask0)">
<path fill-rule="evenodd" clip-rule="evenodd" d="M191.723 173.38L183.204 199.598C182.499 201.77 184.554 203.826 186.726 203.121L217.565 193.1C219.737 192.395 220.192 189.524 218.345 188.181L196.023 171.981C194.487 170.866 192.31 171.574 191.723 173.38" fill="white"/>
</g>
<mask id="mask1" mask-type="alpha" maskUnits="userSpaceOnUse" x="155" y="168" width="34" height="33">
<path fill-rule="evenodd" clip-rule="evenodd" d="M155.642 168.724H188.807V200.548H155.642V168.724Z" fill="white"/>
</mask>
<g mask="url(#mask1)">
<path fill-rule="evenodd" clip-rule="evenodd" d="M186.01 168.724H158.442C156.159 168.724 154.838 171.314 156.181 173.162L175.241 199.394C176.583 201.242 179.454 200.788 180.16 198.616L188.668 172.38C189.254 170.575 187.908 168.724 186.01 168.724" fill="white"/>
</g>
<path fill-rule="evenodd" clip-rule="evenodd" d="M189.663 162.002L181.144 135.781C180.439 133.61 177.567 133.156 176.225 135.003L157.166 161.237C155.823 163.084 157.143 165.674 159.426 165.674L187.007 165.659C188.905 165.658 190.25 163.807 189.663 162.002" fill="white"/>
<path fill-rule="evenodd" clip-rule="evenodd" d="M197.028 164.394L219.331 148.19C221.179 146.848 223.769 148.168 223.769 150.451V182.877C223.769 185.161 221.179 186.481 219.331 185.138L197.026 168.915C195.492 167.799 195.492 165.51 197.028 164.394" fill="white"/>
<g filter="url(#filter4_d)">
<path d="M203.5 3H178.5C175.143 3.04509 171.941 4.39083 169.598 6.74181C167.255 9.09279 165.961 12.2569 166.001 15.5396V45.369C166.001 45.693 166.099 46.0097 166.284 46.2787C166.468 46.5477 166.731 46.7567 167.038 46.8792C167.344 47.0016 167.682 47.0318 168.006 46.966C168.33 46.9002 168.627 46.7413 168.859 46.5097L175.526 39.804H203.5C206.857 39.7589 210.059 38.4132 212.402 36.0622C214.745 33.7112 216.039 30.5471 215.999 27.2644V15.5396C216.039 12.2569 214.745 9.09279 212.402 6.74181C210.059 4.39083 206.857 3.04509 203.5 3ZM203.5 24.9993C202.84 24.9993 202.196 24.8081 201.648 24.45C201.1 24.0919 200.672 23.5829 200.42 22.9874C200.168 22.3918 200.102 21.7365 200.23 21.1043C200.359 20.4721 200.676 19.8914 201.143 19.4356C201.609 18.9798 202.203 18.6694 202.849 18.5436C203.496 18.4178 204.166 18.4824 204.775 18.7291C205.384 18.9757 205.905 19.3935 206.271 19.9294C206.637 20.4654 206.833 21.0955 206.833 21.7401C206.833 22.6045 206.482 23.4335 205.856 24.0447C205.231 24.6559 204.384 24.9993 203.5 24.9993ZM194.333 21.7401C194.333 22.3847 194.138 23.0149 193.771 23.5508C193.405 24.0868 192.885 24.5045 192.276 24.7512C191.667 24.9979 190.996 25.0624 190.35 24.9367C189.703 24.8109 189.109 24.5005 188.643 24.0447C188.177 23.5889 187.859 23.0082 187.731 22.376C187.602 21.7437 187.668 21.0884 187.921 20.4929C188.173 19.8974 188.6 19.3884 189.148 19.0302C189.696 18.6721 190.341 18.481 191 18.481C191.884 18.481 192.732 18.8244 193.357 19.4356C193.982 20.0468 194.333 20.8758 194.333 21.7401ZM178.5 18.481C179.16 18.481 179.804 18.6721 180.352 19.0302C180.9 19.3884 181.328 19.8974 181.58 20.4929C181.832 21.0884 181.898 21.7437 181.77 22.376C181.641 23.0082 181.324 23.5889 180.857 24.0447C180.391 24.5005 179.797 24.8109 179.151 24.9367C178.504 25.0624 177.834 24.9979 177.225 24.7512C176.616 24.5045 176.095 24.0868 175.729 23.5508C175.363 23.0149 175.167 22.3847 175.167 21.7401C175.167 20.8758 175.518 20.0468 176.144 19.4356C176.769 18.8244 177.616 18.481 178.5 18.481Z" fill="#78DAB1"/>
</g>
<g filter="url(#filter5_d)">
<path d="M232.5 292H207.5C204.143 292.045 200.941 293.391 198.598 295.742C196.255 298.093 194.961 301.257 195.001 304.54V334.369C195.001 334.693 195.099 335.01 195.284 335.279C195.468 335.548 195.731 335.757 196.038 335.879C196.344 336.002 196.682 336.032 197.006 335.966C197.33 335.9 197.627 335.741 197.859 335.51L204.526 328.804H232.5C235.857 328.759 239.059 327.413 241.402 325.062C243.745 322.711 245.039 319.547 244.999 316.264V304.54C245.039 301.257 243.745 298.093 241.402 295.742C239.059 293.391 235.857 292.045 232.5 292V292ZM232.5 313.999C231.84 313.999 231.196 313.808 230.648 313.45C230.1 313.092 229.672 312.583 229.42 311.987C229.168 311.392 229.102 310.737 229.23 310.104C229.359 309.472 229.676 308.891 230.143 308.436C230.609 307.98 231.203 307.669 231.849 307.544C232.496 307.418 233.166 307.482 233.775 307.729C234.384 307.976 234.905 308.393 235.271 308.929C235.637 309.465 235.833 310.096 235.833 310.74C235.833 311.605 235.482 312.433 234.856 313.045C234.231 313.656 233.384 313.999 232.5 313.999ZM223.333 310.74C223.333 311.385 223.138 312.015 222.771 312.551C222.405 313.087 221.885 313.505 221.276 313.751C220.667 313.998 219.996 314.062 219.35 313.937C218.703 313.811 218.109 313.501 217.643 313.045C217.177 312.589 216.859 312.008 216.731 311.376C216.602 310.744 216.668 310.088 216.921 309.493C217.173 308.897 217.6 308.388 218.148 308.03C218.696 307.672 219.341 307.481 220 307.481C220.884 307.481 221.732 307.824 222.357 308.436C222.982 309.047 223.333 309.876 223.333 310.74ZM207.5 307.481C208.16 307.481 208.804 307.672 209.352 308.03C209.9 308.388 210.328 308.897 210.58 309.493C210.832 310.088 210.898 310.744 210.77 311.376C210.641 312.008 210.324 312.589 209.857 313.045C209.391 313.501 208.797 313.811 208.151 313.937C207.504 314.062 206.834 313.998 206.225 313.751C205.616 313.505 205.095 313.087 204.729 312.551C204.363 312.015 204.167 311.385 204.167 310.74C204.167 309.876 204.518 309.047 205.144 308.436C205.769 307.824 206.616 307.481 207.5 307.481V307.481Z" fill="#78DAB1"/>
</g>
<g filter="url(#filter6_d)">
<path d="M73.8245 187.301C75.275 186.464 76.1677 184.846 75.9445 183.061C75.6656 180.829 73.6014 179.267 71.3698 179.267H57.4223C57.5339 178.988 57.7013 178.597 57.8129 178.263C58.6497 176.143 60.2118 172.237 60.2118 168.221C60.2118 163.702 57.0318 160.968 54.856 160.8C53.5171 160.745 52.5128 161.582 52.2897 163.088C51.8992 165.933 50.0023 170.117 49.2212 171.735C48.9981 172.237 48.7191 172.684 48.3286 173.074C47.0455 174.525 43.8096 178.095 40.7412 180.215C40.7412 180.327 40.797 180.494 40.797 180.606V207.329C40.797 207.552 40.7412 207.775 40.7412 207.999C45.9854 209.505 50.7276 210.23 55.916 210.23H67.7992C69.8634 210.23 71.8161 208.835 72.2066 206.827C72.5413 205.153 71.9277 203.647 70.8119 202.643C72.7087 202.196 74.1592 200.467 74.1592 198.459C74.1592 197.175 73.6014 196.004 72.6529 195.223C74.5498 194.776 76.0003 193.047 76.0003 191.038C76.0003 189.476 75.1635 188.082 73.8245 187.301Z" fill="#240D85"/>
<path d="M34.6601 178.263H25.3432C24.06 178.263 23 179.323 23 180.606V207.329C23 208.612 24.06 209.672 25.3432 209.672H34.6601C35.9432 209.672 37.0032 208.612 37.0032 207.329V180.662C37.0032 179.323 35.999 178.263 34.6601 178.263ZM30.0295 205.6C28.6906 205.6 27.5748 204.484 27.5748 203.145C27.5748 201.806 28.6906 200.69 30.0295 200.69C31.3685 200.69 32.4843 201.806 32.4843 203.145C32.4843 204.484 31.3685 205.6 30.0295 205.6Z" fill="#240D85"/>
</g>
<g filter="url(#filter7_d)">
<path d="M353.825 176.503C355.275 175.666 356.168 174.048 355.945 172.263C355.666 170.031 353.601 168.469 351.37 168.469H337.422C337.534 168.19 337.701 167.8 337.813 167.465C338.65 165.345 340.212 161.44 340.212 157.423C340.212 152.904 337.032 150.17 334.856 150.003C333.517 149.947 332.513 150.784 332.29 152.29C331.899 155.135 330.002 159.32 329.221 160.937C328.998 161.44 328.719 161.886 328.329 162.276C327.045 163.727 323.81 167.297 320.741 169.417C320.741 169.529 320.797 169.696 320.797 169.808V196.531C320.797 196.754 320.741 196.978 320.741 197.201C325.985 198.707 330.728 199.432 335.916 199.432H347.799C349.863 199.432 351.816 198.038 352.207 196.029C352.541 194.355 351.928 192.849 350.812 191.845C352.709 191.399 354.159 189.669 354.159 187.661C354.159 186.378 353.601 185.206 352.653 184.425C354.55 183.979 356 182.249 356 180.241C356 178.679 355.163 177.284 353.825 176.503Z" fill="#240D85"/>
<path d="M314.66 167.465H305.343C304.06 167.465 303 168.525 303 169.808V196.531C303 197.814 304.06 198.874 305.343 198.874H314.66C315.943 198.874 317.003 197.814 317.003 196.531V169.864C317.003 168.525 315.999 167.465 314.66 167.465ZM310.03 194.802C308.691 194.802 307.575 193.686 307.575 192.347C307.575 191.008 308.691 189.892 310.03 189.892C311.368 189.892 312.484 191.008 312.484 192.347C312.484 193.686 311.368 194.802 310.03 194.802Z" fill="#240D85"/>
</g>
<defs>
<filter id="filter0_d" x="244.83" y="44.96" width="114.051" height="109.197" filterUnits="userSpaceOnUse" color-interpolation-filters="sRGB">
<feFlood flood-opacity="0" result="BackgroundImageFix"/>
<feColorMatrix in="SourceAlpha" type="matrix" values="0 0 0 0 0 0 0 0 0 0 0 0 0 0 0 0 0 0 127 0"/>
<feOffset dy="20.13"/>
<feGaussianBlur stdDeviation="11.085"/>
<feColorMatrix type="matrix" values="0 0 0 0 0.0522222 0 0 0 0 0.0736667 0 0 0 0 0.266667 0 0 0 0.15 0"/>
<feBlend mode="normal" in2="BackgroundImageFix" result="effect1_dropShadow"/>
<feBlend mode="normal" in="SourceGraphic" in2="effect1_dropShadow" result="shape"/>
</filter>
<filter id="filter1_d" x="52.8298" y="253.96" width="114.051" height="109.197" filterUnits="userSpaceOnUse" color-interpolation-filters="sRGB">
<feFlood flood-opacity="0" result="BackgroundImageFix"/>
<feColorMatrix in="SourceAlpha" type="matrix" values="0 0 0 0 0 0 0 0 0 0 0 0 0 0 0 0 0 0 127 0"/>
<feOffset dy="20.13"/>
<feGaussianBlur stdDeviation="11.085"/>
<feColorMatrix type="matrix" values="0 0 0 0 0.0522222 0 0 0 0 0.0736667 0 0 0 0 0.266667 0 0 0 0.15 0"/>
<feBlend mode="normal" in2="BackgroundImageFix" result="effect1_dropShadow"/>
<feBlend mode="normal" in="SourceGraphic" in2="effect1_dropShadow" result="shape"/>
</filter>
<filter id="filter2_d" x="256.484" y="232.88" width="98.0328" height="96.2667" filterUnits="userSpaceOnUse" color-interpolation-filters="sRGB">
<feFlood flood-opacity="0" result="BackgroundImageFix"/>
<feColorMatrix in="SourceAlpha" type="matrix" values="0 0 0 0 0 0 0 0 0 0 0 0 0 0 0 0 0 0 127 0"/>
<feOffset dy="20.13"/>
<feGaussianBlur stdDeviation="11.085"/>
<feColorMatrix type="matrix" values="0 0 0 0 0.0522222 0 0 0 0 0.0736667 0 0 0 0 0.266667 0 0 0 0.15 0"/>
<feBlend mode="normal" in2="BackgroundImageFix" result="effect1_dropShadow"/>
<feBlend mode="normal" in="SourceGraphic" in2="effect1_dropShadow" result="shape"/>
</filter>
<filter id="filter3_d" x="84.7574" y="91.2848" width="208.853" height="208.853" filterUnits="userSpaceOnUse" color-interpolation-filters="sRGB">
<feFlood flood-opacity="0" result="BackgroundImageFix"/>
<feColorMatrix in="SourceAlpha" type="matrix" values="0 0 0 0 0 0 0 0 0 0 0 0 0 0 0 0 0 0 127 0"/>
<feOffset dy="26.5518"/>
<feGaussianBlur stdDeviation="14.6213"/>
<feColorMatrix type="matrix" values="0 0 0 0 0.0522222 0 0 0 0 0.0736667 0 0 0 0 0.266667 0 0 0 0.15 0"/>
<feBlend mode="normal" in2="BackgroundImageFix" result="effect1_dropShadow"/>
<feBlend mode="normal" in="SourceGraphic" in2="effect1_dropShadow" result="shape"/>
</filter>
<filter id="filter4_d" x="143.83" y="0.959999" width="94.34" height="88.34" filterUnits="userSpaceOnUse" color-interpolation-filters="sRGB">
<feFlood flood-opacity="0" result="BackgroundImageFix"/>
<feColorMatrix in="SourceAlpha" type="matrix" values="0 0 0 0 0 0 0 0 0 0 0 0 0 0 0 0 0 0 127 0"/>
<feOffset dy="20.13"/>
<feGaussianBlur stdDeviation="11.085"/>
<feColorMatrix type="matrix" values="0 0 0 0 0.0522222 0 0 0 0 0.0736667 0 0 0 0 0.266667 0 0 0 0.15 0"/>
<feBlend mode="normal" in2="BackgroundImageFix" result="effect1_dropShadow"/>
<feBlend mode="normal" in="SourceGraphic" in2="effect1_dropShadow" result="shape"/>
</filter>
<filter id="filter5_d" x="172.83" y="289.96" width="94.34" height="88.34" filterUnits="userSpaceOnUse" color-interpolation-filters="sRGB">
<feFlood flood-opacity="0" result="BackgroundImageFix"/>
<feColorMatrix in="SourceAlpha" type="matrix" values="0 0 0 0 0 0 0 0 0 0 0 0 0 0 0 0 0 0 127 0"/>
<feOffset dy="20.13"/>
<feGaussianBlur stdDeviation="11.085"/>
<feColorMatrix type="matrix" values="0 0 0 0 0.0522222 0 0 0 0 0.0736667 0 0 0 0 0.266667 0 0 0 0.15 0"/>
<feBlend mode="normal" in2="BackgroundImageFix" result="effect1_dropShadow"/>
<feBlend mode="normal" in="SourceGraphic" in2="effect1_dropShadow" result="shape"/>
</filter>
<filter id="filter6_d" x="0.83" y="158.758" width="97.3403" height="93.7723" filterUnits="userSpaceOnUse" color-interpolation-filters="sRGB">
<feFlood flood-opacity="0" result="BackgroundImageFix"/>
<feColorMatrix in="SourceAlpha" type="matrix" values="0 0 0 0 0 0 0 0 0 0 0 0 0 0 0 0 0 0 127 0"/>
<feOffset dy="20.13"/>
<feGaussianBlur stdDeviation="11.085"/>
<feColorMatrix type="matrix" values="0 0 0 0 0.0522222 0 0 0 0 0.0736667 0 0 0 0 0.266667 0 0 0 0.15 0"/>
<feBlend mode="normal" in2="BackgroundImageFix" result="effect1_dropShadow"/>
<feBlend mode="normal" in="SourceGraphic" in2="effect1_dropShadow" result="shape"/>
</filter>
<filter id="filter7_d" x="280.83" y="147.96" width="97.3403" height="93.7723" filterUnits="userSpaceOnUse" color-interpolation-filters="sRGB">
<feFlood flood-opacity="0" result="BackgroundImageFix"/>
<feColorMatrix in="SourceAlpha" type="matrix" values="0 0 0 0 0 0 0 0 0 0 0 0 0 0 0 0 0 0 127 0"/>
<feOffset dy="20.13"/>
<feGaussianBlur stdDeviation="11.085"/>
<feColorMatrix type="matrix" values="0 0 0 0 0.0522222 0 0 0 0 0.0736667 0 0 0 0 0.266667 0 0 0 0.15 0"/>
<feBlend mode="normal" in2="BackgroundImageFix" result="effect1_dropShadow"/>
<feBlend mode="normal" in="SourceGraphic" in2="effect1_dropShadow" result="shape"/>
</filter>
</defs>
</svg>
