<svg width="150" height="150" viewBox="0 0 150 150" fill="none" xmlns="http://www.w3.org/2000/svg">
<circle cx="75" cy="75" r="75" fill="#240D85" fill-opacity="0.15"/>
<mask id="mask0" mask-type="alpha" maskUnits="userSpaceOnUse" x="0" y="0" width="150" height="150">
<circle cx="75" cy="75" r="75" fill="white"/>
</mask>
<g mask="url(#mask0)">
<path d="M118.087 152.22C118.031 152.22 117.974 152.22 117.917 152.22C116.611 152.248 115.29 152.22 113.984 152.22L15.0471 149.318C14.9903 149.318 14.9335 149.318 14.8909 149.318C14.8767 149.318 14.8767 149.318 14.8625 149.318C14.8483 149.318 14.8341 149.318 14.8341 149.318H14.8199C14.5359 149.29 14.2519 149.205 13.9822 149.036C13.0592 148.501 12.5623 147.106 13.2012 146.177C13.2012 146.163 13.2154 146.149 13.2154 146.149C13.258 146.078 13.3006 146.022 13.3432 145.965C15.2458 143.064 17.3898 140.303 19.4061 137.485C23.6231 131.569 27.8401 125.667 32.0571 119.75C36.9131 112.947 41.769 106.143 46.6108 99.3389C50.629 93.7043 54.6473 88.0838 58.6655 82.4491C60.0144 80.5475 61.3632 78.6599 62.7121 76.7723V38.8935C62.7121 37.513 63.706 36.4424 64.9839 36.1466C65.1685 36.1043 65.3531 36.0762 65.5377 36.0762C65.5803 36.0762 65.6087 36.0762 65.6513 36.0762H91.1379C92.7992 36.0762 93.7363 37.8652 92.9696 39.2597C91.3225 42.2743 89.6897 45.3029 88.0426 48.3174C89.6897 51.346 91.3225 54.3605 92.9696 57.3751C93.069 57.5582 93.14 57.7554 93.1826 57.9667C93.2252 58.1216 93.2535 58.2907 93.2535 58.4456C93.2677 58.9105 93.1116 59.3472 92.8276 59.7134C92.8276 59.7134 92.8276 59.7275 92.8134 59.7275L92.7992 59.7416C92.501 60.0938 92.1035 60.3614 91.6491 60.4882C91.4787 60.5304 91.2941 60.5586 91.1095 60.5586H68.3916V76.7159C70.138 79.1388 71.8419 81.5758 73.5741 83.9987C77.7912 89.915 82.0082 95.8173 86.2252 101.734C86.8215 102.565 87.4179 103.396 88.0142 104.241C88.5822 105.044 89.1643 105.847 89.7323 106.65C90.3002 107.453 90.8824 108.256 91.4503 109.059C94.5598 113.425 97.6835 117.792 100.793 122.159C102.497 124.54 104.187 126.92 105.89 129.301C106.558 130.245 107.225 131.175 107.907 132.118C108.574 133.062 109.241 133.992 109.909 134.936C110.888 136.302 111.868 137.683 112.848 139.049C114.537 141.415 118.258 146.67 119.947 149.036C120.885 150.375 119.592 152.22 118.087 152.22Z" fill="#00064A"/>
<path d="M137.863 128.743C137.427 129.759 136.413 130.455 135.286 130.455L121.299 139.982C120.637 139.05 112.78 128.604 112.118 127.672C111.456 126.74 110.794 125.822 110.118 124.889C108.442 122.538 106.752 120.186 105.062 117.835C101.978 113.522 98.8793 109.208 95.795 104.895C95.2316 104.102 94.6542 103.309 94.0909 102.516C93.5275 101.723 92.9501 100.93 92.3867 100.137C95.6542 95.7955 98.9075 91.4543 102.175 87.0993C102.724 86.3758 103.302 85.8888 104.231 85.7775C105.02 85.6662 106.062 85.8749 106.597 86.5428C106.611 86.5706 106.625 86.5845 106.654 86.6123C107.977 88.115 109.146 89.7847 110.372 91.3569C112.935 94.6267 115.498 97.8964 118.047 101.166C120.991 104.923 123.948 108.694 126.892 112.45C129.343 115.567 131.779 118.698 134.23 121.814C135.244 123.108 136.258 124.402 137.272 125.696C138.004 126.629 138.342 127.63 137.863 128.743Z" fill="#00064A"/>
</g>
</svg>
