<svg width="75" height="75" viewBox="0 0 75 75" fill="none" xmlns="http://www.w3.org/2000/svg">
<path d="M75 48.2984C75 44.7644 73.4211 41.623 71.0526 39.6597V39.267C71.0526 20.0262 55.6579 4.31937 36.3158 3.9267C34.3421 1.57068 31.1842 0 27.6316 0C21.7105 0 16.9737 4.31937 16.1842 9.81675C6.71053 16.0995 0 27.0942 0 39.267C0 43.9791 0.789474 47.9058 2.36842 52.2251C0.789474 54.1885 0 56.5445 0 59.2932C0 65.9686 5.13158 71.0733 11.8421 71.0733C13.8158 71.0733 15.3947 70.6806 16.9737 69.8953C22.5 73.0366 28.4211 75 35.1316 75C46.9737 75 57.2368 69.1099 63.9474 60.4712C70.2632 59.6859 75 54.5812 75 48.2984ZM35.5263 66.7539C30.7895 66.7539 26.8421 65.5759 22.8947 63.6126C23.6842 62.0419 23.6842 60.4712 23.6842 58.9005C23.6842 52.2251 18.5526 47.1204 11.8421 47.1204C11.0526 47.1204 9.86842 47.1204 9.07895 47.5131C8.28947 44.7644 7.89474 42.0157 7.89474 39.267C7.89474 31.0209 11.8421 23.1675 17.7632 18.0628C19.7368 21.5969 23.6842 23.5602 27.6316 23.5602C33.9474 23.5602 39.0789 18.4555 39.4737 12.1728C52.1053 14.1361 61.9737 23.9529 63.1579 36.5183C56.8421 36.5183 51.3158 42.0157 51.3158 48.2984C51.3158 52.2251 53.2895 55.3665 56.0526 57.7225C50.9211 63.2199 43.8158 66.7539 35.5263 66.7539Z" fill="#00064A"/>
</svg>
