<svg width="181" height="181" viewBox="0 0 181 181" fill="none" xmlns="http://www.w3.org/2000/svg">
<g filter="url(#filter0_d)">
<path d="M128 62.2984C128 58.7644 126.421 55.623 124.053 53.6597V53.267C124.053 34.0262 108.658 18.3194 89.3158 17.9267C87.3421 15.5707 84.1842 14 80.6316 14C74.7105 14 69.9737 18.3194 69.1842 23.8168C59.7105 30.0995 53 41.0942 53 53.267C53 57.9791 53.7895 61.9058 55.3684 66.2251C53.7895 68.1885 53 70.5445 53 73.2932C53 79.9686 58.1316 85.0733 64.8421 85.0733C66.8158 85.0733 68.3947 84.6806 69.9737 83.8953C75.5 87.0366 81.4211 89 88.1316 89C99.9737 89 110.237 83.1099 116.947 74.4712C123.263 73.6859 128 68.5812 128 62.2984ZM88.5263 80.7539C83.7895 80.7539 79.8421 79.5759 75.8947 77.6126C76.6842 76.0419 76.6842 74.4712 76.6842 72.9005C76.6842 66.2251 71.5526 61.1204 64.8421 61.1204C64.0526 61.1204 62.8684 61.1204 62.0789 61.5131C61.2895 58.7644 60.8947 56.0157 60.8947 53.267C60.8947 45.0209 64.8421 37.1675 70.7632 32.0628C72.7368 35.5969 76.6842 37.5602 80.6316 37.5602C86.9474 37.5602 92.0789 32.4555 92.4737 26.1728C105.105 28.1361 114.974 37.9529 116.158 50.5183C109.842 50.5183 104.316 56.0157 104.316 62.2984C104.316 66.2251 106.289 69.3665 109.053 71.7225C103.921 77.2199 96.8158 80.7539 88.5263 80.7539Z" fill="#00064A"/>
</g>
<defs>
<filter id="filter0_d" x="0.826092" y="0.956524" width="179.348" height="179.348" filterUnits="userSpaceOnUse" color-interpolation-filters="sRGB">
<feFlood flood-opacity="0" result="BackgroundImageFix"/>
<feColorMatrix in="SourceAlpha" type="matrix" values="0 0 0 0 0 0 0 0 0 0 0 0 0 0 0 0 0 0 127 0"/>
<feOffset dy="39.1304"/>
<feGaussianBlur stdDeviation="26.087"/>
<feColorMatrix type="matrix" values="0 0 0 0 0.0522222 0 0 0 0 0.0736667 0 0 0 0 0.266667 0 0 0 0.15 0"/>
<feBlend mode="normal" in2="BackgroundImageFix" result="effect1_dropShadow"/>
<feBlend mode="normal" in="SourceGraphic" in2="effect1_dropShadow" result="shape"/>
</filter>
</defs>
</svg>
